<mxfile host="65bd71144e">
    <diagram id="w_EECDEWXK-ok0cupwhF" name="Page-1">
        <mxGraphModel dx="490" dy="784" grid="1" gridSize="10" guides="1" tooltips="1" connect="1" arrows="1" fold="1" page="1" pageScale="1" pageWidth="850" pageHeight="1100" math="0" shadow="0">
            <root>
                <mxCell id="0"/>
                <mxCell id="1" parent="0"/>
                <mxCell id="2" value="" style="shape=image;verticalLabelPosition=bottom;labelBackgroundColor=default;verticalAlign=top;aspect=fixed;imageAspect=0;image=data:image/png,iVBORw0KGgoAAAANSUhEUgAAAygAAAFVCAYAAAAE18vHAAAAAXNSR0IArs4c6QAAAARnQU1BAACxjwv8YQUAAAAJcEhZcwAADsMAAA7DAcdvqGQAAP+lSURBVHhe7J0HgGRF1bbfzj15ZnMmRwmC5CCiiICCOaKfGcQARlTUXxH0M6CfAURQEQMqImIATCgZiUrOYXMOMzuhc/d/nrpds72zM5sXZpd6Z2vv7XvrVp06derUqRybMWNGTQEBAQEBAQEBAQEBAaMA8fo1ICAgICAgICAgICDgOUdooAQEBAQEBAQEBAQEjBqEBkpAQEBAQEBAQEBAwKhBaKAEBAQEBAQEBAQEBIwahAZKQEBAQEBAQEBAQMCoQWigBAQEBAQEBAQEBASMGoQGSkBAQEBAQEBAQEDAqEFooAQEBAQEBAQEBAQEjBqEBkpAQEBAQEBAQEBAwKhBaKAEBAQEBAQEBAQEBIwahAaKIVa/VmMxVWJxcwnV7LrqTUBAQEBAQEBAQEDAs4HQQAkICAgICAgICAgIGDUIDRRDrX6N12pK1KruCqqxmmqxqnPCDfoMCAgICAgICAgICNgSCA2UgICAgICAgICAgIBRg9iMGTPWe1ggxghCjZGEmGJujQaf4lirsenrNWr8xRrIqREHjrB9XA3vNzPiFk+8RirNMXrC1f1fdS76/dytS9lULm9Z7gUEBAQEBAQEBARsOjZ4BCUWo3ESuYCAgICAgICAgICAgM2JjZriVavV6o7RlMa1GRvbaIm+Y3wi7taAVKKrPYvXEm5Uw4+jbBlEISdrZWVqeWVrA8pU80pXq/YsxRu3u1cVb1vxWhTI37J8DHgukEgkVDVZDQgICAgICAjYFrBJIyhhFCUg4LmFL4e+0yAgICAgICAgYGvHsGtQ3ECBu0uY8WOuVlWtWlC5MqBMNqZKpeSex+29amYgmYu+qNpf2Y0vNDZdooZMo/PApx+JcXeDa1ASibSq1bTFlbKnSWtK0ZbCX8W9Hw5VjDS7xswvozGD4fNs0Nn/9g+/5UpMqWRKSUtPVnnFyovUlDFPZXOGUjKm3upEVWJNbgUK4VSrZZeeeN0wrDT0XEN6Y+o8ovSvAjQ4Ohzs+1pByWTFaDLuVSoN/iP+r4JP0/Dgq4h97o6bOiwORn6qRXtaVSzZrGLJeBpLG6/Sxn94WnEG7lBatzasGt2L+JTNZt19xfjqn23N8Gkgn3CMnnDN5XJWRKL+Bv8uICAgICAgIGBrRGz69OlrWG3O+HZ3dQPZjPJKpWCuX23tGWdIV8pVJeJm5DLvCfvX/tyWvPwYgqgBQojeeWAQ128NNE4qFletWlMm02Rvs2ZIx+2axKf5IJyRGyjeNscvaYierKLHRcUju4kaMwmXhrTFmSj3qZJfoonjrWEygEdDc5PmLM8onm5TMp1xRl+5XKi/XIV6kA719tWwiMWNR5Y2eOX4Zfc0HGIqKpO2e3tfKJbMZxRijcbfJjZQIkOVDDJXKyqdomGS1fLuvBLWUEmmstH7Ol+3diMe+r0DLS0tg7+ZBoXz77ZmI943THwa+vr6XAOF9Pl3w2FrTnNAQEBAQEDA8wOxiRMnrmmRmgEXmTE0IKpmN5sRHSspmRzQLrtNVjqdMkNdZlSnzSCuf+4MbXP10ZBhgZE82GCIW/BxCxcDnNjo/Y1buNb4qVaUzmatEdSkXC5pjYmUGV4Jo8YaK+bVG5ig0eDi6ZqJWQUaBUQfDfjYfzELr2rpqhbUkuhTZ/PT+tTHjlVrE3E0a+nAVJ37f3/RyoFmlSoMrcSUSo08K841O1zgI8Cn33jk+BYrKp4omUFZUNaCT5iBWSzw217VWzrslhaLc+95t7YUekADdLqEWnTW+LDwXIPInvdbA+yppxaoXGGEigZL1LiMW16Uy+sT/ugFRjrOG++TJk0afObfb+1GemODi2upVNKyZcvcb+49RkpnY/kJCAgICAgICBhtSLS0tHypfj+IyKyNEE3/waguK5GsaMrUcW7aTKlUMYMWYy/yFxnA9N5GhqEzCO1dZChG/lY5b0BGRvQqeym6x4DKZMxij6UtHmtEWEMG5943GOjRCIT9I9D1gMXo/iDC04jxnjTa49WcXRfr2GP2VSph6Y2nVU2M13U3PqRiOWNpt1YL3zTEB52NcQ+GPwSrDEKuFpeLn3Bo+FWMZ1VLb8JNNyuXys6/Y1+dT/CW76KRqFXpXyei1pybhkaYjBq1tLRamhNaumylCgXCs4Yf9JF/Lpo16d8aAd9IV2dnp8tn7xrza2uEK1d1kJZk0hqYhv7+/sFpbC4/Df5+qAsICAgICAgIGM2ITZgwYQ2LBRMuMuP4H4O6bJecGUQ5vXC/nc3ATWrWzIUqlpjSReMBf2Y40WCoj6BEjY91wVnEq4xGM9bj8ZrSWWnS5PFmuLeqWEibl6z5SqlqYUahbyjq8RiNMRo7Fh1T0cxcs7hLStUGlNVitcfm6NvnHKxkol9ltWlleR996uy/qL80QRV1mKNRY99upJFH88o5+56r4KsKdtevpqaYKkVp/rylg73gFTeasTofN8zArqc7TkOoarQXtPNOMyzlWd1731OqVjP2Nl33BWcJe0PCH52ARziM+RkzZgzeb6sol8uaN2+eikUToICAgICAgICArRzrtNoYpfAGObYx05BwlUo0n79ajXptq5WK66mPev03rKfah1N1YRJeVclUUul0uj7asMptaTTGwT1pa3y2uXugWZcCvxLxhOIJ+Lp6L/hQ+Hcb4+AzaUnW1yhsi0a7zzOcR2P+bYvwaQ4ICAgICAgI2BawdgvVj4ywWxcL5u1/ZhvFY0kziFL2PmvPms01mbHbYgZ2myqxFpXtWanW5K7DO95lBx27ZFVizaqaq1iYpUrMTUcyc9p+J82lnKtW12VQe3qHGqT+uRHvRi0YoeBqz2uMIKTdeybLZGq9SptLasCe0GiK2/uE3ZnRa+/XDnwwEjGSIz5iwa2i063dMcbG4kmVquZqGecaeRS5oTyF163m2ty1Ys8YHamav2qN+xZzdq22WEMTl1YyGaUVV3VrUoDnT0TPtoDGBtm23kAJCAgICAgICNiWgFW6VjQaeHTS+nn8US91tLZhlYt+bwpYx8JICli/aWLPDjY1XSMhWri+Cm53sS0QV2OYUV5tmXhGE0jf86Fx4vMxNMQCAgICAgICtgWsvQXAcAk7T3Gyu3D2UwUlWNztDOuEqkram5TK7pq036wTGd6x8iICV0JjZIbRhOi09sjZM4svFY9CdiTY127EA1rWAjO5VTU/VfuI3Y/XNL8J249eNCJ6TlxJ5ZVRnxtJSajk6PbpWkU/3zeG43+THu6Hd9AT0cd4ij1jFzO7EkMiXnJpTlSNz5bMWDVhzt6ZH+/wu3qYET0u3XZlxCmiN66yNe4sVPvtt2guW+Mnb3EX3Y5dxB2FARxl9eu2AwYAHa/NucFA3KrLNgM6DbaVc15GM5CbxtL3bLttTW4DAgICAgJGAvXeBmNL99RiaEXnmGz7aOz9Homvbp1K/QyVzWGEbss97c9HIz2MnAQEBAQEBARsS9iIBkpDT/vgGhVvID1fjEPS2TjiMPT3hmFd07pcw8RctKB+bcaozw/vhvhliEjRqfGMRrmw3EjK2sIcTfDp8/RGfI+pbE/LShgPk4w2DY48xcyt7jsgYGMRSdtz54L8Pr/h5A+VHf00RBLp9V/M/fa6PyAgIGDrxqjUZKFHOCAgICAgICAgIOD5iY1ooLAWhF54u8T9movN3KBg9yV6hkbddJ2ox2pz92XCvainn80H+J81MWxG4Ne51J0bsdoQuJBdWFEYYDj66/7cdesDZ/G4tTex+toba+A29jS6dUx1B4amfmtHaNA/X+DL6ca6ICdbM1zuo8ein4ZIHmpujSRrDcljsK1puICAgOcjvEZbbzDNaEuD3cCeL2tQAjYvGnd+ez6tR3k+rr0JCAgICAgI2DaxwQ2U1Xrg11iDsnkwaGy5bm9Ga5574yvqpd4y6R0JsHf1OcfrC2j0o1uNICRGp2pRT9xgwM9uujYeEf2rOALN9Bym7GlaZc7McbuXrelra0hdwLMLJ00bUL68/4110W56XhrX7fzIYNVkmuuqXQSfXQxN9/ryK2BD4ThdvzZi6PNIjrzeqyhjei9t94y4r0LkK+i9gICArRPor4CArQI0Ev10puFGDMJUp4DNiefbqBQHm27NaQ7l//knswEBAdsuhm2goOKG68eJEPXk8d6dN2J/kb9199VE39V7BYdxfB/9X6fAlC09/Txzz4cnaBCs3ljruSGDazG8A6SkvquV3TkK6/H6+AbDbZg+NDwIYWgcjS7ij0ud3eJAY1wRXyNXfzQ4kuKc/R7qvL9V4KkfR1gF+9yoKFs66l9w5UyUYUIYHlEIG+/4fuOBXMScQMTcWpO+eFLLElktUVrLUi1alrRrPK5cMqGKRVeuVVbjW8DWDwwwpDWR4uylmkrmypa/FXP8rphLZtJORtZHqhMmL2iwUqWifKnowinVqipzYKy958pvniNTVQt3Y10lYXLrnJXCwfvV3UClrIrJr/tt8RHn0LiLRg+usg5jFPpj6ZRypZIK1Yrjlf8W5/lFKKs1/s1RZor2Df5c+alUVSgYf8qmGxP03EcjPJuzfA+FpwNHfsaMb1yhmXxxeWTvyDueJ5KrjyBsfbAUr6aPozypmR5D77m0xpLqjzWpJ96uJbWslpruW57IaGU8rUqaURTKSKTthjbYHBs3wVEPRndD156ub8ir0xMQEBCwNqA1NhjPx16aZ2PtzbMJX4ltjajVe3rZermSz6l9TJdSVjknzWhtbWlRImEGXtnMGHeYaMC2Bg6lHBjoVyqZUlM2a/kdN6M5riz31uDo7e11W3fzfF3o6+t33zW3NLsrMpTJZJS0RgIylm3KOn+Ez4GYwMneJrm6/A7j2tpaVbWGQaFQsPgSqxmZ3k/S5DudskbYeiCfz7v0ZNIZpSxtqVRy0BEO4TNyAvjt01ix8gOf29ra7HnSpb+lucX9LlmDBzqeLXgeFIslc0Wjo9nRn7YyT9o6Ojosz/scXc8H0Fgsl8vq6OpS3Hjg+GD56+HX4T2beRQQEBCwuRGbMGHCiFqMHhO3XoFed+UUj+V04EHTTPG16YEHFqpcy4pT5Fe1cwhqY5QiFZAZFBZavJa3eJZr7723N0XbqZ6V9NY12Vt2KrHKdK3DKIQzckMi5kZVLKYYfXA4fjNzN28xLNQ4PaMLzt1B6ViPiurU0uqLddoXbrS308x3s/mHH5ujEozSG7ew4rWcxd+t9ra4KrVm3f/gPHuTdm8H+coQiqXb/40EN8LgfES9mxE36OvkbPmCNbKWGl+nWP516K47Zzq++t1folDXlX9RiBuPdYW/dri+U+NDoRpXPp5WIdWso9/wFm23x16qmTGXLPWr3dL535uu11033iCq7F133FEJDByLFso3PvbRjSeffHKbN0hIHaMdND6SZqC+7eST9dKXHeOMZ97VzHB79OGHdd43vqFyiZHCmGuweDg/JgRu4NDu6ZFmJObLX/6yJk+e7Bq2hN/X16c//elP+sc/rjNDsOQaLu973/u03wEvUsoMYkZSq9bIiJv/Ro778EeEezmyB0eTGZ5/+etf9be//U0f++hHB0dWAe+L1nBZtHixvv+97ylrDTRrYrjnjXT430RHGs8446MaY4140tfADufpW+edp54VK1wjBX65Bovxl9GKuDVMLvzhhY6HpDlmARYLRV144YX673//6+LBrYKLNbrdDBhMg+WrQzym173+9XrFK17hGimABsvsOXN07rnnqmINFPix9cLzbxVnowZk2eWH1RYqxFIaSDfryNe9SZN33FlNLS3KWn5lCjk9fvvNuvMf1yhhDVzkJmGOUJABOLgq1I1DVLv4UDytq9O7dnj/AQEBAetGaKBYqKGBsnU0UFRjUkrN8sYkJdOifKZV3/zRTxVv7VA8lVZrvGwV9Ur99pIf6YZrr5HyBe2+y86hgbKNgNTRgODa1NSkCy+6SMe8/BhVGFGzZ0kzpJ956mm94uUvVy6Xc0Za426A+KkXJScLvoGCsd3Z0eGmCtHwwSj85S8v06c/fabrlWfU4Morf69999/PNUww4H14jcXBhR/djgA8e7emT54mYgndfMvN+p41QH7z619bmphOE4GRw5Q1MpZbg+KlL3uZli1aLJXNGOVd5MXB/yatk6dO1XX//KdaW1vc0wZ22M+aXv+61+vuO+90ssOIFKM37uBYe41R/KTxkwYKZYg/Gipf/NLZ+vnPfqaSNQ4ag6vHGt1uBvg0kIfQxOjO17/5Tb3pTW8azNey5dlia7C9+MgjVbLGm3l0z7dOeP6Rtih9wzVQkhOm6kvfu0CxljZjTty0uMn+QL+u/eUluvFPV1oDpez4EDNHvoUGSkBAwNaIxv60UQF68lDKuEiZoVrXV6l5/yO59Qin5s8eaQTrOUzpu+vmByklxvVR8ZsEl3zf8OGsFR/jhvL52YWnshpLWwXdrIGmseqzBuPh7zhVhSk7a6n9XpFqV5+9X97bp+uvv0HlgjVjTIZYskKq3Dz+ekBbnM8BWwSIK1Jq1qlbL9LU0hwZX3VHPre1trrpUat0yJpw4dT9F8slpbIZVZPWSDcjMFrnEVecdUxmFCfTaZVMJ7WP7TINUDUjMVr3giwRBn6GOtZG1IjbGhvcc56Ro9Hic6XM3vl73Grf1ioWd1IFaxgVy2V7xlqTyBFGoVJWW2enTn77292zwbQ0OLpeynX/b3rrW7W8e4WLc2i8/E5Yg8xaIEarveMbo8GVF/u/aMY/hnHNeOLX+UBjNIVyy0+nsuii8lunibVAScsr1vIUjeSitTRj6aRaOzs0UMg7Xm8LYJS46tdEWibGYhkVlFF3olUDpuf2fcPb1TNpOy1tHavubLvyqSb15/L6pzVEaWBu+amtPnyXQ/VrQEBAwOYF2mXUofEsi4CARgyuBTLjlKkeGKN+9yHcLTff4tYguDUDZnQFbLtgjQbGmG+MeBnwaLxfG4ZryDQ+YzSGKWNJ+4tbo4MRBf/ex42jhz8RTyqVSDuZtGZFfdqYXe3btDVU0G3mO7rWHenwjhEUwPqZ5DCLvomnYg2XV534KvftcKhUzJC3eBOJpN7yljdr+vQZStvvkfixNj75dHoM/f1sg/jXN1+3SViD+WXHHGPyWHK6D17Ak1tuucWtp3LlwevIgICAgK0Yo7Ql0NjPtyGg4mr8dohjbofD2hQ4RkHjKArfNo6gDAlzg9xoqFhJ19D0e76N1oo/oqtoxl9PLKNSLKW9Xv0GDXSNU3emSXl2FTLyywNFXfO7P6ipFlezmYQpe5a0T0mt62V2oQRsrfBSSz7WrDFQMZltzFc3gmDGmf+9pjHtPLipnlyZ2sgEyKr70O9M5K+Rq9m7trYOdff0Kl8u2jNCoZFB48KMfgxm7+xdT2+PhRA1VgB9//w12bMVfT0WNzE2xrDKgZzFwYhHtqXFaIt2bvIOMs36VCyV1C677KrxEydE7+yx98MIB6MejCaMnTBeEyZPciMk+Cmb8erOVGl0FrNzds8kW/jiqKlfec7ZQuyaF/XpRxipcbQlAF99OhnZaZxi597VnccqKrc2QDl8XT0FpK2ErCWy2uf1JyvfOUkrYk0qp1iHE1epr1dXX3G50rWK0sidNVAJhSmPLheNSWuGGhAQEDC6gd4KCNhqEKMCzmR00kknufUB9CZjiGIQ3nPPPeqzyhq4nsXQk/i8Bfkf34T89730bF27cMECnXzy27Trrrtq+ozpmjZ96uB12vRpq7kjjzhC9z/6oNsBK+4aOxFu/u+dOuyww7Tddtu7b6dPX+WmTbNw6m43i+PUD3zAxZm0hvdQlCtl5XM5lez67ve8u/50FViT4Wl/61veEu3AZfdsGZxIrqLH49lsaGwOUNbXbHhG8I3CbRmvfNUr3fQ60ur127///W/lVq50fKnWp3cxkuLlICAgIGBrxFo1OurN9UzVrFKoJaKeGN8D2dAnw5zZWn3/dv8memsf2HPm01biVZUtgGgtAD2O0ftkraqMPU9UTenyzCrlSjytEvNuq/WePRdGuR4HiOKlz4/v41ZZJ61ibrboWipSazWmJvOaqdSUtYiSpqzpSU+Ywk4YrfEai/7NsHWpq1PrelSjNLvxEouCdNX7F51jmX7SKvpMtWpx1dRiLmvxNll6UhaaW/PAnG03UlNVymhrMr8Z85OxkJssTHZcSdlv6OV93AzslEUPXWztmUhl3Bx4Nxfe/owSuzdD3NIPHwF8i2iC8qg3NwJ84T7izypE9PCGnV0458X1RVqchMgv4PmZtPeeX8QT9Q3jz3MCF8mGc4Tj8ojAiRtZSSodb7JoInmhsnTR2rer3FA6I+CNHlMfI/ETZzGWNZpbtMtLX6tK5wzlU22KJdPKVotqK3TrDxd9W53FXrWXi2qyTIybc6k22U06F3fpcjkNL6GZBagxdr0pKW2/s5ZfTciS5QWupWJ5bc94nsLZ15DmenJNrjBCVzlkgHT59xipdY6ZjMcSVo7MJY1PzSYryI5zFm7cjA4WtyYtv+MVuzeZzhjDGA3KIs92bbKwkSPoTBi9cdYrWFwJS1tKacWtvCTjKSUSGYsnYwap+Xbd7hi69t7KFYDOiBdco5yIgF9+jeSGz69nD6vTR48/OUDvfslcxA2eD3LdOX7znKlV3AHY4nrlzfn1SdEaC9Z7mKyaHGPw1ax8jmvvUGmFGYADeSWZ6lW2MmLXtF2zZdMBdZcx179suTqyTa4nm9jRC4zktVu5zq3oUa1YsiJtMmf5jotb3lMmcWlEMl9UzPy0t7UZHZVV612MZuhKJi2nsxm3PuWkV79G+WLRLe4vGD0s+IfugskS6XrrySe778qkh+/tWcmc023wwNxw4LnnDd9zhV98z7f8BlyiOiFy9cdbHI4XFpnjizlHBy8iBTNiury/kRzywV30/yq9VzU5YBTJSrDzR5wlu+E59WFUlniTUqmWssZgwvxbbcHZJHatJdLmUs7/2hHFnLRynDUXN6aXTI56kk0ayHRqxglvUHHcDOXSbc5fh+mIsQMr9def/cjqlAGrW9DdBGNlYnCdTsQP8ieVTln+Id9W91hjNZ4klaQTOTVdk0gobTxkY22uSafvojqhiW2dLSzuyYEKuhN9b/D1EeFwZovjYSxtjq2sk65uo35P2rvhv+eL6ApG+u2dfx4QELBtg/K+QdjcvTKER2+j24nH7qMeMlN37CZjz9cF/EfzraOkuF4kC8dvTekMYwsbsAjUXetxrQ8IrxH+N3OAgZtjbnERJuDeL1Ikjoi2qOcSutyZDVbp+Ph9ryZphT7OSCiZsQE/tkZAO2kgD+ntxYjnrAI/X3qTkU7rta977Wo85Hrvvfeqv7fXxb0hoEHp89RfmbvPvdte1fJu6HvSxvqW4Xpsec4oT4I1BUytachHZBqeOPmuyza0R/6jMAfjtWvUCwovo3hdmUB2aRiZH9YoYAB40MD1Z2y4MmWOb3GDW7U+T7Cp6488z7c0yCvv/NQlt1Dd8hg5SZiR58GZJvhgnQo6ZcrUKdqRbbRNh3Bui1970traql133U0TJ00clDn0CWsUArYsKJ+U50jXJ9zZLfCfcrkxMokMsLMcePOb3+yuyAo6Atz73/+qf8Vyd1+xeIaDkydzyA/0VUwmiqWi08kenBvFb2hG5/nRR+SGrZx5hz5ZH/hRbeIkLnQP5wttapkMCAh4fmH9Giiup2OVckLxDAd6mOixpCfT924BeuJd77M5lowmMLosCPpncuIU3CZ1p1u0INGkFa1j1bz9rpqw0x6KZTsszIwFbMqtZkZjfZ44PV30FGUrNbWXqxpbqGhaoaYdyzHtZpEemGrSMR3jdGzneHc9orVT+ybS2rUa1wx7326NCzbyrRgROQuyYMq+bJU+9EajFFXXm9lermlCqaZJpvfH+/tCVVNzFe1eS2t/o+/gtnE6qGO8do1lNMX8dObymlSqalqxpp0rce1jaTq0bYwObR+rvVLNGp8rqoueeWIxhZ+zuPrNFUyBl1s6tf0BL1Zi8k7qTnVqRaJVfYkW5Zlv7PrOo4qK3qpoBIgKiZGlaHQpGmFam4tAtsD/odWFyz+rEBnhoqeUk6zd1TzT46VYyShgk182vKTHzMtB1IfGKcf5REa96SYtsDCWZptVGDdBU/c7SInOiUo0tdZ9rx0uNGTErqS0GEtrwPiYT2Y16dDDlNluurpNyiq1spprJeNnXn/58UVqtYo0Y2RSIeeN9gL01yXcjRzBA8cjegWlJqs4Oy0PxhbKmmz5Oi1f0W6xlPa2eA5q7tThlq8vHjNRh9p1v+YO7Z5p0iQzAjrLRTXbNRWzytd4Ujb+l+yeHsv+iv1mVMaurSabUy085GKayej2ViimFyuaMlDQzsar3eNpHTZ2kg4w+dw726rJtZjaTDY7zRiYYv52NnnfO2ny0zpGR5osH9DapR3jKU00QW0z+UqUzPg0PhUsfwaM37lsm1pm7Kmu3V6ogtG8MtOqnnjW3pnxmjQ+ml96gtmYFi7A4WiEYV05snUAaXTpsuTg3EiIXd1oyTDvvfS65w2/PeyR63mmrDT+Hsnxfm3AD3KXML3FdahzIymWP65s1kdQ/aQsDNVcvqCnZs5U0fQoI2Ml0zPves/7LJ0x5/JmDJOfJZO3977/FHcfs4Yy12dmzVHeZMunHTcUFm3Er+jn4O9IVlY9f67gaeHaiPVtTEK/T8twzqTF3VEuGMtkC30zre0ZNQ55EeVb2piXsrokZnVSKZ5UbyKp5daIWGFltTczxnR3h6pjp2mH/Q9R05gJSiWblaxYo9KNsqwPonLJmrteq7dydj/+sMMVHzdR+WrS6q6UWqwOabMGx59/8iO1FHPqqhTUbALWmLfIESN4LUY5+mI706O7GN07mV6ZYc+2N70wKV/ShP68ppss7W666mCrg46dME2vmb6LXjNjFx3VOUF7Z1o01WR2rOlL9B5rXaI6PJII9Ic7iCBuuj/ZrvZd9lLn7i9QoXOceqzO67E6ocfS319NmK6En26Vln0fEbpavkB//T4KPSAg4PmKtZ6DgqJETTDtJFHLWeWZ0wEHTjcDsE0PPLTIjKOMKfGkVRiRP2oO/lyAdUOQXygyru5//DrFxBO230y4YehMe4sOOvxwvezlL9WksTH1LHpSf77ir+peXDL/KLXILEeB8TUKMm0VNdNj2pJp7TBxsiaPHaMxLS1KWXwMj7tYkglT6mUNVK0xYEp44YpuPbVkrpaV+tVr8RetcZKqFtRaXaTxscd1wTm7KR1bYQZAu3Llw3T5Vb3Ka6KZ5RkLM6HH7n9Ae+20i6aMHYeKddMqcuWSckbH3GWLdf9jD5t2NYN0/ATtMWM7dZlRS5KZtlW2mx6rVJ5aMF9PzJ9rFU9R1TQNjRVqazU+JMbrPR/+stUqrXr8iSd13V//ogfvudPijRp1ztSgcnAmJpOIoukr8ASek16MoDrX3e+oqqP6yFv+dWufvWdY2tp0x51Pm7FKwydq9FAlRLnHt1F4buqe+4tA9YoR5cP3jn/4oZFXNGIqyZR23n0PvfJVJ+mF+75Q2URcX/j0p7R49kzFrSKFrihMF4u7Wx3R88gffLOGj1V+A8kWffzCnyi9/S5WEdIjZw3fXJ9yTzyqCz/5UXVUc8oW++hKNEIxJ6Qdd97J+BV3tMMz+MFzwqbBHCsW1Jlt0pSu8ZrY2aUp48YraaLLIXieTj+1pZSIac7SxZrXvVyzly5RnzWIKoySmE/HC5fRxm+7MKmqxWTwyBfubwYF8dFDbvK3aJH9jmnHKdPUlM64cy4oKUzlWVEa0P1PPqaVS5er3Sr1naZvr+2nTFfShVszY6iqcjqhmQsX6LFZs7Sov88ahEwnMbl84mnFrEHy7lM+qEOOOFwr+3t10w3/0t+u/rNyPd1u+hhpd/JgiSIfPXw+R1zBjQT8NHz4LAP+mu1tgmhSmkzq15dfroMPOdjlD49J04rFS/Si/fe3B5Yj9nswRfV7/KF+Bg0huz72xBPuwDt6fllYTGPgyiuu0MfPOMOF6Rsf0ZTIVZwaCsKSycNNt9yi6dvNME/2oE4HB0ge/4oTVDXDEgy7Pop47DkNkAMOPURXXHWlPURyKcNxLV22TL+67Fc64/TTXaktlsqaP2euXvziF7tGOR0enCrO2qz//Oc/GjPedJTpP3ulb3/7Wzr5He/Q2AljHe2uMWTurW96i/59262OTkZmavR423u0C3ydPW+u+w3wT6n46jnn6pKLf6SaxQdvPFbJ0eYFfIUW3PcuuEAnvvok1yihoyxlRnyur0977Lqr4owsboboXVl2XKo3KOodP74hSSlClxvHjDbLL/PKlK+Kstppl731ypNepX32eYGbuvzFT5+pJbNnOz2TzsRdp8rIIE6rUywO7gqmG1bGUyqlsvqo6b3MjN3VU8sqY42h5kpe/Y8/oO+dcao1Vvqs/sq7ehZJYeoUf/AiZS5jDGwzffba41+hZpMHZKJgst7d06O//+1v6jDZP2CfF2qPnXdRR5M1Z+CjxU+qc5WSmxY4e8ki3f3wg3rU9E6e6WMu/dSAEY/wWzRaY9k2ve2d79JLXnq0+npX6sZ/Xacb/vE3LVuwwHUKMp0ZDkMj5YJ0ethPVzaHPud+DX/RbUBAwDaMTW6gVGMpVUyhUTklMRyscnXz8E3TUBVXLHQO95JVfjlTlAUzvIr2m1GLaiqjqXvto6Nf9Srtse++VjnLGgcltZYWqzD/UV116eUqLmOuPYqQyqHq1n+0mTZsGihoaiKt3TvGal8z5MZaWE1mHNSYy2+KmgYKlS1GgqtsTSnn7L7X4lhSyenBpfN0jxkzi83AK8UZGVio8fGn9MOzd1FzbblZpG2mnQ/X/X+tWeonq5xodtMuVpqBOrWtU+32BXP4yxUzGlMJqziskZJJ6smF89TX3aO9dtzZGjwpNwrDOhgq075YWcvjFfWkU7r96Sf136VztaKJnvdupduNgsw0vf2sCzQQz1olkrbKxfi1fIXuvPF6XX/1n1RasVTZckGZWtEqkWLUtDAjAaWP4cmwf3RoXVTBRop93Q0Ui8b8Rz2HUWMzMsr4ml6uKJzIQOFaSyRVIEQzDgaooNwn9l/HOB103Ik64hXHqnP8WGWtgm2z8LL5gr7yyY9r6dOPKF3qNZ9Uny6kulsdrtll/KICZLwml8xqwOQmu+9BOv2b39OA8RV0Gg8mWF5+/aMfUO+TD1ljZcCNM/kGBdhl550bGihVpex52mSk1fKty2yF7bKtetG07bR9e6eaTT6bE9bwoYI2ut2UKqMDuDDTcfVZI6HH7p9a2a3bZz6luYUBrbRwyyZfZjUbj2JORtvt2ynFmt5y6IuNTpNXC4eRxZ7+vNqsQZSx8DNWXmoVa6RaHiYyKTfis7S/XzOfmantpk43w6FNrdbArRRovmAE1VQwWVtq38wp5PSvJx7T06WCuk2G7zdDNdfUrtd++GM65OiXK8aIHOsSzCCe8/gTuvaK3+rpe243q6fPGowkqKQsZdauSYuXueNMx8M4HxnD59ezhXU1UKDclb09X+Cka9DZS64ezty0Bzh2u5o1Z46SKTOfjAf4Q1/97rf1Bgq/+Z4I7L/ob/XwPKCDBsqNQxooNC5poJx43CstE00K7DlhrAG+t3eMdB142KG6/MrfWZpJVb2BsmSpjnnZMbrr7rujqaEWLuveDj/sMC1YuFD5XN5NK9zrBS/QtX/5i+lTK0nmwH77vVD/uO4fGjd2jOOTS5NdGxsobHPsZN6eM/oEf+ZYAwU9jo5wowd287/WQPnJKGqg5Af6tbsZ104/GU82BIThp2q66VkWrvsjwXZ1awpNLtzUSavD6AxgvVPe6qRqukmcXa+OLh1+3HE6/Njj1TVxCiEpaXq6pdCvr378dK2cPUupYl6ZJPVFtBPccIhiNJrMsa6qL5FVIdmqtn0P1ke+8k0NWB3HWTxtlYImWIPkvI99UN2P3KtmoyJmOo0S4BsoSBizAFiT2WEtjOmZFn3yzW/RGBpKFjZTrrpXdLtDQQ/Z/wBN7BqjlOl1ZNMdymlEcO5M0dJetLCq2bQWlnK67enHdfXdd2ihPS9lM8oZn+AHHX39rDlMt+rNHzldB7/spa6e50yfSj6v2Y89pn9e9Xs9fucdpoMKbv1l1lJDiljbSb1t7FfCbQwBB6i7uTa6iEP+V0BAwLaNSDNvIuj1Q7G5e7ti6KD4MXbcWQV273+DltZWtz//d6yy+exZn9W+++w7WEngz1+ZUz8c2KmGnsJddtlFu+62q5qbaTxU3RxZP2e/ce4+RrufFwsNLa0tmjZtmpu/DQhvJPANc3ABNHV0dLhnVGZ+HQpgzQGYNHGiXmAGAvSx9gL4dQ64lFUMKVPa2++wg5pb2CZyTRAPYWO4tre364QTXqnzzz9fX/rSl3TAi15UNySi9LKmZdCIRsNvYTjaLF4MGdJlRGr3vfbWp422i396qd7+9rdr8qRJlk7WR0RzsAFzmDfmcDf4Wra8A+9617tdIwx4OZltlf+8p55yxjjz8NcF5mmTD6wz6ezsdHk1fvx4d4o23xMusjM4d9r84ReeM8ffY9y4cWb07edkOW15ivz7dSWAcHy+NAJZZaGzlyFHi8VLfjMPnPUDO+20k9HW5eKGf37tFECOkSvkAhmGbmfwYpjZ95zuXSrhIl5TrignZ511ln7005/qve99r0s34bj3Vh6icrMmrVsjkDN46hGt4xk5bfCPufl5MyCfDTTStj6g4wBgNIO+3l7NmjXLlQPCIv9OOeXUQV2JbJx66gfcu6SVTxrkTz/9tHp6egZ17LYEz5+NlV/4FJV56qc18wZdMBTs7Ma6kN12312fM7130Y8u1sknn2yNv3GrhccaMR8mv309skGw/EWn+ryjrFNeZ82M9B51ryv76wlPn18XcuQRR2rChAmrnptzuyPWdRm6j3qFcoV/Gr+HH3G40+/Drmsz/UoY6DIXnulRsNtuu+uzn/2sfnLJJXrHO96hrjFdg3EBeLotymdAQMDGY4hGQJnyaKiiNgXo1iDUfzYAJYRyw3GeQLTvR1plNSkXb9aKZKvmp9s1u2mM4ge+RCf+7wU65bI/ato7PqAnJ++kh5rH69HmcXoy3aUlmU711rKqJttUrKQVT3EWQNJN8WHuPFO3ukxx7lis6LVTttex2U7t21/WjN5+TagWlSkVVDOlmTeF2m/0dpcLbo0HvZoZ+35ssartBorarbesAysZvaRzivbKdKirbGEzktCob0mrhVGyMP70t2t00OfP1CFf+bwOOvvT2uN9b9OMw/dXbkyzlqTKmlnp070r5im73QQd8z9v0pFnfVQHnftZbf/FM9VdK6i3NGDKPK8OMzanW/zbD5Q0w64vaBujdrMTGYKH76z/YBlsLtOsZdk2PZNp1yNNnXqopVP3m1u518E6+nPn6Yyf/0kv+8gXVJy2pxYl7Hm6061VKcWYTOSH3Ydzw8NXb9GuY5ZzxkOmBrhRKKOJnWjYVW1Fsl0LmyZrSXaSusftqP3e8WF96rd/1+vP+4nKB5+gh1un6CnLy5mpDi0wv8vjGZU5p4QKy5LoTq02DCNGDhEXoissKVnl2xezij1tDb0ddlbn7nupx9JYriXcWhPWj1x7yU+ULfSrpTygWCnvzBWfjfTuMl2L9NH7yq40HSY725ktemCtRW+dvruOULP2LNQ0sT+v5jynz1vD2IjIV63BkJL6y3kVTLZYuTFJCe0yIO3TW9EBK8s62Dy8avoumlCKKV22yti+ZRoWV+JttWfjTOZY3zLV3JR8RZPteVOlqGI5p978SpMvi7dYsDCqml6oaEZfQTta+sZbBd9hlTsyHSsMKJHv12RLxM6FmGb0mAzla9q3c6LJD1MUrfFk31gNrxKNnbYWLU9nNS/VqtnNE/RM6yQ9nBmrJ8fuoKlveJ8+8os/67Qf/kqTjjhOi618LrPyuSLRrGIyM8i7Rrh8QQVEP0ctyGdOfocP7HLF6Ahy5B3vhwIDj86ErPErGVt7A5f047yMDvd7WNRfeL8jOiNw8Npw3xhuydL1s0svde9Slk5Gv0581auccUeHAUbwcccf5zoH+A7z8Oc//7kZgqZozJDlOw8T09Xi4zfgMsg3fjcSMApB3dN4HQm8dekdwUWNwOiOtLOmrM/CXJFIaXGmVYusflo6fkftcvIH9MFf/kGv+/aPlD/gZXqobYYeTk/WnKaxWhRPaSDVZOUwa/JnoRkz04mYUpY3JmprBSNAjFIx/pG3/CxYvOkddtT4F+yjbrtnBLHVGgATTEf/42eXqNnqpuay6Sz7hnrS7RJWn1oNXGrsFl3ZYdk/yfTcDqY3du6vaIfeknYvJ7Sn1TNtAwW1xxNu98CYhW2VqP0rKW1xtRSKmlaNa3trW+3cX9Ue+biOnbGbjtxhd7W5usvSZ8xKmw5y/Eun1GNh9GbSmp/K6ulMu2YZX562+v3B7Hg9MmEn7fiOD+n0n12l93/nEk1/6Wu0MNmphfFWrTS+5YyOgjGK3ctKlh7qDVIUEBDw/APaeJNAA8Uj6q2sukofx0gKPcxvfvNbdOHFF+kzn/mM9thzT9cr7hs1OAwEdg+hFxz0D/Rr8eLFrjd4KOh1njJlStTrY3EQP6MIjIxwz3f/+c89uvWWW3X77Xfotttuc/OxFy5Y6HYuodeHXnR6iKjEGUWhZwg6LOg1QC/2IB0WB2dw2EfSK0/QLq9+tXtHnG//5Kf0wve9T9pjj8gPPZr27q4779Rtt96mOUwjMeOR8Ohpp6eztSVaNN6IJUuWOCMDevyolO+Jw8Ffvj3qxS/Wd/7v//S1r31NBx18sPPH+y2N3XffTZ/63Fn68SU/1ete+zp1dHS6eOlRw0hCBvyuZYCRgZUrV2pgYMCNBmws3v2e97j8pWcOwJtFCxfp4bvvcflH3H4Ua12Af3vvs4/aWtvcqI7v7UOeBvr79eCDD5js3K4bbrhBN910k26+5Rbdd9/9Wrp0qZMdD2SJETV2SwLIcWNvZmPZ8CDvkRfCv9Vk84H774/4gl8zPhtHwZYtWxb5M1m+9977lMtZI6wuB8g76XCGaF32+X7mrJlu6oZLT4M8sCsPz3xP5Q477KBPfPIT+vmvfqVTTzlFXV1dax1J3FpAmpnOtO8L99XuVhYZIdt777211157rXJ7r7pndMmNlmGU1cMYrfDydPXVV5scVp3I2EVjxowxtbOH5WtCB5suaGlucXKEJHH9/VW/d9+VNmIEc1sH8uLqLXON5aURPEeGPn322brwp5e63bTGjhkbvauXK3S0H9ViRJR6Cr3XX9d7jFjybEPxP//zPxZ+9B15ThjUEQ/dffeI9K4NfhYDlR26gBEM9FYul9Ndd92tyy+/XD++9Mf6yc9+ost/c7nuv/8Bpx/dCLF9Q1lpyma1//77O/2zBqzuoq4j7dDnZgLUddHgLAbjGXEyi+ATn/yk6aBf65RT3q+uzq56IAEBAQGmr1Zfg4LCo/fIFLbrxzEj2ZRLSgUlawNKxEo66KCdVY6164775qgSb1I5nla+bMonkXFrTKrs0tHUqkn7HahXvO4NmrTDTiqYEVU1ZVaopVQzf5VK3sItqCnO+oyaMlY5ZMpF9c1+Uv/+8+Wac/c/tOv4Jouv2RQ8U4VS7iyR8X0D2jvTrBP32k8TKmZo2XfMfV1uUS6ysFgT8FT3couHytmSZcqQERV6pTotjJ1TTTp21z3VZfqeBXs9piQXZxO6Zd5j+s/Cu6ySman/+8oOatEKxUrtUu9BWnptRcXCWJVaxmiOGeE3z5+pRHuHPnnmpxWfNlW5Jx+3dJjSnzpFWtGjuX/5u/67YIH+M3++nnp6luK5vMaaYp5ihu1xu++p7bJNbhHsymxSD6ukX99/u/oSy5TskJZnJunfzxRUbpusI49/jQ46+hilWtvdeo+cpZXzYarxlOtSSlujLGuKPlbIKVstKZHr1cP/vll/u+JX6l++wp2jka4ULC3sbJVXa9IqpOpyvWD3qVZBZHT73Q+rUGUGcNaCw7CPmaGfValSE6cWF1h8Gsuolm5RYtx4veTEE3XIK16pZNdEDRhPC1hG2bRb3M0cYr/PvYwedihL9PXqgRv/qduu/oNyCxeqvLJHzRkaoTknZZHQ+bvIRetfkDmXe8rHs+pLWSNu/Ax9/Ke/UiHT6iq7TkvPuGKPrvjeebrnr39yaUzWqAgtv12bm/+j9QS77rSzW2TOhgpjrLKcZMbCy7bbRYdMnqHmfEmZZForLPkLEjU9sGKJ7pk3W93FvIrGP07kptcZ7jSZbI8r1nT0znvoheOmqK1cU87i6GlK6pFyv6566L+aXSooZ5U+40Ts1LZrX0UfOuxodRpPmce+LJXQ7FhV19x9h1ZUy6TY5DKhwyZO1hGTpivr+FrRQGuz5lukV991h5bk4VdVnSZjezeP0ct320spMzJ6jd7ZJkNXPfGwHlm+RPfPm6ellbQG4s1GbEY7HX6oXva6N2v8Tnu6tV7W5HWuBH8tn936FKOhxcJJWsOds1+WPPGobvrzVbrf5Ej9K9Vk8TKGGbf3rP9ilzjOcbEC7Hpm/boAax45PeF73LccTM9YvJz1ISuLrEE58NCDB3tZyadm+7+nv09t1vh3jTT3nX1p39VNM6PW/NsLaO83/nZlmzVg+YMBRuMNI45F8p88/Yz6SGIkqSOBd4Tp+GG03XDrLZrKGhS7Z+0IZ508/tAjOum44925Kt7/GjD/pIO5/wcdeqgu//3vBvnJ6M7ixQt1wP4HGJ0VXffPf2qP3fdw71gz8Mtf/lJnfuYzuujHF+t44ql39jz00EM67gT7bWHfa41hGqLET6876Xrrm96kf996m+MVBjZX4vT8aVwkD//47n+/HK1BQQ4IaxVI1bAp2yQwguNpOv8HP9ArTzpRrFUoWHmjY6SYL2jnHXZ05Zw1KKTL5TWkNHzL+jAc9QJ6RNWEpZmyYXrJyi27FRZMDop0dLBL15QZOvqk12mvw49Qeuw4K0dW39UsP60BUrGyk0xaONboY80jdUC60Ktk33Ldf8vNuuGP6L25SuZ7jSamHVppNyJibpTOaDDi+B/nAW1kWz7bor60leNJM3Tmj3+pgWSTeUyqs5ZXV36FfvN/X9ND//qLmk2/o3ct4HpoEai3CYsymTVZmZgvazerd7/w5pM1pVRVymSQvB3IpLQim9LsSlFX3HSjHp4/WwPoJWMeaUpb/nZYgTtx3wN07AteqA6rD0qmo7ot3XMTFV122426Zc7T6jOGV4x/+VqT6ewW9Vucam/Rjoe/WIee+FpN3WVXlZgmm7KGc83qFMu7knmJmz+3N6WlocnkM2F1R/f8Obrm1z/Xo7dc7+oSqzKUKfab/jUeWjzkpVtnZPShn6O8ZUMUUk3eb/2dLAEBARF8nb1BYJoBFRmVOaBXhN9jx4zRye96p779w4t05plnauedzThMpZTNZp3fxrnu9PwymrBs6VL96U9/0uc/crq+9tnP6sbrrnPzpdPplFU+qWidgyGKL+Hm3fMdvUqu14reKlOajz/2uOuZxsjAr+upMcf3xI1BttwMd+Zj0wvOXu8ePsyRAC1u1MUUam9vn+thf5NV7DLDu8mUr3bYnu5u3XXJJXryySc1MNCv7u7u+rqLaL0GNPk5yP7MFtYiuIXJRp/ribP7XP+ASt0r9K9fXaavvf/9OueL/0/33X+f8+9716M0ReslSBs8aG1r04tffKS+893v6uyzz9ahZuCw1sWnH1oivqzKcvgDfA+do9NocPOT7Vt6yf7fl7+sCy+8UK961ascvczXBylr3AFGBAjb5+1TTz2lb37jG/p/7363rrjoYs2bNUsDuZwb3Whcs7PeMHpfZzLFnG93hgh5aVdk5PbrrRIzEO/6oqWlRePHm7FhaYYXXi5XWH499vjj6u/rG1yfgSzhyENkHn+PmZzRO4gswD/yBPmeMnmK5euaMhSNbkT8BW4Ur56PAJlYYXLp+YfMYzyxpgB+eflnig5yNTSt+Ed2yAeXn7y3b5+6+WZdbI3or1g+XHbZZSaey53MOJotLdDq5ANjzMDzXXbdRR/+8Id10cUX67QPfcitpyI+fzYCIB6eEWejLI0WsKCX/IhGRSz/zLE+jTxw93Xn39GT6xsnw53c/lyAvPD8hdfO2Z8H73/1q185+j2OPfZYpwcOO+xwl16nO83f7678nespBxu1BmKUwcm7pasqayRb2QVOHu1Z4+jlSHDf1ssfPHZXewZ8GTzggAP15W9/Wxdd9EO9/g2vd6P16EPqAXgMHH/r5YmRRxqC3/j6N/S5975Xl//oR1o0Z47pjZLTVWUrb06+6t+uDdQN0GAFTa9+28numU8Xz3t7e3XXTTdFMlF364ORRoio1+684w499TTr+Ezf1PmDXsM/uv2///2vnnjiCZcWzzvKzd777O10QyP4PsYzqyeevuEGXfa5z+kb73mPfvPr37iRH1AoMEPA3bo89HqE/ECPfvSjH9VFl16qU0wHsRYPXpPO6Iwtq/OMR34tYkBAwLaLIaUcZWeKyZQA+oMeCX7bE7EOge0UB2IZFVPtKmTHaHm6Q4vT7Rpz2Ev17m9doA/+9Nea9oZ3au7kHfREtkNzM+3qTrWo323Rm1FnkbUXPdp+xRIVbrtJV37qI7r0fW/RYz/5rtrnPapJAws1rbxUXeUlihUWK1HrUarWr+bSgMYV8tolltABbWM0sRSd5M6uR/NjFd3WvVi35Lv1eEtST2Tieiab0My0Xev3TzYl9WRzUjObY/pP93wtyK80RVdWp4UzNV/VlEJNO7d3qsmSW+eA/W+wH5lSRS2lmpoLFqfxIFfIaaUZBovt+8+f9w080+Wpvr/8U2OX9mqHXFXjLUwNFMzwsUaR2fELze5ZaDbCksKAU7DZuDWsylU1YSC6aKJY26p5S3+vJuW6NSbXo+b+Zcref4duOPezuvAdr9OdF5+v5KyZGpPvN5r6rRIpaaWFsTDdpMdiaT3c1Kn7WsZr6e4v0uGf+rJO//lVetkZ/0/lnfbX/KbxWtY8zq0J6o01K69my09znLOS7dIycwtYB7TjPnrRx7+gD/32Gh37lW8pd8Dherh1vPFwrJY0t6rf0lOkL97i77K83NXo3G7BHD168Q/1/defpKtOf7/yN1yr1MpFas4vUVdludpqK5SsdVtCo8ZNJF0A5uFIP8II560SstqLNS/sYqP2Lu3y4pdqGcZjKq6WSk6d5ZxuvuoKJVh7UsorWy279TOrXLRPPyMxhMk962rGm312UPsU7aQWdRSYipHSYpOfWZamv817So+mKnq6GZmJuWczkzXNzsQ0uzmhZ1oS9i6mJxNF3TrLGjKxqkl1TONLMU0rxrV321i1mxzQw9yIwcafJTlv9faSSkHz4hXNM9lcYG6pyemy+gLttMkFO9blLYy5Jitz41XNycY1pyWleU0JzS+6FVVOZuglxjRoSqWtvNKTW1FreUCTKistX5appb9bbYUeZZbO0uyfX6BL33KCLnz/WzTrH39QZ898jSmuUKLYq76SyXM6o0VNbXo81apHW8fpybHTNfX179D7Lr5MH/rxb7Tdq96suVbmF1uZ7kk3W76kLS2MnkVw0mvpG5L05wTR5g3rNgQBUogRRqd63OSr4lZsRM83BZ4fg9K9qQE2gIYXnS2/NYMPPe22BTY3dtxYvfOd71JbW6szKiO/VV1xxRWuQUojG0Nva4fvIAG+Q8AbrusC5zsV7Zt+c8utLlmeadY8Kz+LreEwMG2qDv3wx/Txq67TMWd/W4X9jtBDmS49lmjS/Eybeq0uK1nZTFg91MrIdF+3UrOf0l0//oG+f/Ib9YePf0j5m/6u5l6rvwZWqHOgW62mp9kGJW3GNOWVjh+HIfLgf7IbVi6VMR1rem/8ZL3gJUe7841SZri3W2Ony+K+6beXK2kNzZTVXTXLU8CMh8aT2UeSYP8UPuSMJnTP47WC/j77Sc0yPTe3JaNnUgnNbcpqTnNGT6RN77Vl9aDpyL8++YT6TLKbrJHSni+4s6P2nThNu4yZYNqU9SvRTIumSrfGlk0HFfrUYvVYs+mi2KJZWvDTC/Xzt71G333fmzXnn7/XmJ7ZassvMx3Uz2CVVlpjb6npoDmtnVaPj9HMidtp3Elv0gcvu0Lv+MFPNe01J2tZ1xStyHRomWnevmSzSsmMpSWqQWOmZ3EBAQHbDijdGwx6kcaM6dIb3/hGfe8HF+qTn/xktJbDFD+9RFQYVIiA3mCvmOn1/slPfqIvfOhDuuS88zTr8SfccypY/OCXHpWSNQrooWF+LD02VD70sjDnlR4aXxlR8XLPvHt6f+glivzGXDg4fnv/zhgxPwsWLnDx8Zs4mSbAegT7uQbw45xVEvSI5ayChDbW1lxzzbXGQfvI0squKimr7AA9PMz3ZsTB9/KRRuYiux1S7H5tYF2LG1WBPku/G4np79N/r79e5595ps797Gd13T+vc/OGAf7gDXTBf9Lj1idY/IcffrjOOfccc+fqCLvHL/wgXHhJPqWN7hfut58+e+5X9IOLL9Jxxx03aMyQFr6J8jbKX670xrK+5hNnfFSfO+2D+sfvf69if3RSNaNCxOHWFVn4xEUYG4PjX/d6d2W3ImQAo4u4r7/2mo0Kk923+I6drhxtRueC+fPd2hPSRfjAjTzV007euxG/ek/e8uXLzf+AMxTpgeRZU1Oz67lfF6Ddj0IArr5nmx5c6OEZvbLE7f1BSyP8c3p1gctPq+RxGG7ID3JTGDAZYY2L0V+cO1fX/t//6evvf7/Os/LnRxMBDSlk0/fWYgiS14wunnLKKa5H84Mf/KCmTZ3mZIte4dEI0o9eWN/RHfjIRCx65LluDaB8kz8PPfhQvWc8ovszn/m0u6IHSBe93sgpIyjIsNdFWzMYvRzMs/p0Hi/D6wP0MGUZWYcvBx96qL749a/p29/+tk44/gQ1NzU5PqEbXH3j5GlVXQZuvPFGnWM6+Gsf/rBu/d2VqvX1oYRdeXX1jpVV6kjfUEZ38ny96bSy/4rXv959QzjoBdBn8fzrL39xNLl47Lo+8DpsODz5xJNOTxBPNKthVZiRro9GihYtWqQ+q4OQLV83IIPoU+DyxOIB+Ef3o4fQY05XEb/9rlnde82FF+qcd79b53//fD32+GNO//GtswPqdSP1M/ziOTrotNNO06U/+7nTQdvNmOFGULyNERAQsG1itRrLzCFXVTOjk3Ub7rDDmClI+kaSLVqYyOqpzBjt8z8f0Tu/+0vt8IZTNXvsznq6ebLmNY1Xd7LJHQDVXCtrosqamu/RhEXPaPbvL9VF/3OSfvSuk7T06p9p3PKnNa1/kbYfWKzt88s0vdpt/rvVUjUj0QwlbDHmm6IsM/GkmkwPsWPIjI4ut76BM36rCTP4E2WtLPapKZNQp3003pTazvGUdq0ltGsl7twu1YR2qpqSs/SwU0k1EVNfqaAic3fLBWXLRWUrBU3uaFazPWotJ5WoJk3jGhHwwPhRq5nhFq+oYHF0W9g9jCYl0+ovmGFZ7yJtyRXUYkZuK/vMm7HIPHj6uzmpvt++6zMFzZoFpiAzJz1j33CiNIf1udOjMTTcSEBRTdW82kt96ir1amK5X9PLfZpu9+MHFqp1YK6yT96lu8//qi5822t01ec+pZW336Kx/b1qLpYt76xhl2rRolhGC7om6uH2CXq4c4p69zxIB33oczrus+ep9ZATNL9psuYnxyn5wqN02k9+p9f87w9V3u8oPZYao0Ud5r9zsgpNHW5NStZoG2uVwaSV3arddbv+cOYZ+t6rX66/fPGTyj52t9pXzlVXbqnG5VZoQiln+ZBXh6Uh7c7YMOPIaDKzyWTJ9+DCNMc498s8ONDLWCvVlDfae9JtktGw3ytfr3K2XUlkwBoV40r9uv/aq5TuX662yoDS8cgYrbC+yeSUHHNSzDOr3Jh7z7etJgedFv9Ya0SkTcbSVPzxqgYqRWt05tSeymiiyc7OibR2MQnb1fzvYeFxuvLOdj/DZKjL6GvOWiOwJaMVBfoTa8pY2C3IliWi02SCswcoVC6Fli6uzPdmnQSHm/VaZV3MpJW3+DmXh/OAOLqSOdzMpUZAqlaR91ilnTO5KZqBUOQUeIvLmjYuLJCyb1IWeJPxN2n5k8FYoQcxVjXqkSFGmvo1wWRnvF278t1qs/LWnFuk5NKnVLju9/rjh96pi958kv774/PVtmCmxsdM/pIx47/Ja7pFcxKtejzTqSdbx2vRpO01/RWv1unfu0gf+uq3VGjpdGfgkL7BfHyOQQdyxQzPH1/8I/3wBz9w6yR+fNHFzv2o7i7CXXyxLq7f//jHPzbZ2XoaJ0yVpBFNJ8dPjHaopkGGQddmjWQ6h9ImP0z/Yl2KMw7raLzfWkFnlEec8mJgOi0N9JFAvQYKsbRWJtu1oprRuAOP0Kcu/aWO/8LZKux/iJ4eN01z28ZpRVO7Cib76L10YUATTe/uXOxW8t5b9dcvfULnnXSU/v21zyl7/61qWvKUugoLTe/N1YT8XI0pLVFzeYWSpZVKxQrGcHNWHimW8VpSKdMt5BdrQ7y0QbX5cFfWvvSyxrB9vF70yjeq18pfNZ4Wp1W1Wj15799/r6Zyt+myXtMz1vB0I34WkoXNqfYx6iyH4fOZp9ZcUNl0Yt7K+XJTuHfMn61Fdr/M6toeK/cDFkbR6riSOe551p1OaZnpq3ueesqtYcuWrT6wqm+c1a8Tm9tcPUZDgk4OZz9YPcYOYE3lktqtjh1bHrC6rE/tuSVq6Vug5pVzlF4xS71/v0JXnf4ufeeNx+uuH39PmblPqsP0e8LKY970Xl9zh+anWjWnZZyeYHfIrqmaesIbdNr5P9EHzjtffa1j3On1nKQCH8xacekMCAjYNuA12lrh5mzXe2jpVWK9Q3MLTYVomJ3K0e/QhF/m2d97370699xzdfYZZ+jPv/qV+ntNadfn8K7RG2wGVmPlaTrRnkUVDooPx3fsTsN9Izg34kUvepGOPPJIveQlL3GHlh1mjjUYhxxyiBs1OOKII8wdaX6O0FFHHeVON/fz7328pGukOm5oxe5/u95m7k3h+2f0snkah17x43s7h6YD8D7yE43s+DDXhvmPPaZfnHeevnjaB9x2ovPnzx+c4kGe0dPt51YD0s00EEs8PzRm7JjB3VP8Llj91tDi0DeMIHoaFy5c6Iyds95/ir77uc/pqfuiNTGuV9ZohV5/dc8b7jcUrifPaARHHHecO7PG8wXQ23bVby838uujG+b8NKrh4OmCF+TxULAjDaN/yMtBBx3oRpyQE2SGe/+b6xFHmLP7gw86WBMnTnS0ekBzU3NTRE9dnkfiwdDnvmd2Y0BYw8Xjn9HI9yNB8GI1WP5pYED//v2V+voHP6ivWN7++7Z/18tz0fWCIgfRuTdW/i0c+D516lR3bextHS1g57NvfvMb+t///V+3FuvLX/6yvnzOl3UO7txzTCedY/eMKEb337Sy09/XbybOmjwcjWAdALxHxq699lonZ/Qme53qRp6t3KIDrrzyStdQ8fBlaGtGT3d0notJvaUt0muMLPBsfeAaMlbm0YHZbFPU01//lrCKxjdkn/Bo+Fz605/qU+95j7776U/rkbvuIgAXxpbiJdO2Dj/hlW6UgjLr60Hy/Q9XXLFRcePf1VXDgFkNwPkZJlw/8gIt+G3UtYzSNjU11X9tBIgPXZ/P6yZL2zdPO03nfOyjboSKWQTUXeQDsuzpQ87hDfp3bXo/ICBg68dqWh2lH6vGrLLmXBBTTKbUKrWY2z2qyG4nsYyW18xlWjXLDO35iZR6Mk3qT2eUtoZC0gyZv1/2S/3f+9+vq80w0CMPqLV/qcaWlml8bpEmVfrVaY2XlkpeyVqfKaiC69Fh56+q62WPDFPUDr3btVhZiVhFiQq7DFU13iqWFlPQ7OjFjkfji2XtOFDQfv0lHbysX8f2lHTC8qJetayoE5eX3PX4JXkdvzSvY5bldUhPWbv319y5FG32PT3pjNgQ1phYQlmvn9HJdUeDgls35994wRoBVkqwR36ZHY2cAucsirisqnPGJnOBGQGyWsH5d72zNXtnd/Squ53RiNv8sbuTvXQZwSdcqRRcr3vCKsx4yb5hZITTz/s1rrxCE0srNKXYbelYpq6VC9XSv0RaPEuzr/m9fvaR03T+Zz6l+267xfWmcup6X7xZvYk2dSc6tCI73txYY7U1UtLtWpLlzJK2aB/6dJvbhSWdaVdnpk1LHn5M3//UJ/TTU9+jx3/xY8UWz1Omv1td/T2aank4sdindqMpY/nI2hGjmhRaGqqWb5YQSxcsrVg6mSNds7yMctczOgJz6elpZPewvlhW3chCulkHvu51WmKNgIJ901wrqb3Ur8dv+Ze0YqmaTI6S7Djj+Bflizvp2uTDjZDYlXNz3Fofe95qsjwmmXYnK2frrsPa1OP7y9qzlNb+fQm9uDuuY5ZW9Yol5hZXBt2x5nh+5PKqDumLa0/L/ElFC5cK1NIdNzrYja6d0bB60kgleW0i41LrZNoqeeZMR1f7bUzi6nYvM/q5+m8c6mF58Jz3ADkhLtLs5NJ+J40G5LliNBXiZeUSZRWTVsJiJeNFwdJeUme5pHEldkHrNbdSbQPLlMkvk7rnSQ/eo5u/eo4uePs79Muf/Ew9hYrybZ1anm7V0lSrlpvM9Dd1qsd0QV+uZPlV77k02t2Io+XDcwliR29VC0VVi5Zmu4c/jkeWAez6F41URg79VrQGWMqMVHqxR2D7eoPvVsu/OkZ6vjFwBjb5bIYb01rvu+++QXrzlrdoG6YQPvLgQ+pbudLpFEaWthXQWQIPKjUrd6YvMJzZ/ts3yIeDf1M2/8wGQEo49bzY1GF6sUU9sjrMdGTR5LmlKat5jzyk/zvzUzr/1Pfrsct/qcSKhYr1Lba6bJHGVrutPltu5ahHXbGCmqqcQ1K2/EW/kcmUCXNcXZlYN7wvRtrV1qIXv/FN6rUwqqYcmk3PjLN8nnXzjUr3dZvOYUdNpoo5DeOcO8F/PeQLMXD1ikVD/ZW3emaRNe7KSeNJIqp70d2s4UOHosupgwas8KxMVDS3e5lpFqvlLF3MauCcp+3ax6jZAk2Zi1nA8WraeJEwXpo+j1csPkoWa/Os3jY92VIt2Hd5t46Q0d0xA0vcWpRUfrkRZI2lJx7TnV/7un7wlnfqJ9/5gdVhphdbx6on3WF2R7uWJS2/0i0qtrRZPCnLU7gXzfyw5pxLQ0BAwLYBrxsHQY9FNP+TqVbRa3rhfM8/PXT0OnECM/DrKdipid6NE088Ue887TRtt+eeUU+U+fW9N0xNGKmnxsNXNP7KnFT8Uym5EQ/Cavje9aoYnfgnfNdAMNcYh++F4pmf14ofH4d7bvHUf64Gemkaw6Lx0EibQ/29p8XdYwTVecb6CeC/a4Tv+RwO/vu1gTid0cLoh7k9X/5yvfcjp7vRgOHiG6QZwFujk2fMaze7xgVjSXbrWzgj4iOnn64jXv1qxTs67Hm0XgXQq+V2mrKPuDLNhKtbX1Hn9xo99usBJ3OWpj1f8hJ3WjqjOsyFJi2k9Ve//KVi9pt8aewdHgmM8Pk8J41D4UeNGA1YLZ/N/1Dn08MVvnn/jhbjjR/5WR8QHt9z3VSsDx8a4UdsKOd+XY0xwsmDpk7V0aeeqne9611uXQ077uAP4K9s+exozmQ2C+2bG4wWMm+e0TK/jgvHOTD+3pdhHCOErBHYWs4IYQQUur3scW4FOoffXJmuhn7+1a9/7dIF8L8xZXE0gl58t8YKHmCcW7oZ8QW+t3+dsDJPLzx1GHwhLMAV+ebsHHaSOvrEV0nNzW7aYLOVBRDp9cg/um9zY/+jj3Z1LHG40R3Lb9LICPb61AebAi9TjfB6zq/3RNf59AM/ggLvh/t+bSAcZNTbGcZQyxtr5Oy4o1566il63/ve795hR0Rxr6rbhzsjLSAgYNvCahqPPsRo7r41UkyJm26iH0fZmBmwlX6lynl1VYpqWckuU32aFLd3+X41mcJIJ9iuM6Hy2HGadsiheu+XztHnLr5UR7/zA6pM3lVLEl1akWrTykxaOVO85SrTFJgmknY9W+yuwhx7RguiLi8MR4xGU9TVpLJKuzMrWFNQNaXFmRdlo5Edj5b15tVXjKm7v6CV+QGtKAxoaXFAy+3aU8ypt1Sw9wX1mlLrMSU4t1zUU5amh2oFPZGqaha9Q8W8qq30MGGM1Q0+KixjEetwGFkq2+88owBGI+srmGvr/BotadJifjxD6TGltwrHPbCq0Cnlxl1XnLJ3PdBWETlu0/OWcCMCCQszE6dBUDXelEQ13KuMepMtWp5q1qJ0k7qbsxp/8CF6xxfO1v/72WV67SkfUPt2M9wc41jSvrdQ2eWqK1HTmNqAxhaXa3w1Gr1Sf6/9Lqh55QqNo2er1KNUcaXSyZJq6biWG68zO++qI97xLn3+kp/rlG+ep+kvebFWZJstL1uVy3SomupQqqnNGYQpS0bcKnPOmEmboZQyAbKq1uWkg/HJqh+7mIzBKEs/KbZcdjygR76XXvl0q1568nstne0qVq1BbPnVXFimeXf8S63LFqjT8jRVK8uS6PhNT5/VbhZK1JPpctBV5iYnVrGm7Una0tdm8bH7m1HgRi+Klr6chbF4oE/z+3rUbTLTbzLTW8iZ3OTNmTxZevqKZQ0US05+Fpvcz7T4H6+V9ITF94yVgZl2nVk2ubNryaL1+U3PPSctZ+suicyWzaiy+yj5VOhW4Ruv6AHkHvqd3NiTisld2XiIY6SRP/zUTP4oJ35ECrlyabX0FVkvZVyN17JKxTg4smwVfM6drF4wueqvZDSQaFdfZqyWZ8dqRbxDpYm76KX/82F9/JJf6zM/uFj7vuxlKmdTZnSU1ZooqyNRUketqHbLhzEWemqgXy0po810ASfnI8vQz8jglkCUuugKiAXnypZ7Er0HNF7pqGBDC+CNmkr96gydutGFw7Bi+kzUQPWhbRosG9zIRSSBq9O9SXAJN/m1KyNAjKD87ne/U29fnzP0WIuULlVV6unTX676o0lBpI+QM0bbcJ5PyKhz9d8uzPr9lgQ892g0dNeKOm3Qv2j2XMXzRbcOImNpJb1LZs01fRPxpO7dpcunj9+kj5EBmRzLymq82K/KQI87gyNtLuP0ielZK1O9JtuxadN0pOm9r/z6Cn3om9/S9EMPVV9LqztVfkU8qT5Oijf9W0ZujKs1o4f4KQeMJFNHUD7RRlUrR9U4q8ii+sI9t/dWwt0ZNv2xJi3NjFOlZYIOfNcpWtHabvWMlbPKgDryyzT/nptUWzRLbZWc6RNOeydUV+JImaXN6gpLX1T+LHzitLRwblGdEzAn4iF/pheqpoArxiCniy2ustFCmSFEU1NuzVy0hs94kbTGvqW1YMFH+i1KJ6O1nU2mZ/imUrVGH5qV6VhGIzJn0cZLyKt9ZDxjJ1B2Z8zHm9QXb1F3olVLrC7rbmlXafw4Hf7+U/Xhn/xCZ3zr29rrZS9WrD3r+NQcK7mR+k7Lt46S1WHGg2bT2VmjER3LqOGzJb8BAQHPHnx9NYioh8iKvFXcgErEV/L0QDMv90qrFP/whz+4fc3piaI3g55LRiHw6xZt2n1XV6defuyxbscg3Etf+tLBXj3Anu/RzkGmPC2extEE3wvPjlDuSrj1Z42YPXu2W+9yxx13uhPjOXn73//+t3OcIu/drbfe4txtt906+D7yc6s9v1X33HOPenvrga4FjRWsp7ER0DkUq0ZwonR6+HtnKJF+Z1SvHgbvcPTWwS961QB787/3ve/Vdy++WB//+Me17777OiOL3ibCYgQM+DiY7vXMMzN19TXX6OabbpLMyLSXetp4csEFFzgeEQ/hez5DD6MijFy1tDS7nsVPfOITuuTnP3fn3EyfPt3lGXG6Xcssb7NWYdErGZ10vSYv1gV6gXc65BC3S5wbqbAw3AiRgV5E33PWyMf1xap0reo1ZSSIE5TvuPMO3WmO092Rk1tMJla54X9zwvstt9yim2++2ckdZ8BAL2G7HsW67DZiKE/WxqPNYTDTA0kZJV+hy4/ywOfDjjhSZ7vzHi7S6173WjevG17jj5EyRq6gz+9iBK+uvvoanX32l9W/Yrl7P9qAzK6Np1s7GmWKdDLSyc6I/7r+eifHN9xwg356ySXuvAx2qhtt2Jhy2whGUK63tN5iZQ/9fYuVPXTX+u7o5Ea4rc6Zfddd+v73z9e99947OEJIQxXAVzfyyoiiYZdddtWZnzpTP/rxj3XGR8/QDtvv4Momug89x5VytTFp87rNFIamHnCgOhiprssvDQbOX7rkkp+639Spm0O2CcPT2ljXjDQC5eNkZBI06iXqJWZJwNfhRukYoUUHYR/4PHJ5YIBnrBM9+9xzdfHPfqbXv+51rl7zawWh0Z1pRByEbw55v+qq3+uLX/yi8n3rUWEHBARstVjtJHlu6D1xPYAoGxSZqkrFMVJyqiQL2mP/fVTLTNadDy1WLtWsSbvtoeNe+zrttu9+6rf2Tj7OSIh9ZQqer5Om9DBw0hZoppBTV7yqJ+//r/76+ys0+8H71FIturUradNZzJNPVvuVqC7V/vvsZNozo2JvXO35hKZWUnrjC16o3VJZMdc+l4hpSTqhOxfO052zZmolhrLRWXW6L+ol9WCqh7vW00UPEPN26bWvWdyVeEmZbLeaK0/r/HN2EqsgVG6Teg9U358tNZUJFn6zHmlt0Q/uvFU9RmzFlPSTDz+k2XPmm7Ff0eyzznY7eNED92RLVhfec4eWGk30k7VaHBPzRR3bNUavnLadpbOmnmRMT7Sm9bP7b9fS0iJl26WcWnXPwwtVqjUZaU3KG30VU/AFC7OU4r5De7/kBB19wqvVPnFytKc/lWiGOfRWUdp90iq8ppQp+KI1GAp5JQf69MAtVqFffYWKSx/Xi3abpOZERnfdfr+LJ19rVoET5Mn4zi4d9fo36oCXvVwtE6eo1xo1MassOD0ZdtJLx9qZhMWTsTS0lAsqLVuiG669Vv+69hpVe63BWmHv/7iyMTNuy3njN5WSfWj8pg8PF6M3jwre3rjeNbtj/veyVKtqqXa9/6KfqGX7nS0vU25EhhGTFQ/co+9+5gy1lxhDita6WBMg+iM/icOe4HhODx7XF+yyi+VLyZ2dc0Bzl07cdW+1mzFAP2O32eqLLFFX3nGLFtYqyqcSxmtHbRSSazByF8kPU6CieKGbmez2y/idT8ZVSKfUb3FW3HNjpcn8C3orOv3Qo9Vm98jmnGxa/zB5vWXeM+pN8W1ZHWaAvKC/rA8d8hK12Mclk5m5TWndsGyR/vX041ppckKPa4cZK3v2mb+DX6IOizdvVC7IJnXbimX61+NP6K6Zs6zsVd3aLcawyjHOCLBvTfYLFm6Z3YEyTUrtuJOOee1rte9hh6liv0vx6CyBRCJteQzvLK0V1qxEu/FlS3ktevwx/dOMggf/fbOSpQE1Gz3xUk4ZBvvcnHi+cv3GFhaM2rxweWGOHC0bf6sYUqmkLvvt5TrokIOtPDtvTj57lizTQfu/yOgqm2Fk5cLKHqIN3MX88JtvoJdxtyeefNJtcGCvnCPfN+Yk+ZLdsC7tRmvATp8xwxlYToZM1h+rnyQfp0zV/a8BSxemHzQddNihuvzKK1WmfBuSlpalixbpRfu+0K0/occaEA6jaxhyWWtUVgpFZ8TRIEXGjQmW3rhKZnzf9+AD6hrLGFhEM+l66xvfpDtuvS3q/Te/GKyE7PhjbnOfJA9PNtTIdqHWI8oN5DTW0sCBuRiypJuth9001fr2yqj21enyYLzWdIrxaSWdaq2dKvXnpWnTdcgrjtORx5+oRMdYVU1/5q1cV6zswUPGSNLGn4yFy0bisXxeRSt3t177R9109R9U6etR1ngnaxCyl2B0/hK8iRx8c9VNXU9Fu3ihnVirkVIfuyWmW/W+//uB6b1dTL6TpkfLmmjMnnPnLTr/0x9Xu9W/mRjTK12uOkcao3TyP09czrnfhO9OuHd1T1m7xtP60lv/RxMLUZ6tNF33ZDauT1/2Uy00XdRtesOaGW7HQx8aI6MJo5kdNMcXanrJ2Cn68MtfqWbTZ5y6v9Dqnfvzvfr+n67SIhMmRvjRJcw0iHQ9oyasE4nOnylzIr7pm/QuO+v4N7xeu77Qymm22eoY00MmcEWrvGPmz31puideKqjJaOi03wsffUh///2VeuBW00GmN5Omd1j7mDJthzYPCAjY9oDuXA2+19pXIlyp5H2vB3Og2bGLURIVClr4yCO69Ovf0GdPPdXtGpMbGBg8ZZyeE9/z7yprq4C57rbrrjrrrM/p/PPP11vf+jaNHz8+em9uOPieneFGJ/x8XejzvVgYBa5Xp+582D58eoAwLEmbfx/tFOJeb3Z4Xm4MoG+PPfbQxz/+CV1w8UVu1GTS5EkuH6L59qtGpIiHSptRKXrzf/jDH+pLp5yiK3/+My1fscI12ki335bUryNyIM/6B3TjZZfpW6d9UF/+/Bf08MMPOyMP/hC27zmjJ43f8HlMV5de//o36GeX/kxf/8Y3dNBBB7ke+43F2D331ORJkx19vscNGn72858jCC7ODYXPd5/njYim99TntLs0rS4rq35HMsV94wgMJ9zzHb2tlJN1YaReyi0FeMgubW87+WR93crbd777XR354iMtu615Vecl9GPgwR/KAfPeWVP2t7/9TWd94AP67lln6cHbb48MUkt32eSHK/4Dnl1E8hf1Vrt7DGMDZ1JgqLvza0xOKYNeZ3sMlf3nGhtDDw1JZNSP3HI2hxvBIL3Gj3WBOonRXkaFXRm2Bg5D57f/5nJ9833v09e+8hU98OCDbm2F3+URvelHll09Y/ddpvc4B4xtqv/3a1/TAQce6PxsKJzuMF03ZocdNGXy5ME8o2xxNhOjxgnTzTwfmp8bC+L0Zd/twml63a0hHKY8Nz7zIyiNQN6oFwjTj0Q1Al1Bvc3I0HEnnaSvXXyxvvrVr+rwww53dRXh+87EwbRbOIRHPv3pT3/Sp049Rd8689N64LZbeenyDZsiICBg28bqpTxmSqZmCqDhqVPi9jymkppMOXRW+jSx0qvJxR5NzPdobKFbrQNLlVk8U4//5lJd8M636JdnfUzd996qpoElaomXrPKIayCW0JJ0q55Mt+vpjol6tGWc5kzfXdPf/gG9+ye/1du/e4l2fc07taxlqnqyk9UT71Ah0a6KmtwuYnmjY+HKHnE0ITuLsZMIa1Iyzc1aGau6k9rnmdJamMpogTmuQ928dEazTSnOtuvcTNr8pbTYFHS3hcPp2EWrX3xv7GA3VQPocaQHkRO/UaBFDHYWQlj6Vsar6jMPnG7PPF16/JwhYd/5INHD9J3BdnY+op+LXjR6uulh6kk1a2nzWC1om6CBnfbUoR8+U++5+Fc67tzvKnHUq/RI2xQ9mmzXvGyHVjS1qpRKK210tBSKGpvPacySeXr4sov1k1NO1lWf/ohyN1yjMYUlmpRfoMkDczS+tEjja71uH/2mWr/S7E1fy2tssVcTLK/G5Zaqq3+JmrvnKHb73/W3T31Q3zzp5brjR99Tx5I56qxZw9Tiy1mF2W0V+Oxss+Vjhx5sG6P7O8arZ59DjNb/04d+/Qcd9Zkvqrznflpoec4uUCs5vb5CH51V8MZk5g5zAnrRrrlERisSzapZfp/wvo+qL9OhovGFdT5jSgMqPvOweh6+W+3lXtdrRu8kYK2F5Ybd4KyRUV+745z9weeyZRF79xet8lvCHL5M1rKMs3XiJs8Jk6GM0h1t6rGMXZqMO3lYnEhpiVXGS42/S0w2eMbvRdYYWZBOmCyZH2TH3CKT627z12vGTNF+u959YrZ0AapsZAqHTKwL+KdHHD7j33/rvkeSkBufPksv8sSqk6LJfncsbTSP0bKmceppn6iuo0/Uuy/6tT5w2TXa4Z2na9mu++uBeKtmJtqM7mb1m/+4yXKWcs36su7Fqt5/p/74uY/pB697he741tnKzH1EbSvnaVzvfE3IL9WYco87rygTL1r8BaPLGjWW2JyRg9w/lzDuGKOMg8Y7jCLfoDb1NeiGAv0WuY1r/D4bIF3Ik0ufwU0ZNWXCqAfOTG03quIbLTSC2RiCUZbVvqtfn0s4Q9bob+xYWRu8P77zwKglnb5xRqMDo3a4DqzVYSWryvq1nFprpvv6FqmrsExtJtvZwmLF+xdK//6H/vLx9+nrr36J/vbDbyq+bK7pipyVsqryqazmxZs1M9Wqp7Lterx9gh6wcta3/4t17Je/o8/87i866TNfUmK3fU0/j1W+aYxbQ5eKN7k1ihnLK3bHYtc9RhcG4hnTHZx1ktUxp5yuRYkW9dWsEVCpqL2aV27mw+p7/B6lBhZZ/rIJTSTPGwsz+92oCAIRszg4i2tCW5tSdHTZO8sZt6aswCisOWYaZIz/iVLZ+CVNwi+iZ2FxvteAubndy61uj+q9WKZFVauf+hMdWs5uke2TNeO1b9fbz79UZ1x+jV54yse1bLs9Nat1guZk2o1Hbao0cVxBQtli1eqnvKbmlyv2wO266qwz9P2TXqYHLvyGsjMfUufA4siVllk9sFypUrfp8YLpSGtYWZrcmptRIeEBAQGbCxtcI1NRuEZLAxp72VWuaNGjj+qXX/mKvv6hD+myyy7T/PkLXC+RR2QMRGFQWTEFi7MV3vzmN7v1EJ/+9Jnu9FgWgVIJ+Z4V5h/7nqRofUTZ9XRxFgogXGhYw1nF0PgbUJkPVuh1euokrRX445wXroMnh5sxAE0+7OEwUs/54OiQGYn0GL3smGPcGQ2c48C5LmO6xrieOSpgrvRu0ytOL6IHJ0Z/7Wtf07kf+Yiuvvy36l66dNjeLA/ohP51V+iG/n7d/oc/6Kvvf7++/JnPuPU+/X19LnwMBTd9z49i1fOK3Z+OevFR+ta3vqXzf/hDnXzyyWL9EiMQQ+HzlmvLdttrhx2Y313PIwuP+0t/dmlE71rSNBKG8r23rzdKfz1ewh07Zqw70wRDh984/DBC5f14WeF5ZPxGV/9+vXi5nojkdf3SSty+5xZ6t9t+e512xun69kUX6WMf+5g744WeSnpKoZm88vnk6LY8pKf2j3/8o8754Gm6+POf11Oc92AynaifUk9PMt8je8DzYbRiQ3c125owlO+NMogbDl6Whlsz92zD04isjkRvI8qM1tXLMGkf6vyoCX42y4geYVCeVq7U49deqx+ccorO++IXdaeVCfQdehq4NVroYytHlCUahC0tLU5no/e+/b3v6k1vepMrO9Rj5NOw6TW6MzvsqB3NcSaTz0ccO7SVrXHgy/fG6L91Yeedd3aNwObm5hH559eibW+6eSh6eroH84D6i3pp0sSJ+uhHz9AFl/zUnfyODmJ0mfD9aAl1GLxzdYjxrr+/T1f+/kqd9Y536IKzztLs+x9A8TgHL+AxOpp7aOHbgICAbRurlXJ6tN2aAHPMoo3mkZoyMcd8ZHp0426lSa+SsZXKaIVaKuwJv1wTS92aXlhmbqnG985TW/8CZRY/pQVXXKpfv+8tuuLMD6n3rtvUmSuoqWghV+JaWUlpvpo1L9Wq+dl2zcp2aH7XZHUccIT2Ov41ynWMc7umLDMlv9wM3KdXrlBfgr3VTWmX8morljS+XNNe4yaqo1xVyhR4NPvX01931gDhalWE621stoS0l6ROc13mWq3OYbclRkeGwqtsGMV7eiwfswbYddf/S8/MmW0vjClmyO35hc9puy9/ye1+4r+hx9b3YBI0J4lzOnjJ6CFEesJr1Wh3sAKjEm1dOuBdH1Bhj/01s2Oi5raN1/xUh1bEO5WvtiphgTfnezWp0KOJS+fqmSt/qvPf/kpd/ZkPqumeWzQ2v0LjCys02dzU4gp1FrrdqfTpWknWrDEaykZD0Z2RUYhbgyhesrjLxh9ymB3uy8aHgvGkX9MIJ79U44rm8ouUXvqMEv+9Rdd/6iO66E0n6eYLvqXWxfM1ztLPbPeV1bIW2N3c5jGa1T5GT1gjZVZTq2ozdtaBr3yDxm6/h6qJaEcyn0PsHkPv2wpzJTOiX/W+9ypnFWXe3jLnvqVmeb1kvpuH3VrsVVY0ykgHRkIkncz35hwC0pc0/+ws43eTcvOh40nljd19lt4VJjtPrlzmRrqspnM7AI2rJPTCsVO1c6ZTmWLFKj9z9DLWES1MpTFWMme8smfM7c5YxcrZPOwK1mry1MyuQuZYs4BzssL39l9ETXTle+fqcsIz/34onH8CISSTFdLD+QWMVLidvswxilcwwyBvPMl3duoFb3qzul56jBZMnqynWts0M9usBZlmLbG8KRh9yYGcJhvd0wf6Vb7zVv3u46fpwjefqMcu/IY6Fz+pzgFGS+a6vJ/MCGm1aHzHSMTAwiiMDEvkNhajAcOpSYxoruL7aIYreUamc/53/Zlj9SaA752rswF9CQafu18bD75n1yc6ZwZ/2//u2XD01x9w4Ys13j8HcI0KMy7XtzHhGiKmc31DgEaBm8KWjLYJxsBlyrHrMLHGzNpAuWUEA91Dj7tVQk53uJkB1ogYX+rT2OIyjS0vU0tpqZp7rQ7rWSjdfZuu/9yZuuANJ+jWH52nzIJH1W51HWdT5VIZLbK6bEmyWXOzbXos3awn0k0qzdhRB7/2DWqfsYOK1vAoJsg36hnGTtB9jEBYw8P03BtPPU25OJ08CXWYpy46wBYu0KzbbrP7kjuzi/opaflM2dtY8CWONZBNRkebNRr2324HjbWUJPvyyhg96JaSCRP8gU+st+m0sj7D0rZz53j7LtJt5B5rruYtX6YB0z09laKWplLqHjNO+/zPOzXmmGP09JixerJ9rGZbXTYn06V+qw/yVm+nLU0TrHBMz+ek//xbf/zsx/T9N5oOuug7VqfM1PjcEmdDTLTrxNwyq+d7lKj0m8Jj9JyREqf57YrmMblwI+esXYnKRUBAwLaBjSrRjb3S9KBTMWDE0ZNStnsqCyoTwDav9lIrnn5av/nWt/X1D5zq5tV2r+h2a1Vcz4gpaSosr3wJA/DM75KCP3rdVixf4eLxfrky+kLvlf+9akRkTbepoMJkzYJLp90bkS59rvbhupFgLQRrR/wakmhNTBSeHxkiviefjEZLvnT66frz5b9VzioQ+M03zAeGT/j1O9BsKpxxbnxndy4H0mu03f+3v+mbH/ygzj7zTN1555322Bod9Z4+egzhD/zGgKDXvjE9Q+F6COu7hHlZAnzzm8t/Y7zdtIqnsQeWnefYGYd7nkMjcjhx4iRHZ8S7KH7e0QM62Es7gvzw3PcMbip8XGCk+IaC+fcOlk+UF/ICeWIdgg/DbUNrBh2nbl9xxRU665RT9MNzztXchx822pn6Eu0Uh3+c6/Gt882H4WUKGkfKy4BnF5zvsjaMxnzydcP6YLAesXR0dnTohxdd5NyFP7zQOXYs4/qa175GnAy/qYjqHHr3ow0WkH1XJnFmUD905ZX6/qmn6suf/JTuvutux18aTNDJCAJlBB0OKHOslUAfAl+OGhHr6tJuu+42+I1vZP3iF79w12gHvmjkEj2/ufOzpbVFU6ZMcfc+nkYw0sxox0477eTSMhSLFy92PHMNRvSQ6WxAfjXqMvjjd+RkgwN00KdOPlkXfOELevrBB0ncYD3PFd3DvecZV3+PfvN1YkBAwLaLYWsKMz/sBT3UwBSGorn9IOq5AKZQYjUlkqY4EvZFzBR7lZ19CmqLF9VVGtCkYp9mFLs1I79I0wdma1zPU2pa/JiWX/VTXfKu1+riU9+qxTddo+aehe6kcDebPmEGVtYM2nRW+VhaJXOsD+FE8QWmxG+eN19L4uwOEldrsart8zXtVYjrDdN30cHJJu0wkNOkgV6NK+TUmadHzH5bxTI9l7N3ee3Yl9MefQUdXE3quHFTdfL+h+rEvfdXe9lShu3N/NuEGWL8sPTRG56pxlwPFr2UiVRSO+2+q4459lhNnzoNbencI//7dc0+52vmxxpdtUS9FzXqqavVOQZnAb/hVzVmFVqiaOmsqmBpZJ1NzujNGg+6klWNqw1oQn6Jxs5/TE/87AL96G0n6q+fOlWZu/7meDmlb462H1ioGZXlmlRdoXGxvDLFAaUs3ESCXm/2EDO+UllY/pGn7KqVkFWcajEao0rR78tfse/K9k3R0s6cYreLS40zX/JqLvVqbInzUlZorMXZtXK+sqxVuf8W3fSZD+viV79ct3/nG2p+5mlNKdc0hl2kykkVky3KW15yrkbJdy0bkKNiLKu+eLsqqbF6xYc/q8UZ5i8bbdWyyU+funoX68l//klN+RVqTiKT9ODDw0gWGUmBbuZKO7msV2JUjIx0panQLG/y8bSWp1u00Oh4uG+lHlm5wu1iQ+O6vVDS1GJZh3WN1THjp2jPojRjoGhpKGtcuai2Qp86Cv2aUMxrSqFo70razeyNF1QSOqRljF69y9567f4H6wVTpqotyfkjRpjF687dcFSaoWLPkB92QLPq3qQgGgFiVx9GSKrmnzdyIxIpu6uPSNT9mUcLl7BNruwD5rDTX4hstnAeQzWufMIakImUapx9YzLabN+1Wb6NtXyb0L9Q/Xf8Vb/92Lt18ZtfqUcvOk/ZeY+oq2++JhSWamJ+qfG7W60V1vj0m3FWVMzkr1gesEbLgKXFrvac/cEADThnLBiPXc/9YJ5w3fyApfCSfCZCRnNkcomcwFNcNHLmfBkV8C56Ro85Pdb8ZqSPZ1zx4/zxHVf0GSNw+LF7RuMa/TWGu4YbDGPVPfnn4oJO94yROGQ10gnDOkbvGpxLo6UZxz1GHKNY3BNH0u7ZuY/wZf7daCLv7Zkz+Ixz0Mx75zyNQ5xLn8Xv0zr0veMbV5PpmpUZsjuWTqpgcXFeh3fsgMcOjkNdYfDebPxKycQ8qXypGJURxGgtzmJzzlKlnXfbTccdf/xq7uWveIVe/ZrX6HVveIP5Q9cOHw6O0e0i90aL04fmmfQxKoseIaaU1WVpk++sNSraTb7ai70an1usCQNz1dU/Xy2F5Urnlin24J3651kf0wWvOV7//sF5apn3mOmIfnVaaOygGKNhYmWxZK7mDG84C8/Qea3qy45TJT1JJ5z6efXYfdl0U6KUs3K4Us3L5+qp6681nbvS8te4584VqesCnOWVc/630R1dAeUwYfIQ6cjIb/Te7V7JI/sva4/GWVviBdUmnXLAS3RU+2Tt1FPRLn1x7TgQ03Y543d/VXsNSMdP3E5v2GM/jbEwTQWp2xTP4mxSf/rv3Vpi9XC/6aBignNSTH+lOJE/Y3ncYvISV4vp0PH5lZq2cqGqd/5LV378FF188iv1yI++rubFT5oOMt4aXydXl6izvEjN1eWKmS6y2sEoLhnNRr9TqnVZNDnOWAKSVb9jmqUnynVzXAMCArYV1LXYhoGeC3owNgb0trieDzNw8osX66rvfEdf++AHdemll2rBQlNi9p41HiOd0jswMKBZs2a63iR6dJg/yxxWTh2nB545tS3NLRZHpLAxpJi76uYLm6OnfO+993L7r8+YsZ3r9aHnf33ntEa9zKYqB9Nh39mV3n6/j/6GwM3FpvKyMKABejEAOR2Zc13OPfccnX366frrVX+wZ1ZbjDKwTTNT3ODBA//4u7516ik6+2MfdWeF5K1hSPrgEz2DjFAMhVvX0NLsTr73c63hAfygl40ROHrUyvWexU0FtMybN8+NNvmT5d08b5MRznXZd5993Rxq33vHbmnED8gX5GzqtGl60YtepL332kvjxo1z4ZB3yMS6QJjQgOMeB5wsGVg/ET238OrP1oXBcMy/G0Uzepn2wmjRb37zG33xfe/TJV/6kuY++JD5icKnEUdcW+t6jc01YrU1wsvOhqCxN3tTkLEyzE6CnM1BLz+j4awzHHS/WtP96le/ql8v0+W/uVw/vPBCN2qwOYDuplyi358TmcgN6L9//au+fsqp+sInP6E777gj0ntGE7qP86cAI5s8I+/QLW6kpLVFBxx4gMtLf34VuOqqqyjUbgSGeszrhi2BnNHK6Pixxx7r1q+hoxlpRRdTN+6xx+465mXHOP0IItnjPJIBPfroY+7ZaqjXo9HuXjUtRQf9+tdOB130xS9qweOPy5gyuE12NHVv88hmQEDAtoXVzkFZEygOM5xFb2LBXJ8OPGA7VdWq+x9cQH+TOO0aH/ilfybqzTCDqWau/jcIemDofjPFW7LKhBGDMg0Mu7JXP2c2bLfdNL30yH00pqWmu279j3qXEW/S9YY3m2LryOW0UzKtY3fZXTs1tau9TJzRfFhOlS9gKJqjh663v88ZjWmLoznT5Hb9ouc5w0nBsZr6zbbOZ1J6qrRCf773j4ql5+i8r+ygbKxHKrZLfQdr5Z9LSpUnaCDRpIfNkD7/nlu11OzasiWZoek5s+Za5AnN+tTn1VqpKWcVytOtKV10921uVyh6FVtKFU02d1THOB03Y0fX891n389qSegX996ieeVFqnXE1ds0WYed8E498tDTuuHv/1IxV1TG0pIu55WtMsLEtLJGQ90CojvM9WDjhoJn7HVFL2vBKoKl2mvvGZYHbbrr7pkq1zhRxCpB8xb190fhEGRjaNFT+qjo8YTf+OF/+mjNmQyU7JsSe94n0pYHxiAq23hCR73saL3kkAN08Xe/pfxyzkmJeuHdqfGJFpVT7Tr6A6fr4JNe69bn0HPcVa2opXe5znzra9Sc71FLxfhAr7J9x9zttYFK3vmzfI9bpcrUBCjllO0mc2OM7jH5og6YOEUHTJquaalmd3YM8perlt1ccdfjapVrv8kaU+hSFk5LJquUyS27JWUtfXELi92zctY4mZMo67pnHtN9yxdppX2PjLUXytolV9Vphx2trhKcs/xuSuofS+bppllPqTfFOEnNnZeyW19FHzjkKLVX424O+IJMQjcvXaB/zXxCK1JQ7/1VdcqBL1an0cEI14J0XHeuXKG/PPGwbpkzSyviKR127AnaadfddeO/btCsJ59SytKWsHKTLBvfqzkzCBjBicqpdy4PnYt+OQHgWsdQeXiu4KgyQtzVjJrf/Pa3OviwQ11+8Yze1OWLl+jA/fdHAExnGI8tn1x+2nvSgOPePyO8JzkHpanJPaNXH2P+d9Y4/vgZH6330EZhc8WtASLnW5zRdeMtt2j6dtE5KACT7dGHHtbxx77C/MLl6JOh8M+hgXNQfnvl7xx9SArpwdg7wBrG3CNjrD3BCPTpGZpPhMX3/v7O+/6rrgnjnR/Sw8je2974JnfQoe8g8Y1i/ic9szgHxa7R05jxlLEUK78mT66s1f37tK4NnF+VNV1cyOX1wdM+oL///e+unK4L0ET4Bx18sH5/5ZX1pxGYrtmUbdI//vF3nfz2tw82xIajZlPlmHyEb65GNJ1HrcgOgdQ3rCPMm75D5ymd0VEvOUpHHfQi/fg731LvkgVqso9Ne6hYMT3T1KZ++/6lH/yYDnr169VtckqeTzTd3rFsic78n7eqKdejVnbtMt3PiGt97MM57sjXkdMTjQ5BYZPVGxPzJe0ay+j/cQ5KseJGT/BTMFoLqbT6rYxULF/cFDVzK7qXGx+lsZ2dLs86jVZ2IKukk+o2/bbIKrBrHvqvfn/3neppblKv0Y/OL8TSFk5Ghxx9jPZ84X5um/KZjzwUjfLl+92ZJlnjA+nhDKiU8Y00uLEriy9q/FC3jJSugICA5xPQuc8qXM+wVbB+/j/3AOWEe/rpp93uJZyIzKnhzo/r9TUDCqMzYUq1UHC9N+zq5StIrrzz21Iyp5e918eNH6+urjGul4gKGH98j+Oe+bV8R69WvaN8rWAerfuuPq/YVUhWSTIvlnUgGwPootcKmjgb5tq//EUD/QOOpo0ZlVlfeN5tKsgbAL2DYTq+lHSjGQ7se09vPulcA9msjjrqqNVoYR43lZvVmO7eGz9+VGxTQDy4BQsWupGU/oH+wTwlHtLgwen5jJAw993thOVG4qy5Vx/NYc62287VvuU7z4eNhV/zsSHwfIN27m/453XuZPEnH3pIpXzOjUYCDMHh5phvrfAyMdrh82dzwcvpc4XGEkhZ8IvV3RqnERxy566mm9GT7Aq1udLACGehGK17cGsgnmWQDtI0uOaPdJkev/G663TeN8/TsuXLLO3WVKhEu1jhnxPilU47vcfviDfRCND11/9LNdMp7hurm7Y0qHOI29V/Fid6jlkGEyZMVCqdUtp4yho96HR1t6UBXf6Q6ZeRziK5+frrddH3vqeZ5scY474lb7gCry89eO6m5dbfBwQEBIAhGobKlCpo81aqvhuP+aSc2i5z9Oi31PIaU8tpXKlfE0u9mljo1uRKj8YUlqqz0q1sdaUS1QEl7DtOQu4zRbogk9RjLRndEq/op08/on/0LtFjKqknzUiMVVKlqjrsZmw5pqlKa4LVXWMtyk777daRmBJWJq1iNuVO815m387sXurOccCU8zt+udZKKq552bjmNCU0L5NSt1WGlZhVJjLFzVqTioUlM/oS9s4U+7KWrJa0pLXUPi1Zpc3J3CnGf+JJFa3yWWYG9gILZ042aeGmtDwRcz3mFo2aSgVNqpY1buUKTepfoWnVfo0vrqifO9Fr4fRbSOxiYsZxrGIspdffondzjaGDq8E9N4Pb3tXZbrnJ76gXf9NgcdQsvTgXH/3uZcWrObfDVku519EL3WNZ11Beqa5ij9pzyzXG3idLOVcJsV5iRbxJ5WSzDnnz21RoaVPVGjSZUl7jy/0a179ct/3qUrWUBtSpilI1ZpeTNyPNol/lOCOH9UmExz284XnJfuetUuw2Vs3OxHVvqqI/LZujq+Y/qf8UerQ0bSmhgraI2o3F4y2N400gxucqGpevmTzF1VaJm0SZQWGVbSUZV2+1pF7j6/JCTr1F9tFiylTNOU4U77d8np2oapbJz6ymuJab7DJqaDW70WXcs7g4wb+3yfxlaprdFNP8bEJLzM4a4KR5a7DQE2oBOn89ZjA8ZWyf1ZzVLJP3xfY7b1cq90xuQF2Ffo0trNSY3sUaRz5Qlsor1FxepuZ4r5K1AZNWMxgs39xogX1XdvIOHPfce9YaEK93dTF6ToC8YNA4w9x+p82Ygx8ZDGPLU07zZySAnYXY+Q24jQIaOj7okY1KScw5dkNy93Z18mhGGvwA7hkNVjMOiYNwXR4YuNDTzVonnL+nu9nJp30HDWU6VgjDaODbpMkt90yf4ZuyOa7e8a2LgrAMGIGM1BFWJkYKjS7TPeSzz4/G6YTewPP3pNmDezc6Yt9bCEpWLG/NQV/0hX1DmPabsOELvHOjFry0e7eGil50c3AYl4X/9XscI4reccZGo4tbGFwtY8wwtXJptDNVdn1GT7yR7sqV+Sc9jhf1MuT5QniNRu+WgMWgoul/dmE0DpleYoetgjsfqqtWdPUY54KNK3ZrQm6Z2nsWa6zp9GbjdyaeUdF0Huc9FVJtOuAt71SurVNFS0e6XNTEckFTigO6/Te/dGc/NVtYnKYelcq0XXGmyyxTvF734CcpH/J4Dfj37ATYZ/plZn6l/nLvnVqQ67P61eTd8o61mB2FkjpKZbUb69OWX0tNz81sjuvBJulvplu+e8fNutcaZJwjxqg33GCU252llB8wHvSpK9ejLtYtUgdwVlql3+qIoskYq5GifCyZYx0TI9GUA/Bc65uAgIDRg03S6I0V4eaED5fK1p9XAdzvekUM6L1+/LHHXG/OwgUL3HQcEA1Vm3K3itFV0PXK0IfLfF92H5n5zDO655573Knr9MINV19GvWPMH456wNZIMx9ZXG6ve7tn7m3kb/XAqFCJl+ekgR41Rkf8vGmfLuje0hWtRyMvny0MGlbW2GT05KUve6n76fbFN2MDHt14043K9fUN8mFzyhnxu3nPVrEiH4sWLdKjjz7qto5evmJ5PY+swqyPktC7GRlV7JAV7bSGn+6eHrdm6v77H9B9992npUuXOmMKY8mvI+E7/PIN+c3cdB8/8KOI9DDncrlBf6yJIX7e+VEV7w/a6PUEjCjmcnkX3nORl88G6NUlbaQb3sEfQE/vsmXLovJm+Qgo98uXW2N4TJfJkhlzfGOObz0vozDMvORqrrOzy52aD+ghZu0Ouwyx3mvYEb8hIBwXtjnuW1ta3InuhM1IgZMzk51ee9bS2upoaXTOD9/avTPaKQcWL2sXGCEum5GKP/QL4fqzlygbTqfRIKjHjz/4Q+97Iwjf8Wv5Mscj6OTa19fv0um/J37eQROuta3NeNHraGE0251l4RwNQPRX9NvpWqcfI9eYvshFehPH2gXHH0snZWtdgC74QQ88ZYm8ghfuEFxLJ2UBPjTyZjSDfLD/9IpXvML9hiekkfz81z//qeXLlg8+Jy+2NB5++GEX79JlS10eo+OAlyd0EuUGObn77rvdyDY7cG5O2ogrICAgYCiGrEHhFofC8M7NuDW3+hqU+x6YF/XsxDmDlgrRKjlTaMxk99/SB+cd3XSmcu3OKqu6D+Cu9R1HXF93taBMule77zFV1ViLevqYFpC1cDPmDR8uKCWsYs6YMs1USmq1yoozLdozWY1pblFHOqvObIvSVoHR250zPz2FvPqqZa3I96uv0K8BerwTGQ1YBZtPWgMjtkDjkjN1wdk7KR1faRV/hyrFg/X5z12nUm2i8kZLXyKrHowYU9j0bT306ENavmiha6S8+6iXKGU0od57zNBehoJntMUITtdpbbHKuyOVcAsTGTkpZBIubmmZWpsrKtbadO/DCy19zDC3xkqMUQASbLzlYn9D2j11RG9X5Z9H9IzzTSwmq9SXa+/6GpS775mlUjXt+szpkSNvfDiuR5XP64ieNoIPeOINuKHxRnAjOe65GZV2X1VK1aTlaSxlvE9r1xNfpzd+4MPqNx9UUp01489An/7fKe9RccEcNdVy9gVrb4gvYeEhOyNXjJ5ORh7okcMw23Xnnd2ziDqmCRo/EqTRZNryJGt5lykj0Qm1xVPqyjRpXEubyVKTMmZAMcWhaPmWw6Czb5ab/HQbjf0mTwUz1JjUl7MIcOV0wq2FsogVtzBbckXNaGlX2YxoznwpNWXVbZT0FIpKsSWqxZ9Chu39hKYmVTAE7fOCyW2v0c9oS8VknrnanPbcRJiW/CZ7RkrLaWvYJONaOtCjx2Y+ZeWDUbtGoxpiSKvj4DD8i95H3LE3dssdT/yowXMNDG4aKRhw0BV1FlSdodo1dozJMLuNlVS2K42BpnRGPWbkdbaQo+R4ZPw7Y96ubiqNPceRXhqa06ZPd5tvYGjjJ20GJNNwert71N7aZj5XATn1xplvQEMjz9E1S60RMGnKFPWbIe4bqORfq+ml+fPnu8ZTIzD+MQAxwpFXDHfSQ7q6xo5V30C/SzfGfMr40GcNBhaqM9JB7MRL7zdpoWFC2S3XOzlcOu05aSqaodna2eHk1pjh1uekkykVjI/wiOk6Lm31xh7f9Ob6NXW77bS0e4WLg9ErNjccCT4+d2/lzIM7FkJTP1AbNJus02ADg1tkjwDHE+MFecO1q7NT/ZZXjt/1Bg6bVPCOvGQtEaiTsRqG6rVNBfqYtXjwHrYQNs7tmmjpdH9Ear84qWklu12lmrTba96g1576IQ2Yfufsk9ZSRV2FnM794LuUn/2IshXOJLHPLJcrVZfL5iCesHARfHq8W/V2hDUob/sfjeOsJ/PRZ/XQI/k+ffOK37h1m83ZZk3tHKsdOFPMGtKZbFoDpYK6TY7nWOPl6SWLtNLCYi+/Aavf+ogbeSClVUZF6Dgwotnmq06Nkz13FzlP5yr4N/bc8hOZCwgICPBotGZGBQbn8hqidSdRDxNuJHiDgd60ZWaczJ07z52u/uhjj+nBBx9061VmzZplz+e63h96q4mHEQy/Q1OkIN3takBpNjqAX8IALmarPOn1ZsEmPU6+1xbnaffGDD2MgHeuN9J+Qz9++G5bBwaYS6cZWa99zWtW4w8G1t133aWVS5Y4gwajY3MDY9f3oPuRBwxJ5Iy8o9d6zuw5evqpp0yGHnejc48+8ohbSP3MM0+7ERd62Bnx8QatC9cMX5cWo9vnO+EikxhZAMORb1gn5WXW+bVvkANkku8a30EvIAzegai3vex6+xlBcPHW321rcA0TSxu88PKAQcr5DaSdhgT8oxzjh2ecieT8Wz5zxeHH8bae994xqoGxTEPCw41iWf7ybl0gDM9/8pBd3jhrJorXmuT1neLo4W8dYQTFfWv3xAn8mRKsjwKMLNKzTaPMG/R8AwjDx8/90BEU5Ib1bfTc9/X3u/IH4OWAhe9GqOCf8Zl3npe4NmucrVi+3IXLb/Qb8Gut1qavHL/rzo+CcQ9cmbCysa7GiQfllOlxnLTu5Z10wW/KwcBATvmcGfWMTox2GI2vefWrHe0g2okyoXvvvVfdpvca19FQP2xpwEdcznhI/ciMgptvvknXXXedbrn5Ft115116+pln3K6SlB3k0OsnL6+bAl8OfJgBAQEBHmsdQYn+6A0yQ145U2Q5HXDAVFMo7br/gQVmnGfFKIEfN3Hf0q3jutEaDSb/24c/FNE7enzitbzSqT7tuvtUU94d6l5Jz3mTvUFxR0bIUPCEEFKm49L2w89jbYyRXi52WmHePed7+J5k5s8mVFS2tljjYk/pgnN2USreo5I6tbxypD7y/65XXhPs22i0gWkNSato2V53ybKlut8aQJxL8ZoTX62evl7jFEYlRokp/hr9S8RvsTHNwWiAlgjMLi4rFePc9GXqaKupWG3R/Q8tUqWWJhQ3emLkDgvCda9WBTgMIg4wiznO+pX4Uu2z9zSjpUN33z1H5SorDggpMji2BJzhZJWxmVFuxCqXSCsXS2n3o1+ud3/i0ypnml2eNtcqah3o1tfOOE2Ln37azYf2Z1HAK5zLyxH4Adx7c95Y48q2054PQ3sgh4IdaxgFY5e1pEVZ/0plYw8jI6xxQo5Ghnl0Ixj+y9Wxev5H92v62jBgWJbNcGRzCTBc+Xi+AK6vNXvqGMp397vhQ98zvaEYGs5ow8amy4MyjNtYuLqk/rk3SCmj64tN5e+mpn9d8PyJ/l91R53DDl/9iSbt+bLj9ZYPf1SFTJPjRbPVAc25Pn35Ix/QwNyn1VxmRIsaA0q9Gx5D0+PjZZ4CvxgrbLZ6anKurN2t/vrC296hMSXOu5K609YoKlq8V12uZem42MA+U4mbHo4at/ih+eGuRj9nNTn+u7fDY135s6X5HxAQsG1hy1mmGwkqLN8z53dXanTPNobG73sD+/v6dMzLj3H3HFS5//77u0qX9/Q20pPpsT50b+oOUKMV8ITeUgxp32uoZFKvfNWrXM+dW3dhBjZz3R+4/37NmTPHPXcNuvXgW0BUZgICtgagDyKdEHduW4evNxxM773K9B67YkUjQNEasvvvv8+tpwrlOCAgIGAVRm0NgQIH66O0vQ92J+lNSivrrqfhnue8B/TkjAx69oZ6sBjqPeO+4UEj5IzTz3C7/oC3vvUtGjturLv30yjAuozsxmkS0MXojxsB8vf2HMduQvRtRVREsEdbFdgdKlksqtnuH7nlFt177TV6+Jo/6zG7Pv73v+m6y36hpnJJ6VpF6ThTTdhlqipOoCfvOAl61XjKmm5j+eH5WbK8HLB87UnGtTy9yq203zxnFzB28BnqivUrI3TQSK8j16EOqdgc9I6E0KBbO+DOcHy3rBksd67sRY83GEPDebbd2vXa1o918fe5Tr+jr35dA5WqMlY+H7r9Nt159Z/04N//oof+erWevP46/fMXP1e2r08ZFqQ7z8OH1Fg/uPTWnw+F/5pRYGYVuBFhc+kqO1nG7Rq3d3ELD1+M10RzJPqSMS1PyTnqzj5zOat0GnVvQEBAwLMFNNSoxGgdUWhra9V+++2nq35/lTsE8OmZz+jJx5/Urnvsru9/7/s66KCD1NzSvFG9YdtiD5qb216N1tmw6w5T5MC1f/qTLvvJT/Rbc7/68Y/dSdOP/Pdet0OPW8hu3/n1FwHrh9BACRjt8CMnfiRlWwdppS5z6bXyec3vfqerLv2prrr4R/rDTy/Vb379G8185FHTedH7gICAgIAIo7aB0ggMd+/WBkYZ0lbn0VvkepnsGdeo9yh6v07EqDR9X7f9b7ePPvqErvvn9br++n/q6quv1nnnnaep06a5hdOf/exn9eEPf1hPPPqYpk2bqnPOOcf8/Fk33PBPXXfd31wY6wO3/bBdo53QItrdmQwNaeHe//b3w4FwfBiNbiT/WxIYzWwJSt5RAadTaanQr3SpV6mBpUr1L1azXVuWzdeYdExtiZg43z5WKahULgzOgYYrzIN2O+aM4Eiel5F1yUojPFvitZjJiBlQzMO2a40eRnP0NPI8Wb8Odf45O/qA2mCIAQEBjUAf4NZHn2+toPQP6iPWtJlGbo4l3FlXmfKAErluxftN9/UuUXbRTHXG8upQXlmrc1i3iL5xOn+IWxe3zMvgKAf+AXSU4zHl7O2A6daBZEKFZErFONtwR+d0pcsxNbmRFdZNrorPnS1kzq3tpP6MggwICAh4VoDdOuowtCfYV2pDnz8bIE52xaEBAdg56ZFHHtH3v/89nfHRMzRr9my3K83//M87reHyLbfrUz7PCfhuVD9gHaCH0W2xytodu3o8F3m9tWNbNfgCArZWsHMZu18lrEGwqh6L1tfhKLNuC+Z6g22o21wgjqE6dejvgICAgNGEUddAGaqUvRLdEIXNF65XvX7dMDXsvhp0xLnd9jvo2Jcfp5e+9Fgdf8Lx+shHPqI///lq9ff1Dx4Oxv7711xzjT78kQ/ruOMiv6884QT3bl0gji05vO9HWzZfdbdh8CnjfABOhW+qVNRW4RTmkpoKA8oU+5QurlS83G90clAi25nC/+hLhNStwanVd0YbyQ37Zw2f+tWPcIwEXhMrIE7vwOpSMbzz6XwusL5l4/kMOER+DuUU+bbheiIgYHU4+TIhGq4k8ixTrTqd11kuakw5Z9ecWis5pU3nKVY2/YMWAcOFsG44/YWze66MPrP7YMGEfiAZ09KkND8d0wJzS+13TyLmTrKv1PUq+pURE++87vPhhvIREBDwbMLroIARgOHHuQQerI+Ier84MK7iesfoJWMve85SYAqT36GFHaoC1g7OAcC5sxfcfG2rLM1xDUZ3QEDA1oxoPV3CnWkS6bRIx3FFz1GXUFe4OqWhbomum69JEK37ieorF2c9joCAgIDRiiHnoKwOU6P25/f48OegTDfF1qb7H5hv1ybzlDIfnIViPl0vUCXqclmtFyhqB5mKVLw+VcrBLYpYFX2M8zosjFiiV3u+YAdToq1auZKTzpvMJZ0PP9Vq4xDRZc0H5zgBhfjTtbyaNV/j9IzOP3cHJeMrVOQclOpR+tBZNyofn6pKolllF/Wmxx+5iK8JizsVX67WViqMJuPrXHdl5nLE08a9n+AjLvp+TQzlJ47vLIwYBwZ2DzkHJVXnwUjhbf3YZZdd6nfbJjA82FmOc1CeD4uOAwICRkKk8a1pY/UG/0dPMtzlcprU1KZ4jvOwOBWrpkIqoeWlgmLptPmP6ujQaAkICBgtGLUjKOxqAvxuXpu7R2l9wejIpjWKAgICAgICnhtwnlgykXQj+txXrG71ozacUQWeq/o1ICAgYCRsRAPFf2JGe6xcd6XI0VNT4/1wDkWIa3iGX+fsufsO0BjwipIrIwh+FGHLKtBorm3ZXMWcKXCLM/rjzt656Ou0D+vor1ofEFBjeuxbl35+e17Weev8gcbw18UH/NVpWi0/QP3q5jt7t67wAgICAgJGN4bWK1ZzWqOjGI8pl0lpUbKm+VlpQSampZmElsftXSruzjlhvQrrTAICAgJGC7zVGrAOsFVuQEBAQEDA1gJ/4DGjJiCRXDVi4sHal7DeLyAgYLRhHVa375Gpul2m0GG1asaUW9JNvVql1CJ/rHdw60yGdRXFa+aGfVd3FgdnfyRjFkclY78zitVSdk2Ys/jWe4RiQxEpa1JaUdZci903m0u5UZWYO2CQt5sa/yp++tjk1pgwjcwqDk74jSeMB37dT6l+hTeWWUaM36PeO/bZb3TRc658E/E1Vi1Hzt5VKtH5HtGQPvFDh73YRtBY8SaTyefFugzS3LhFc0BAwPMX1FLUA9HOh3VnTzlHKm/3JbvW2NrY/PEubXdJqzu4DwgICBgt2CCrhqUYfk0IjRMMo2hHklVucyDa3SQyLN2OWHWjc3OFvyEgzsiY33La24ePMT00jZ6vrIUZvK83Dod1+POu8Zl9w1kjHv5dwNYNP5cchPwMCAgICAgI2BawzgaKN2Td1q/mu1otqVItKJGsmMHLorv8Klfrtw/6zPXWr96N9JtroxswYytv8ZTtyjoM1mMU6q5ovxltAJvbEIsMPP4vq81ci8XUpGosGRl/VUYxzDEC5EcmhnV+BGN4t4pq++FGULgCsiFu/LMwEmxbXDRXMAdPeyNX5brSXI+57vq1xz6r85RrHD/2HL8N/msyf/DX8S9uDc1648Ttokark+eN9ARsTdiSjeeAgIBtBdRApv+pa+pXfkfPAwICAkYX1tlAGezd52o2rLuvn/2xWk9+vcd+Q+FOEHfnYETXZCrldhYhjlKJReLPLbbkAYqN8LuWcZ4K6YcXg7x1/K3/5trghsLliRtBifwnkkkLM+XmHrNhS6VcUblCA7Cmipu2FrAtgLwOCAgICAgICNgWsNo5KBg5vkHiftPjXisp6YzlsrLJol64767WiEhoZf+AM6I5hGqVccSIB40KfuMIJ5oGFiH6vep91Hvjp3Ox3sRsZ1WqZbW0tpoBnVKun0aCPa/EVanFVY2tmqbkwhg8cwUXhc+jKAUR3Ft74J9HazqIk3Uf1iiIFe1umdrTj+qrZ79ZqaQZ8dU29ZV21FlnX6582WgxGjgzBIMf9vgGBXANBbdYJYp/JHCSuaXWHOt16icHxytKpTjg0VwyplKhtIofxjeCjthHuD5O7t3DIWh8HvEWV6lEz6vG17a2dvUNVPXI43PU32v51bCDGnOUoWw4eJkYDqPNOIaeRH0625QpU9y9d9vCmpSheVEoFLR8+XLlcrlh07e2vAPrk3+bmv+jVX42lTebg7fPJZ7r9G/t/Hs+YaS82hryeG00rE/8z/X3m4qQ/pD+kTCa0x+bOHHial9GAfEBhjQHJ5pZbrYeBnUmUdRuu05TOpNSvlSOeuXroygRSmasM12I3xi9hNVoMPHbh+/9RHFxjdWS9QZKxeJIq2oNlHyONSjWQKnaOxZ3NzRQsOOjfdztW6MjMuw3vIGSUMHS1q2u5if1idOPUWsLjZEO9Ra207nnXa2BQpM1UhgSj0Y3aJA0NlDqMdhz7htjXh3DNVBqdk2m8tYoKihp39cqRhtpcV+w+Nm+I3j3xMfJvXs4BI3PPW+jBgr5yknCiURK/fmannhqvqXB+MpMuvVooIyEdQmnF8y1CeiGYF3x8d6fSA9Mvt09jRP/rhHrCm+0g0MafQMFHvO7Eb7Bsrn4vyUxXF5A9+amvTGedYW9LvnY1O+fazzX6d/a+RcQEBAQsGUQmz59+mo1RGOFgDmNQa1aWaViTrFqSWPHdKhctt8YQnEaD40GBFd+c0840e/I8bvu/E9/Q8vBrhacGc1muNtfKp2yZ0xP4lR1TqpPmIv8MYXJwb5bvX6L4vINEQ/3lT2oWdoII2aNExopNE1oDCRY31LpUSW/UDMmJ5XrL0dvmyZqzhLzk25TIsVeJ2bwmUUfbcu4qqFUj8GcfTW4Kxa/I5Aex8t6OqOGRsU9o5UVi5WskcIOZ3FroPHOfLk0wsvo9+qI0rkmfPirQH7CIzdtzK6pFDuTpbW0e8Cepe13xn0RhWYNJtdoiuj12NRRh829w9Ta6EEWvQNNTU3u6sG3Q42iob+3FpC3fqSI0RPS4X83Yms28rb07mTrku11xb+p3z/XeK7Tv7Xzb1vFuvIlICAgYEsjtt122w1aZxg4GDODlQJvMKAxqGslVUp5tTZnVCwVVTYF5taK2HsaKdF+6/aBH6rwBq4ZvJGB1OAI172Obhj94JuoMUR4Zqy7/dqTSqea7WnSvNFIib4f/Lz+exV4Y8apPeLOw/kiaKPDmd4WR2MDRbW8UrF+xcoL1d5UVTGPX2tCJFvVVxqraqLZAojbl6y/KROC4gmjqY6oDUEsdrORDZRY3Bye66dlOZ4Z0TRQaBCtDvtNggbjqV8b+V4HDR3oi3hcdVPy4sbT3oGSGbPWODG++hCga7gGyrow2owM6EGWcel0evB+W6l0G/nJVsqABgrPh2ugjHasLV/WJTsbm6c+3E2V3U39/rnGc53+rZ1/2yIa8wT+D+3gQJeCdeVdI0I+BgQEbChiM2bMiLTNMHBGqukgN43LjNa4s/Irzph1zl6v/jGKDOeVkfcZPcfw5W9N2DMXtt3i1RnwuISymRZTiFK5zI5hvLNwnIJsdKvD2elczdVvI3u+Tof/jlEZaOWMlkQtOnckVj97hPflWIv9svjtl9/pKmqs+XA8Vg933TA/RlA05YvvfHrhG86HtamwOBrIjCap2VPLz7LFTTOEBqavcDy25h73bSkt6wO/rgZH2n16t/V0BwQEBAQEBGy7CN0azzNgyA7dvQtjttFta/BpGtp42RbAmhPfMNmW8zAgICAgICDg+YN1jKAYnPHjbhQti2AKEL/WBD3yTKPyi66dLzcywoe4xvYQRnL9/UiwcJqbWl0vf6HAHHse+rD40eAa4nGX6KnzCYYdQXEJM2fxmFmnBFOg2BigxvSrmiqxpMruNHkzAt3uZNF3q+C/r1/XCft2Lenl1fChjBS+f47ztK3pvMG6yqdf08P20dGmBqypiUbh11xovbWjcWQhICAgICAgICBgdGPUj6AMLog3YGhui73gWxqeb6sc04FWH0UB1eq2s05jOIRGSkBAQEBAQEDA6MdaR1A8otUKeIv64H3f/LOBlpaWwa1UvfG88YZmRH9EvRnq3BOWGe1RqobCt98sXrf4fQjWe+RkdMFT/WzmY0BAQEBAQEBAQMD6YNSPoNDjzw4gXGmYhF7wgICAgICAgICAgG0X69lAoVHAHlBuD6utuNcdylelwI0k2O3ITR6fUvPBupqhbi1fBgQEBAQEBAQEBARsOLCyAwICAgICAgICAgICRgXWq4Gy+rjDtoRtN2UBAQEBAQEBAQEBWyNG/QjKtryrVEBAQEBAQEBAQEDA6tgqpniFRsrmRRg3CggICAgICAgIGK0Ia1ACAgICAgICAgICAkYNRm0DZXRsKRzGGgICAgICAgICAgKeTWw1Iyjh/JOAgICAgICAgICAbR+jvoHCIY0BAQEBAQEBAQEBAc8PBOs/ICAgICAgICAgIGDUIDRQAgICAgICAgICAgJGDUIDJSAgICAgICAgICBg1CA0UAICAgICAgICAgICRg1CAyUgICAgICAgICAgYNQgNFACAgICAgICAgICAkYNRm0DpVaLDkesVjkoMSAgICAgICAgICDg+YCtYgTFN1YCAgICAgICAgICArZtjOoGSmiYBAQEBAQEBAQEBDy/MGobKLFYzLlwknxAwJaDL2feBQQEBAQEBAQ819gqrH8MpzCaEhCw+cEar0YXEBAQEBAQEPBcY9Q3UEKvbkDAlgMjlI0uICAgICAgIOC5RrBIAgKexwgjKAEBAQEBAQGjDc+7BgpGWLlcVi6XU3Nzc/3plkMymVShUHD33ghMp9NKpVLOcd/S0qJKpRKmsQVscSB/iUTClYFisaimpiZls9lBWfTvwshlQEBAQEBAwHOF2IwZM0alVewNJAwojKp8Pu9+by60trbq2GOPdQ0Ij8YpLsS5OUDD4w9/+INKpZIzAgn3hBNOcI0SGiT8njdvnm677TZnHIZGSsCWhF/Phdx1dHTouOOOc2WAZzRYHnroIT366KPuGX6CPAYEBAQEBAQ829gqGigY+X4UYnOAhsCUKVP0xS9+cXAUBWNsS8zBZ6TmlFNOcWkgDnqpzz//fHV2djrjj3Q+/fTTjhZAQyYgYEsBOUTOkcOddtpJn/70pwcbxsjnTTfdpF/84heDchhGUgICAgICAgKebTzvpnhhjGGk4TKZjPuNwUaPMcYYjt+byzFSguEHCJt4aRT5eDAM/WhKQMCWBvKOrDONC1AG+M00L+SSUT7fcA4ICAgICAgIeC6w1TRQNpfB5MPBEPMNBhoQOAwz35Pc+Aw0Pgf0MPv3jc77aXSAdx6NaeGehgp0hNGTgC0NL6NeXr38Nf5GFv19wLYH8hUZoGHKSBpXHI1XLxsBAQFrwpcNv14Pxz2gDD3f4esNeOFtLK6+TgkI2BCM+gYKFebmNJR8IcEoW758uQvfO0BcjY6pZfilp9mDAkcBpEHBOxx+vcLyz3BM8fIFFecL8FCEwhvwXGCoLHoZDdg24fObEbMvfelL+v73v68LL7zQTTs955xznK5CbwUEBKwJGiOHHHKIvvWtb+miiy7SD3/4Q33729/Wfvvt54zw5zuwi97+9rfre9/7ni644ALHn+985zsaN25c0CsBG4xRvwbFNwxoKGwOw4lwCQs3bdo0rVy5sv5meDD96m1ve5uOOOIItx4GGvj2d7/7nf72t7+5+8ZG1FAaKbD9/f3uW8D7X/7yl84QAHy7dOlSfeQjH3G/AwK2JJA/Kgquu+22m84+++z6mwg33HCDM1iBl+mAbQc+/8GPf/zj1aaX9vb26rTTTnM6yT8LCAhYBepzNtfBJvB1OJuL/PrXv9Zf/vKX5325oYP2M5/5jPbaa69BPUNH7qmnnuo2OgqNuIANwVbTpN1crW8UCL0gbW1t6uvrqz9dBd7j/KgKlTbAWGPePs8ohMA3mrwhx7XRqPP3XpF5DE1L4zcBAc8mvLwHbHsYThd53eZ1kNdfGA6MqvipqxsLL0tBpwVsi6Ax4suP153I+qaUmW0J6BEacVx9Y8RPg/PrHgMC1hdbTQNlc8ErFNzaCoz30whf+Y6ExsrZf0shpYCu61sPFB1++a6RVu55592mwoeJMsH531yJmzh83LgtBeKGP55HjXH65z693K+LFq8U8ed5xjN/tod3Pu00HnH8xg0HwiBu4L/34N7TviXg0+7j9c7LB++5ejoanw9tGK8PhsYzHOAb8HHhz/Od39zzzNOB8/wfDj4un798xz3x+PQ1+vOO515+RgL+fP5w3yhv/AZDf68NpIOwfHh8xzPo9MYLzzyPGukfDoSBww/fDQW8JAzvfNzeAa4+LxqfY0QNTSMgHPw3vvfw9HjgFwz1NxJ83KDxvhGEBS2NNPu0DQUj6J7nyLOXLc9z/y3w9/jBDQc6lcgb/Hr/hOvTRx5Cmw/fO957uv3V368N+PE04Zc4uffyAfw74Oni93BhN/ojXO8f8I74/P1w368LPizChgdeNwLuMTT57WludOsD/y2Oe8/DxngBz72ftcHH7cPiexz89Vfe+XAB/j2fiMPfDxeXD9vTDE/8rA7uccSB4z3+iWtonB7IH/48fcgb3xCOp8PTh+MeDKUfNxy9w2Ftfn2c0OPDBTznGeBbfg+XHuDDxr+/9w0S0oee4VueAR+HL3e882n1V++nkQbv8E/Y3s9Q4MfTi/Pfef/+mee5j399gD/v14fL70aah8bHPSC+dYGw8O9pJAyfDh9H47ttHc+7BspQ+MweCf7d5hCGdcVDHF74fQ+nF05+Dy3Q3u+GgG9RkMTn007B4RngSlzebWnQY4vzNHkHbSg3nAfP1gV4Qlj49TwjPPjmw20MH/jrSHlMOJ4WTx8OcIV+r+A3N4jb0066fD75/PEywfNGXvFuffi1ISAewhwYGFgjrcTPM+KlAode7skPaMQNBx8m4OrT1Rge3/Kb9573yCw897KL36E0AfzCF771/skv/8xXGsSzPoCWRhoJh3D5TQUMDZ4m0k78ni7uhwIafLr5zqfPO1/GueLw58Pjyrdcfdz+nQdpJRzo4R7w28Pfex778L0jTh/m0LBHAjQRLteh4DmOtBKX90P83hhpBAadB1NEfLg4vgeNvOPel8Xh6GWUqFFecJ4WvoMO+OS/Jf3wlm+IE78AP/5+uHg8+I7vCcfH6+n1vPXpAPj1/keCj6/xioM+rnzLPfzYGHg64YWfwowjzZR93sOrxvA3JC7SC41cG+n09BM+cZFX/PbvuQf44/vGOD19+CFcwvB8bgzf8wa/AD+kcST541vC9O+4EqaPp5EPhEHYPOf9cHnojzUgDPwx9Rt/OGgGhMd7aOSZD58wccTh41kXvH/8+nAawXueN8bFFb3GM/+Np3c4eB7wnQ9jqH+e+bIMPd4P/j2N/PZp4zmABniDH8LjSv3i/Q8Fz/Hj6fDpg0bPA/+b/CIM3+DE77pAuJ5OwvHwdAOfbvz69AEfz9rgw/G0wzPuoRU+ELbnA799erzb1pDo6Oj4Uv1+1IFMQJDAcMK4MSBzvQB4QQIjZS7PDzjgAG233XaOHhzPONDuscceq/vaMLz+9a8fjBtaWEh/7bXXDgodaeYQPc6p2GeffbTLLrs4Zc10MwQeP1558M2Ggu8pLNOnT9eee+6pvffeW1OnTnXK0h+ISTy+wAGf9s0Nnw+N9Oyxxx6aOHGimx8Pb4h3Q/KfCh5AP2GTFq4+DWPGjNG+++6rAw88UBMmTHBKwBs/I4EwoRH/+++/v1sUyT2KA2U+lF+bC9BL2NAGDVyhY8aMGdp99931whe+UJMnT15NnjxGSo/PRxYuvuQlL3H3/tmsWbN09913u3v/DPh7ZBM6yA9kkni9rELLC17wAo0dO9bFjR+u0A+4bwwT8Nv79XLNM+LhO/8t8eCIhzhwxNvd3e38k+7h0ss7HPlEfh155JHaeeed3TlExMf6MB8/cXk+jgRPm+czvMCNHz/eya3XFd4PcuVpGC79xMcz/Hp/jQ5w9XzgftKkSS79yCDllnAxHH1Yng9ckRWeI6M+vwDPmUvPlW94Du/RQz4un8+EMxztwwE/ONLD94Tb6HxYOPKAdMAzdBzvWY/XCPKIcHzekI9MzyUPkTd0F7wHnm6ujXnUCJ8GwiU8D57DI/+e77nnSnzEw5otdBTP4TdhkA7gvxsKvoevXKHd5zOATtLGb/KU9KBb0H3IJesjh4breQftxE/ZR+6QBcoGcfi5/sOlf30BXYSFjiHtOM4Oo45garTPS+Cv6wPS4x1hoOORYdLOuoWuri6XLq8HcD7NOH57nuKPNPIcevnt855nPv1ckX3kDR6h+5Gf9vZ2V6f6eHycjSBMygC8AIRN+YYfvAN8c9999zl7gHjxiz/A70ZAC2XO0wYPyPsdd9zR0UVeoteQRfx4mSZM4iE8H+ZQWocDfomDsLgOBc+hlYYTNOy6665OBrfffnv3vKenZzBN8GdoGL7M8B5/5MNhhx02WDf6PPr73//u6nLg/fs8BJ7H+OW9z0Mc7wiX+go5h/c77LCDKyOUw0b474CXCcoTcoyuod7kkG7KCPETH/7hM379t2sDPCAe/Hu+kW/QRfjQD13eD799Pq4LpJXwkRHoRy9iA0I7ZZ2wvE1EmFwb3baGUbtIHsBwX8GSKesjPOsCYSKUoLGwjRQ2fj/wgQ/oxS9+sfuN0PHs8ssv15/+9KeNoulXv/rVYMFEyNhN7EMf+pCj5/jjj9dLX/pSp7SIh0Lr/fGeQnnPPffo5z//uVOuPpz1xcte9jJ3ejjhwwvPA644Cu78+fPdgr877rjD/QZe+DdHHjTiqKOOcvRQSRG/L9AeKEBO2v/rX/+q22+/fbAXZiS8+tWv1kknneQUhzciOCiT7zDG3/zmNzuDw/MVHvt0P/jggzrvvPPccw/eoxg/+MEPusrNVy6ECy+4J0/+85//uIWS69p0YUNBHD5vMOTYIYUKDOWFgvUKGfng6nnFYvdGPnr48LhicLGTE/B+b7zxxtUWyePP3wO+BRgq5B289kYuNHl/8IV7Ku5rrrlGjzzyiFO+QwHdpIFwKQNUQD6sJUuW6PTTT3fGxZve9CYXn1/U7Ss07lesWOHk9R//+Mca8kHF8d73vtflIXnWKF9cly1b5ipPeIaO8ekbCf5b0kzFh2xhuPnKyIP0A2iDp8QxnGz4b0gPBhS7ajWC3XAo7xhu8IDNOoiLckH6fV4SH401duPCUCI8nsNH/BLPG9/4Rp144okuDcg7DcnGyo4w+MaXDeTrtttuc4vpfXp4vz6ARhqD73nPe+pPIvCbdL7rXe9yBil04Ze4Fi1apE9+8pN1nxF4T9z4edWrXqUTTjjB0Qe9yKDPL/yQjv/+97+6+uqr9fDDDzs/jXkC/DP0w4c//GFX8RMe/MIY83oYmSNvMRrx7+nEwQP4NnfuXF1yySXuoF2PofxBHjGIPvrRjzojifwgLMopZQ+D5p3vfKfTf9BP3PCCDViuvPLKNeQZ+pFpOrm4+rwiXniAIw5kgUNXqWs2BHx70EEHOT2KfJNewvR8hkZ4Rfr/+Mc/urLtAQ28Xxt4T9l5xSteoWOOOcY1Lkkvz0mLD4N0w9+f/exneuqppwbleWj4PEcOPvaxj7nOLeiEZuowDj8mbNLzmte8ZrCOgYeAsHCUBfQ3cSEDjfBpv/jiix1vuIdOzw/KFrLiDWX8ED50ffzjH3d1eyN4Tv6TbuoidDr0AsKFXv+bsJHjyy67zHUcAeL1cXuZXxfgG99wHQqM31e+8pWuwQYfgS8jhA29/L7lllv029/+dg0dhj+MaMot9EMTOtrzgPeE29gQ5NnChQv1hS98wTV2+QYeUvZoqEInfuDdmWee6Roj73vf+1z+eeDnuuuuc+VvKPgWWUCGuTbmN++48j15RhjoC9IF373fkcB3+MNGQ7+Rdr6Bv4RLniHfpB25YkOkW2+91d172Vgb4MPBBx/s9DSNPOKCZsC3nofUW+iIP//5z+6dx3B5vDVjqxhB4UqGby74TF4fkOG+VxT4gr65RlAAhZRe68997nPOiPa9uxR4Tyv+ecYVQxlDBQVOQffvhgPf8o4dy/73f/9Xhx9++KCB6xWIV3Ski3uUJ2kmjnvvvdcVZPz6tDdeNxb0REIP6YUewqIAQhcgfBwKm4JKJYNCwACBX/gdLs0oXHoyCM8regxEDF0qRXrNgA/fpx+/8IheZfIVBcA78grjggYd+UG8XHnn84ZvUaKk5YknntDixYvdc6+wNxQ+bwBho5jZAhYDHfp93D4f8Iti4xlG54te9CLnl0YBhgp+8OsVJP7AhoygEAYgTWyziazSmEAZEzd0ennCuMA/76CHxj3GlJcl/EOH5zvgngoFQ5wKjbgJD1ow5EiTlw2AHyoD/CA/GJL0/N15553OeMIvldsb3vAGV2Hinzihi3d8yz3vkBkqRhpTNDYB/CJs6CDN+IVGfvPNJz7xCddYpKwSHmnyeY0fHw+0UUkeffTRrrEyZ86cQT/en78iY8goPPSOPISHnPhPg9LT4r+nfHh5wBCmzCLHNLZ552UER15jEMNzn1+eFvwBrvwGxEV+zZw5c7AndV3wtMEL5MQbjd7R4Pl//+//uV5HfkOHp4+4qHR9OIQBDYceeqiTt0YZQLYAYZAO/MMHeIjxQMMDXYEs8g3+8MMV+ihT9PT6Hnscfv/1r385OfzUpz7l+Mi30IDDyIBeb5SSL+Qrxh1yyveED3yafH5hBOLf0wINyAJ6iYYAz6CBtODnmWeecUazLyeEQ5rhHcYL+ejjAvjBeeOIBhjyQgcCDagFCxY4fz5vG0G8pAs9+/nPf951YqFnPE2eXhxpxy/hU+ZIPzoDnQeGhg8thAFtfIcugLd863WZjwc/jXHRkYTOR597/gL4SViEzZXfNFypt3w4OPQ+cdEBRj7jz8sK8ZAWnx/wk7jIE+pU+A3vAWG95S1vcWHjoI0wfDgA/552/PCODkzf6cFz4kN30Fhitzzkhvh9OvDjw/HpQE7R5cgijRV4gD/e4Wd9gH8PvgPICTuHUr8Rh68/ALRAA2ngGfFQX9Og5Bl1HOH4uoQOGuQA2j1//HfoIM8nfnPv84wGuI+D8OALsxvgic9fdA+NT/IWP/j13zz66KO6//77Hc08Iy74yy5ir33tawflwX/DvQe0+zIC7cgvee/DJn7yC7o9zwBpJXx0DOUZ+PRw9XHBCxx1EnwjHZRB3uMA9Hge4nz5gx5vpxA/fACN35Jf6FbooDFO5862iK2mgYLwPVdAyKhQETxfcDdXA4W0ocSohFGSgPD9lff+Cg/gBwWGwkWFTSXM9/jxwt4IftNTSQWPAYMfrygoQMCHyTvo8mFQCGjQoAgwULyCwHkaNwZUOBRylImPi3ihBxookNwThy/8OIxMDDD4jrE3HA0YJhjDnka+R6lghJJuXxlw7/mAIuKe9EETxiq9j1Sm9DrDN18x+G8IA3ieQD/0kTaMZN+o8+lbXxB2Y5jQjXEKDfz2aeY9/ryh5p/7b1FwjbzyfOWdp2l9GiiE62WCtGPwsMWmj5d8wnDjvaePq+cn74kX5YtBCG9oBPDOh+uBYYTB78OBZr7hGb/5hqu/Jw+8X+KgMUBFSkMIw4+8QIbx4+Xe+/fp8aBipIf75ptvdmEB/Hr68YujUjr33HPdFAho4B3hAX/lO5zXWfiDX5RX5IgKnvfe4PV8Jp1UZo3AD/oC2QI+HZ5//p7vuUIv8g4f/v3vf7vn+OGKjoFu7okX/57/XrcQZiOo/OhhxC9ozK+R4P2gd+BpI5BnjEXiwZ9PB3GjYxhpAvwGNBZOPvlkp++gG/Ad33jjjnv/zgPZRnYYdUXe0JGeLvwSF/JGvvvn8ABdAL+JH0f4XPkG3nq/wPMdfmNwM9Ll4/EOcCUu5JN7z0vyA7kgjEYZ4zcGDQ0U/BI/dHq5A/jBER7fAOiDF8gIz3kPj+jc4TeNHt41Aj/EQWOAjgDfWPLw/j3d0OLveUf5gs/oDHjKu0bwG/q4MgL21re+1ekmvvW0en/eETZX4uKeMocuo9HdGAdx8z2/MdSQK8Bvyg2dbDQC4IvX8YAwecbVyz1A91PXP/DAA673Ht4A6MTg9d8Dnnk+4Y93Q9PC6BLveO75hjwzS8IboP5b6MEfNCEL5JuPn/fIGDbIXXfd5fxsLIiDskQHCzJLPP458UEjV39PGrlCA2mgbqXTC1ny3zL1iPzBH2j8nu+4NoZF+kgDI3AePEf3oQM9yBvChV78N4YBvdBAA4W4oAXZ/cpXvuIacz5/eOfzxvPWv+M3771uBjQC/Xu+a3TQRgcBnSDwwssVfgHhEQ+0NMYF/UwnpwOMWQFDyzzpQXa/+tWvunrSg299mvEHCBfwnDC8zMIHOlV5vi1h9doo4FkHAkVlSi9Go3B5AUcIcQg+BcILLL8R/He/+91OeL0xNBRUaCgjCgWFyhceQBhU3hhNFDQUPn4IH8c9hZJeKAxkD77n/cYAwwl6oB14Wrh6Okivb3R5eN5QkOkZhy5faBsxtIDCQwwlnvvKiHh4juMZaSMu/PAOQ4JpfQzBwzee8R3v+YbfOM8HTwe0U5my57tXPBsLvqVSopcL44F4GvPf00D+kY/ERxp8uniGUXvGGWcMKv3h+LUuECaOOF/+8pe7Xi745dPm6SI+eEnc8IX3niZ/pUfrrLPOcnTxDJ4OBeEB/COrVH7IJXF44Ie4iJN7HH4Jk8YlU2YY3eE3/nAAmggXGgmPq3+GX0bBfE+gpwNDh/fERbo4Nwb58N8SL86nHRngG/wSDt828ooRHT/tgO/WBSponw7CwRGH/+3D9w4acH5OP/Hg4DUVGN/yG9nx9DWGwTt/79PEt9DAu00Feq4RnmZPlwf8YzSTxgJlEHi64CPvkX1o53vow59/hz/kDV3hdZ/PU8B3AH+A3/jDgEbe/HOeeT5whW/Q6flGXDhkh55e/EML8GE0Ahp4Tt5Dkw+Le8L3PCBthINf3n/ta19zxov3Szi+TPjOEOjgCg3Af0t6KLdDG4uA+P4/e/cBqNlVlY1/3z49yaQHEiCh904IRRCQriCgIragfB9+NsReP8WKBeX7C4giIkUQUARsdKS3hC4tBAgtfZJMv/W/f+fOMzm8vLdNZiaTzH5m9j3n3Wfvtddau63dzvHcKrG21W98gDTEx4sBk5UF9NHFGz446f3ar/3a/kF0H5GXUa7sa/fltTTxiw6a6oy03QfSJiOnj9QWJm88kxfDIE2yyBP36NK38Ckb0pN2+iH3wvltG6J4XOQEcSHpk8PzyEBv/AF98fijI238WOkxOEnY0BLeRNJFF13U7RDI9u3wgX8DCgNdECdprQV4sppnoiA0Qod8ypJ85uQ7PqUfOfRFtmdma5O4eO/TEs5V3MSjKzrgjwf9e9+mCOgDhFOuyB29Q8pn8kTZQN/V6oOBfJ7xdy9tNNAEenXvCtIU7nu/93u7SS3wPHEin/KnTRHWb3wo88IZ0Mo7Z+j6kyEgPl70fQYUdCLt5L1n6h9a/XjupaEsqH8mi0AcEA+UJ9sJh9W/GzpuMGdQVJzrAwrD0572tG6GRkFUOF0P1hkU8TkVUeXTKDg/YNbSvbQYaQwnPCjg/YZZYf/bv/3bbqZQYR7Ec5/73G7Ej46w+KdXqyJkMAvhGT8H5Bh3KiG9o+eKP7NKf/Inf9L5CS9PEm8t8AXezNKJm87j85//fKeXCy64oEuPfvDzIz/yI52h7je58SMefv70T/+0q/x92KdvtksY/HHo6diEtexvm4l06MIKglUBDZuGDC/0JH46ILAELF/MsGsw6Eg8s6Di9PUgvv3tyuywPFkJaEm3P1OPjnTozbYfeWcmnj8d2k5jGwK+xOeS12Zifc0X6BANOlnNGRSyCE8/zufooNBAGz90YVXE/mQdrDho26rEKMGP36Eljr3etvJEzyCMGaS+UeFZeDVrZ/uNc1FWeRgg9M+ATxshHL5AfPfSMPP6jne8oytj+DWranuWrZLi0W/KoY7ZfmplRR7wd6Vn7QC58MWJBwx/8itXIKxZPMa1mTPQgYaW/c46JIaI9COvbaQM0UF4jiYdOOdkFjXyqSMMKnUEomvPpaMcuqeH5Jn8Y4g535LBOcffuQtpQYxDOhM3fC6HpA/KoxnjPqI7+tWhK5tW+fChk3feAA3lTVsRg1a6OmD3Vob+5V/+pZuNTP22jccMvXhJnz+57eGX/+L2+VPesjLOoZX6Dtpf6aj3aXu0pVZ0rNSmfKDnSj9oapuiJ36em9nNtix0PMeb33ShPRZPu2QgYiZXm0Pmc889tyvnoB1LnZcv6pJ4jCJ5pb1gaJlVjW7AVXtkL/8glDvtAL4AbXFtSSGPeOLjVz4xcG0zE55/ZNV2+Lp6H+ioq/qh8C6O8iQ/9Fv/+q//2hlfyiaajHAyJL+TJ9Jx5kBeosFFv9pKeemevyu9ShPfzgHor9VvNPWp2m4DBn2qdIWLPC996Uu79gboNv2DZ9od/QwZ/FY21Mu3ve1tnXzSRk/9jpz0ZrCs3HgO5LIipO2wYo8WfaGhbTLR5Ur/6ImnTmuHUvbWCvz4ujujVlocP4a182/6lr6+7aDQB6uHyW9xbIcyKBWG3mJ4K4PkZOhHn+Q3Kan9IoM4wtGr/AP+2j7tP/pB8hgNvFmp027oV5R7+pAOXbGPAH30yKFt1ldqMwJ5TyYDPnmXsOjgkbEvD/hFRyZW2T94SfnitF3aKflIpugzK2UZACeOMyOvetWr9uvRVf2zw0WeCAPSVyeU6379o2ftnPonvcBzfepLXvKSfT43DrQtXquA5T8VRyFIAT2YZ1DIx+mgn/3sZ3eGjs6HzCqbwq8Ds51Lo6qxU2FVIHTMLjkgHFoKvngMdcv7IByHpk7hL/7iL7rG2m8Fn7OPUdriWAkQPumoPDpNYXQkaQRWgjDRm4qloxXXb8/cazwY0CpkeMEX/nR6Do1ZBVAWhAf8yANGClpJQ8PI8Ab08eqqMdTAGGCQgVziMFojM+Ob7tABV2nKZx24BlKnJ57Ox5YODaDBAb/oQzwNvgHEWoFO8o7cafRc0acrnT0ZhAX+dOfAn33U8g4N8eSd34x0nYrf4XM1W7zQcDU7zPihN42kKwNOR67R1VHgR3hXhpbBhFWXNKTSBnVJY4pGdA0ME8bMIOjS7JitW9IRR8diWVu90IkyZsgsbU6a8sqWoZe97GUdP34rW/IMbzo5AwnyoYl3HYq6hDdhlR/0GJeMd3T7umVEmhnLQWlh0VI+DNystpht5B99oslwYpxH767K+OAWL7TwopwzCHTOaRc46TOkDPp1otKB6ED90ZYEyU90GVrKN5CFvAzyQFhpCQuhvRIi07AtXqAuPuc5z+n2oMs/MjhPp/0jE/0YwJGH7H7jAS9///d/371pjH6Bv/RS3mzLZEiB8OLiwYQP2hD+ssUreYNW8lzbw1DBHz9hXBkwDgx7zsBJeQA0tD/Kj/Chy2WLl/DkD8hsCyfjNufX1GV1S1jl7od/+Ic7meSRPMGnMmwgrTzgCzxTTrTv5DJoFVY8PLoq39qClAOOYUcWZYE/vpVnh8zVM3H5gbT0A/izSid+oA7mDFEgfXziBW26JRe6JqRs80ELfenw1yYbhNs6pq3Bt+euthjZOoUWOtFxtni5D6/qGHqMtte97nVdPZAGnqSpXZeW/j2GJPnoAZ/qDrjXdkQ36rOyHaBn+w5aATr8QXzxDDSjc1A+6TgTDuhznpvs0Z5rD9LeoueZMqn9D/21QDvBcKbLgF4MILy4AcIHmLlXXpRfPKaM4EmdipyeATnVQX1O8kZa+gjlPnSTD4Fw/S1eyUPhtf/qonbOBIayr9ynjdYvmViV32hyiUe/8oUfmvzVOQNWNoQBoPzBj+epo/qahBeX/Oq2ZyC8OvKsZz2rK2PCceJ4po5In13Bn5+rtAyw8S0s2uRWl0AY5YKc+hXxEhdCW/nNJATdoaP+0RHa/EAaub8hYu0lvOGgQuHhGF7Pe97zuo7WiBnS0SpkKrdnOj+NZRoYV4YmpEK5iqtSeY6+gq3gM+rNoKhUGhvP+07lV6k1Vmgp+OKhpyKpoCqAuNJZDYQT3uyzezTQlZ7GzxtSyIRP/nnGkdvgAD8aJJC+Z7aACBvkPpUZ0hB4E5GKTW66EN/VMw0WQ9vvVObkC0PEyoF4IDwnDU7nwrjil+foMHylfSCgKx1udBye6ErepXzIlzyP3uiKgUM+8YXRKFqB04CtFWhryG1LQksadCFdnb5OHD90EV2HX2XJzHHiudKNsmQLFr6WQmgwRM3ioiXuoKN7AyrlBz20ya2sGEC+5jWv2W+g86cXtJUrhkt0yIFn2UrjXhrimNGNjPzIY4bZnmSdhfTRSrmIY1AbqIiHXtJfSf4AH/g3kyYdcqGb/EaXLMq3cGhziWtLVdLsI3XpcAMfdMI4xDtZ+EUe9wwNkwzu8Q6eGdCYaY6+ySAvQDiDh6zy+h0DdrC89fM69+A3Z0KIcZDynDB4cI++wZA2A/8pV54xcLIHPrz3gWbklG/Kds7ToYV25BLWpI7wnvFzJadtt33DKE6arspDDDP0+EvTpAe/GFrAaEUbD5EjAw20/OYgPDCEDKbyjA6GTS4w/OVl+BOfjK9+9as7Q0397rf9gAftvZeopL2Whngm56xKSg898TzLlc7cc+iarTYpFTqDYGRqw4RFL2WGgQ3ukw4XvyBpLwfpCkO+5AMox/oX5RKd0Oo7egpffgtrcBRdrRVWD5Ieuq4m3rThSbMP6cgLbal40RP9ozUIzwYRmtJaK+Sbti9teJ8/adFnVvP8TrumDntLmH4DlAv5wJGDXH/3d3/XDUSUq+QNp3wln1zxbYDtin7kzwANBvUGJhPVVbyhIw+1x2gIn3KdXQ9pR8DgtB8G/E6+K9MGQH7HP4O7GxMOrJQ3HDQofAqhWTkGNCiooOK45xRCznI4uFdRxFcB0oDlmRk0AxdhUgHBzCW/VOg+hDEzYrDkdaUqnzD8VRwzCP04SW8l4FHHbYUCHTQ4jaKVHI0QWn3+48iuccJPOlX8uNdQhxY/cg4CDY2VGZOkzQ9PrpHNrCODwXPwnGOIJB8Slku+6GR0cKElPt7ont9agYaOPitYeHClI6tMdGagIR18JA3hlCOyWmHxW/5FZwy03K8F0vAWGemgjwY/nVa2QPgtvfCCt+hR52dQLS59CavsGewulV/9csfIMlsYfUfmOGVDRxBdoRk+pEtveA5diO7o0gyhuPhzBR2v8H4Li6ayL31+nPjyQ/qeL6VbdOVH5AldnVL/QORSEM8AXr6Km/hAXnz4rewaLHseWejZdjZyJ+1AvOsDmeFPHvcdvslklZU+U2bwzpBMORImZcE9Pw7kp9UI9PvlxUpejJc+xIfoFh8MF4ZYyhLX17l7tPCTlczwID3bzZL+INBKebRFhYEaHqUtTgwo4axsgDCeg60w8lu64S8uZVx8bT0+0QxvylxWWKOz0A0Pyg3a7vu00eQ8Q9fqpC3C2gIz2u4HYXVTupHH1USbuGgYjIa/lFP30s7ggR/EsDYxpV67H0T4AwacdOQl/8jZh/bb1q9AOLLSUfIF0OynF/9coX8fDPPrA03lLLP/g2AX0JeVbfpQvslFlmHyrAbD9DYoWxx/+WEFxKy+yS912Gr8Uhik73f0ulaoI4z81OV+nrjSm74Nfc9SdtURecvf7zhh6JujP3ZF+n1OmTRgj+2UPHEvPWUUjYQHtCD1KXoTlt70YSaz6M59ZMB7XxYQL+U8v8HzOH7Kv7ItT9Q7dIfVvxs6vr1GNBxWKGwKuJG8Au53KoUrP06hBjNOGqiEyzMNqkrMPwag5ynUKovZ5n7FAuHj0EoHp8CruElXHBWqvyViKaOsD/HwgZ/Q8ptTYcmeDhnCL/CTFhr4YaSRMTTDTzq4QX7EJY+KK22/B4EWHqRJXg0Uv+jD9q9+A+RZ34lnNliDEWNY3GFprQb4tASftPBPVts/kh/Jo+gsSLrCMr4hfFoFyUrbWiANRkY6CLpA2+xnvwOQh54n7wLPs/9XXGH5WZaXf8PgOTp0oF4YsEUXrn3dSlMnJmx0JYx8zHmGGChceMSLcDp9V8+ERYOsEIPK3vbwKi4aZubEla4wMKw+eCaMuqd89PPOdry+vvpyBcIb5IF0kxaI67d08YwfafCLrszY2eM8mDdJa6X0DzYYNpmFhcjA4VE5NSB2zwlHJmVI+Scnl/CRC+/0zGXAqgy48rMtZ6nyFqChjcmWm9Dt046+0ObPuOWPD2nxs13D/VIQXvmzItqnKY57MrsylKxAkJefOqbOGRAIO6y8oQf4U0+VU7yBONK1BQf98NsPA2g4oyVt4cKfsO6jc98OsvXSGxm5nGfrw8AQpIUuvkwW4QON8BvZpREnjJliYZTn1Fn10UrKMPnRiGPUS4/e6FD4/nNOX2mSga6kk3LpSs6UNWEHEX0Efg+CHzpou88VTAYabHmOB2n1eePkt5UA+rWzwb0zUUvxtBIYynQCaNArA99ZNnzEJX28cvoUq4q2I1q944YZxIN85T56XQ2SNmjboy+89vXnqm3TZgjvmTKiDhv4Cy9Mnx4+lIOUHfq1EkhmfsJzJknEQcPVRAQoL2gI4+yfcui5356h496VLqxE0ptzOc6ZGDjh0XNXYdlzeJcW2uh5QQ/a4DeX/BJGHlrBUSZS9+xWuLFh6Vb0CIMMujFCAQUGeAqnwurqd9CvmGYUUmBdFXZOGJVMPDOnII4GWmUwcwniCTPYmIQ+f1Bx+xCWwSMcegyHlRCaGkB8xIBytTqBJlp9WYP4Rb7+lgIQN1upPE/D24dGP40cev34fTpx6AjHiRsdDOMP6FsHr3ESXh4Iiw56B4IY7+SyWkI/9jijz4U3eoxuOH740GCnw8NP4mTbwlogjf5qEDrScB7Ks+hFOkF0CfgyEI2hQCZ6T1lYCYxFHQ4kvwaBZjocYfBlFZDeAA8Bfj3ngJ7AbzxHryC+3/a9o8FffM6AQ95E954l7T48w5sZ5kA6wsqnlZCzFhDdBe6TJl4Z//jl5yod5Yi/uEcCDObxhZ+UkcjBGbwop8oLmYQhn7bLVTxljcu9eIEwZpmT957TP/9+uKQ9CNsFw8tSYUD5BVvOGLf9epByPqw9woewwijbykdfBml67mrVLrxw/MmWMsov5S9O3Qwdzjkn9ccz4cU18AE0wPYdPAgfP3XeSxQMVLKiKH549ZuOOfXYFX+ekT38mEAKr9IGOs59gJ7wwnKeyzcGNdruk4+eSXOYftHAI16kgy5++mWl7zyXF9oLcSF+0ko8fhyIFwzSG4bEM2AiA5qBF0k4d2rVTbjoLTJoY3I/mNZS6S2HtMWhJ01thIGmQUfOjHlOfrxE7/z6/Ecnke9QQL+Hz/DTh3SdU6MfDoTTNss/5USc6Mk9l/DuDRKd6REP0PRscPuaiTKDGboTj160314s4Js2+KAXdJKeMO45NFNHkr/SwiP7BF1+6q8w6p/dJd6YlhegeI6W+OKFJj9XwAP+gkOZN4cDN4i3eIEGKRl/OCHNg/0WL18XVdFBIWOE+FK5QpYClesgfb/NomR7k8LIT+OiYiq8/H3Yz0yT+wB9/PchbtJwxQ/exMuMo0Ivnqv947ZQCKcRcF0O4dHecBVNnNAzI7oSxI/O8YNHlVm5kLbtL2aUwDOvCbVvmx5A2s9//vP3H3gcRGSnb2eAMhsDaPjmByTcIIQxw58vgONJmrbryYPQWi2EzxtppEluOsus80r06BZP9IOP8APesGNblt9or+YtXsI6q5EyAfzw4/lK/ESGbEvj0FIWHTpPGRDOfvyUWXT5edvKsHrRh3D5YjbehNERO1jp2XI8OlviWzfCBcq47Tv86JIR4c1FKYfx12ENQz89YfGUuiS+uPLFIE+9SHizgfbd92Hm0jkXSB3sQ1z00TN54M12/OIYqGbtQLiE9YycfYNWXpx77rnd7wNFX9/D3uLlDBWjPnk8CGUDX/gUJlc8u8KweEH0Tcf0FShD2liGKAijvOWtQcK70r9zekkLveUgDVv9GBQJ2y/beOXyFq+0mcI6/C4d9/103OPHLKq2DPCLjmfaP+kmH/vo0wHljk4NokLDyyWUu8ioDJjdNYmEJkg/9VQ4ejPQVZ6cqTIpI63wT65AGY3cqZf5jQf9nesgPO8DXS6yJk+lqU82ucBPGHlpYgfdxPNa2PA5SLsPNOSP+heIY4ZcO+c+/Lr35i95F/DzNjUrSsPSSXyreOqy9CJP7j3PiheD2eBV3c/gTx65hp50cl0LhPe6Z/VS/qYMoeWefrVrbAkrfNoofNC58Om7w7d4QXhhn5jU6fPJiM9EUx+JL5x2Sh7yi7/2fzCdPhyOt+OA/vDoutq+EoSjW/K4l4575dzAMeBnEJfzVH4nDidddYSurHhr4zL5hX+gv374yIlP5U/9Sx6jHd2Jj5YVK/mBN5PUnmXA5D715MaEb28lGg4bUjgVyhS0lSCMsOIuBRXAmQ+0VYpUpmwX6DvPdS6cisqQ5Oe+bwwlvRyEDN8rITJZrkQDb6DhxU/SXsqlg8WPuINy21OditwHv2DQqFsrltP1ICLvWuIMwlkd8UNLoyNf6IAulnN0KhzQV183mTldC+QxOqEVP2kMy69Bhx95SBbx06gre2ZXVwLZE7efp330/dEOyL1UnEEsRV/ZySyw++jBPdnkC/n6ri9//IDexMUXt5ozKOoJncGwzged1EMGzpEOxk/ycxi0bamv5CazstIvS8reUi7lXz6l/qCnbqxmxcosd8p8+FgJDO5++XF1xmgY+mVSOikLAVnxzW/YoXPP6IBu+uWMI2P/Nz1Ig049C7J1BNBj0BmwMCCFSx3l7znnAK5JMQahlRUDTW/2Y9RLSz6l7gkPKbcQOZXnyDis7nDJS/fyU1j36KFBf/q3pNNH0gHy5H4ppD7nCq65Xy5+/1nCD0IY8tKPgYeJD+WFX/QcuchIn7bF2bZjQomx702LZBUuvPV5XAvQ8OIQA5DUrcAzv5UPL0Xxlj9biHzGwFu+cg4PhrVFwaDOUi4OBNJZLg/UM/WULoRL+RpWH+JSvlLGxMVjZPJbeUcvOpaGci/v+KtX/fZBfHpzwN7EgrMtnO+QmZjo0+8Dr5yJEeU1+Sw8+q54UN69tcuKipUV5xq9Ql55EV+Y1bZXNyR8ew1vOOxQwBRMhXE1SIO2VBx+Kh6kUiQN8ZZz4uZenEHoVDxTIdBbLdL4oY8njYfGZCWEJ06aaTD4AzrhZylEjsTpY5hfHys9P9ggJ37JI20Nqnv+EB0s5SANVQay8e8bKauFhlG8lB28+S0PQ5f/Ui553M8/zmxQyuhyQGMYQr+P6Ggt6NNwH5n6YCh6Rgcp88LRgTRd6dyV6yO/hUtZjS5WU39CX/hhHRD/yHAg+duHtPr6OBTQfkTH2oRBxGDolze/6QB/K0GZB3TSwXPoqUsrIbP7SXcl4DGriQG5bB0Zhj4/eBzUd8oRGuoepJwkDXHcc+5D0724cWglLh5Tj8XzLOFdzcg6X2DWHC3+wjLEcs8/MGhnjDGsrPhaQRImaUoj7W4gHXJxjMM+70u5fhhxooOl2g78Sn+1QD967GPw94GC7oDMaNo98dKXvrTjc1A+EL4fx0DBapzVfWcBg+h4rTBBIE2vx3WGQfssPWkpH36rQ/zQp3MTZvLaa86t0MYoPlg6Wi2Gpac9oQv80mlfJ/zFGXTRN5fyIj75+bknX+IH6oiBmt0RaWs9pzvpiqueAb7UCW/NszKknqQ+9yEOGlZIrPhnO7q0OchvfHHi2AbrFcZWeQwibUm7ru3/kYjV1+SjFAqewpHroUAqQb9y8Yv/IFKJhj33DB3PQeUB/rYcpJDH8Y/zuy8jPxVYOunQLGPqHFarC7yIhw+VXiVKY6gye7aUC8IfHtIBuvIjk0bU74T1XPykvRyESbjEuT6B9zSOgKfkQ+R3v5wTx5UsmZH2+0CQ/fVoplNCFz20XcPXMN7Cu7BceMt3EQ42BvMy90u5wTic3ylDyikd5BkZA/fqDH9ImH798jt5EH2l/A7b8jAINPADKROD8Dw8rwQ678sX2v34oRe5DiaiI25Y/vMPb8ob+VOGVuPEo2dtS/KHLAyvyLoczMiiIe5qwkszgyHxOMhWskH0dRveBh350SWH++RZH9ITxtXzuEHwE0abSwfiMLSU65RP8Nzr1nMQ27kU8aTPCSuM8K5JmyFmWyYjjOEa3kNbmMF0+Gm3k0fRhfuEj0ML3KuHnotHN2gNQvro0Zc40dug/oKEH6a7QFxhIsNSGJZGyrC44df2n5/6qZ/qvs/kjA0M8pF7ccGA1xZF29ak03+2FmSQR5e23zm87SC3V13Tbfpo/CQdcTK4124b3OR7ZsMwqAe0DhWyzTZ5k7Si88F89TsOyJsylquypS70y1dkUm6tNtru5Vycsigtz6VNT6kf/N1ztm95q15/ICFO+MaHNkM9sg3QFj98JE/QQt+9/IDkkW1nBkC2x8Gg/m/IaGdQVgEzGL4jIf1kvi/H+mDUUpV0OeQMSioJQ8WXUFdTsIRx3sRyu8KaODmDgkf+vt1hS4/KIYyCbnmQHvsYTHNQx0vxlHBLPQ/IiIdUzugQP/Q6yI/wfR5Wog/oh64zBY973OM6/zRWzqDoFBJmGDwzS2VpV7zw7UzLchCmfwYlvNvHbmZxNfwPwlJyZiTF1whGV8vJMAwJq0ygg19Axz5hBgkknPM8+Rq0MOI5g5J7PHlDitnWlP3IDP37YRBHw6tepwEH8YadQXEGaFDefhp55mvhkDx3BsVs10r8KC+W5Pvlzn5y76FXRnU4eLDtIvkhnFfR5vXSfaCzHBIf0Pc7NBh4Opo+7DdWl5eSQ9zoUX23/B/g155lnZ74wgonvPthZ1Dsu48M4i+V7lJIOjDsDIo65i1O0hhGXxnztXDtY/j1Bh15GYN9LZAOedGjb+mFRva8CyMdV2eybMURjkv5XAriaF/MaCYf8E2P9AnoyFcv9MBHZFauch+gJz4ef/zHf3z/2Ud0hdU2OENCF4nr+VqAFgNKGoNx/VbmyeLqjI6Z2jvf+c5d+y2utD2TPl7pVb45o+IsSww9YawWCBfd6Otse8nE0loR/cQwzCpUzqCA5xD9csPKWoB3RiEjUhjxpZMzKIPIGZTQE95gwwdE14LwZRub1RFv0/LhwKwyehZjlqx+072+VLsQXq8Lks9g8CGv2RbOs2XGXxr6HuHkLX0xpm1DY8gH4eVgnkHJGdClwKbxfbWUS/H0V9pmsqW8rBYJm7oRXvgP0qEHZd+LBXzsUx2xspjVU8/xID7+0LNzwODGPeQZoKVOKHPyXXxtho9zy5NTTjmlywN8iIdHcVz5oU33aHP8hbshY22tfcNBQ7/gpLCuBsMKXL/ieI5ePuKTSqoSMGBS0eKE77uVnqcy5flKEF68fuMUfrJ/tO88G0xzJZeKmo6xD8/XArSub2j06ZYu5J9OOOcVBmVfyYlPJh2MBm+twIe4/XyXbylX4XG1TnwdMByIrsl0MLESPeVKXaI7/NKDziNnDMjfL7+rcdFFDIPVYq2yH2xdHUws1XbgWXlL+edMGtAbxG8tTn6tdnDDQAtvqwmvbsaQU0bwL00G+FL6R38p+WOQStv3JgZhPzva/XIkndU64cXFKye9vpz4EgbozFvXTKj5Gjxj8Hd/93c74zj5AZGHMcXIJz8a+EQjEIbxJi5DzFWbHTf4e5jr8z+s/gzTK7mXw0rPDyakhce0p8AgdTbFzLyJKC8AoHOTLGSlT3AvnsGRKx1cV8h79NH2psHXvva13cSa8w0GkvjKaqBwwgtrUPX4xz++878+4S2beKJX5YFeTBakjHD84oaVjz5SF1IHhkEYTnmUji1fBqgGBz/xEz/RTXJ4Q6l8lV7qHf2ZhLrDHe6wP0/BfX7nPBu66o9X5ZsMN/B/+tOf3uWN1U1hpB/5wODOixgiw+Es14cKK7fADYcNK1WePpYKq3Aq7CnoqZT88s71vktl44Y1eKnkcZBGdjVIJbGEHH6SntlBHWTf9dPyW3jxlnKex/jwG/qVfy1I/OsT5OkP5vBEHt+GSAMc/9U4egEH+A5ELxrKDG7QS94zlMA9nlbr0lj3ZTnYwNOBIPH6DTv95U1AHB3ShW9dBCnPXL/8DnNokFta9LoWDJOrz2uw2nCDIBsXWQ6kvKwF0hgEv+glz+lL5xu+1uoi02p0IF/lU4zhlWD2VDuFtrpC9678hkG4uGGQpmeuVioHkQ+upgzFrRb0IDz6+AS00Iy+pB+67jNgFMcsrQO6VuzpiD99paz4sGT8OEYWhK5wVmXEdd936A/69Z34fSedQfDvY/D39Y3wTJ7oKb+TNwxb266sUluV8QzkkzwzSy8efR0MoCvtQBrsB+2eVdZnPOMZ3bd3okvhOavd1zfUkZSblIl73vOeXXnm51nf9cuDsMmPQQi3VNlBl0v81B3h6cWg3pv9nCnJm+aES15bJQv9wTSyqoheykPyX754Q5hVci+oIA+oS4GD9IDuUrLdkHCDGKD0K8/1jRRKBSAF57ogtPoFcTmkUIePYUDHKw8VYPeJo/D6raD3K2xcCnw6Fa+41BHZp2oG7Wd/9mc7/7Ug8vnq6WCn5OCdvNUYeiYc//CGT7/xI5xXveZjUXlv+yDQSMV2v1ZEr6FxuEHu//zP/9zfabjCOeec0/3u64+D8Jn8Izdd0ZOZF4cbzcytdcYe0PQ9Adekg48nPOEJ3VUeGSDKP1fhks/Ro3uzP8qRbQF4Ej/8XheQNfl8IPkVHQbhO1cykZ+cOg9pKY9mwhgKkdfz6ML+7sjtmTBmzdQh5ZcO5A0ahxv4Sb7gS6fpN96VNZ0tGT0T5lAg+TUMnpl9pLvoEC+24vkdXoF/9I13YfPMTGbKmqttfKlLgbS45DVnpdLBZDP90vM88TxP+KTjNaj8hY0B4psJ9Cxe0gj91SB6p4fkERr8DdTMEOOBX55BBi4Q/mw7STvAqYO27wAaZsJtb7Iywpn99fam0AR0A/yQw+rOa17zmv0yRT4TF8ILh4YP3ea53+qQLbgpZ2TSLnnuPrLnt/DaLrPT2nz1R172ebouwAM9RJ8rIWHwR9ccPvN7EMLLo8c+9rGdDM5veP28MunwuXSVYVc6i37TbvicgQGLNEKL7OKsBmiJx7ln2OJBPrvaegWeSw+ESxr8GNkMbvJJP/mkrvALbVflLmFcg+TxwYaXOuBTeiANK3lWNdPWxZ8jT/I6dcTbydQL9UQbzSnHZBPH2/+iL04ZtK0MhEGHM5APffGc9Xr961/f+UkveWyAHr3hM3TVP2VcWQkNYRLXlZxoqH9Wu/jTMz8ge+JFJzdk3GAkoPAbO1Yr47Bw/BRMBRZ8+NEMCCS8BlEnlUI+DMLqFHSCvg9hRtF+UpXY7NhakYp1wQUX7F/VCfBjb3le/xme+mHE17jZ5oEfPNiPiSfXYejHT2WNfpZD9HR9QmNDV1ZR8KPhc6UrnYuOQ/5p4NLIceL5DXT1fd/3fd2+WDO88s79gXTqdPbGN75xv278licMH3uxpdsf+AiHPy4dhBktbzPBhzwT9+yzzz5oRgaslLfLAc/9+P17csgD5xIyk8zx12k5f+Qe6EUe5NB0vzw7T6AuRQfK8eDHwA4EfV5XA+Hx2XfJs0FaS7UR1wX9NKQ9CMaGbSV9vpQxZUbHTb9o0K97z5U/YfHrmbJuTz89G2zQu0O9QXgQZxBoGkznXpjw4iqt8CANH2jr01HmnePCyzD5+vKvBtoCspITPfEZugYW7qUH7pMefQmPT9uFyG+AnLJne6LwHDoGPeQwI65d9Z0MZRjQ4YK0R9Li774vf7a1hF/nNGNAqu/C4oeBl3yLsR35XPkLLy99+R7/qTfaDiDnIMQXt389mJBm+AT3nD5sWH2J/pRDurUFh1OeDQQBn326udJL2lCuL090v1bgg4GsXzBBYuIrZTiz98P0lrqFN3y5j7zhIzT6cgBe6Se/DybQvPDCCzs94QcP/Jz50jarAxB/wFufZwNg+aFsWaF0nzOgYPeBD19zVj/UI3WkX/5S56SRq7qiDLtP+vgJr/igr9B1VcYN4NW/8AuJL560XNPvehZe1T/PpON6Q8cNZoByNECBXStS0QIFk+PvK6xoxinQKoAD+Qp5Km8fKpRRPeMrFYCf+7xxZC1IJdGo5cu+6KlQrhoFs50qap+f6EIYxrnD3OnQnGEQftgWiAPFoB6vLzCCufe///37eaIr+tBJyzt64Oe5fHTVMLnKO/tU01G4Al3FEFgrnMHICxiSn9I3YGT44c2z5CtohN1reL2xBh9+C4OGw9sa8IOBlJUDAb5XA6taGaCAeAaCZtPoPOU3ZZiMkdfA0gFHcTz3DC2HnQ8G1iK/8pK6r8yk80SDn5lDfn4nLw82ltO5NJU3++/xiRdOmVfeGKf4RCM65qxq0bUzEGaFhY9Myn3eSrUShLcypv2LnpI+B9LDh3ZrUBarOco2A0P8YVhLftni069zZGDsMcAMLvAXesLh1ZVR5Y1PBiN9g8i9FR60wNZbZdFv/ApDTtuB+aE/CGGE9X2OQfltAcMjh47zC15yIE7SBKsg2o7k06Cu+JsNPvfcc7t7fAgjPfqVp6ttP9A/WKBf5x4gdPHGuBz2amky068Jw0A87YUBbr/NTFnzWxj09I/kl3+RX1n3vK/P1cJWreRzdPpDP/RDXZ862L7lHq8mozL4xA/dozUIz+nHczRSfuzeGMzjgwF6sVsE6CN6UkesSuCdTvGBH2Fc6d0zbbOw4niGbzS85EYZE9dqRXQeedgkdALRU8p8X7/OtLmGL/Sc9Ymft5BlBdhv9VO+56UseO1DfGHwr/xIJ3nlmX46EOaGjkPTA92I0S8wB9JADGKwAK4GCuJSyDN0Ha6yzKjwpnFQ6RRsS4k5R9CHWUp7HM0+qDAxal29N32tkHYqmtca5nwFfxVNo2cWx0oKfvo6FUYj4K0l2U5DDleV2hLnchD/hgYNlUbuVa96VWc8+B3QDcPIcrTOO8/oVmP70Ic+tDtoKe90NuBKz3R1IGVNIycdX+xXBugeHfmAT2+60cF5AUOecWagnvKUp3S84g0P8iMNbH9V5khEymHksZXAKgoZ/PacvGYfbdkw60Yf5OPozWyc7wa4ihf90KfXSK7WwDqYwAPIA8aj3/jFH74YhIwt+Zs243CCfpRZb5LTeeMBX2nXrEQpb1kFoEPOYNF2q5Q3filrrku9cRGNQNoJb1XBtpYYkRnMMUxsdTXoHmaQepucsiEsN0h/rXAg3SoKmonvXn3z1iPlDn/Soidh+DHOGLf86cMz8frbNT1Tp339Ojr2TDgrsFZfBiGM1XVfvvbWp0H4yjwa8o0u0ZeX2mv3/PGIZ2XNoBM9YVMG5a0PQlrtp2Ph0RRG2dAP9fVxOIEPOxPoAfBBLqsj3vQ5COGE8UrayMjPPTm9oS9vD+PILw1tibc3OawuvvIcefvnQdYKE1/SlgbIB+XFBCB+5E/KrDTcmxTztXb3ZMWPe+ch+shzA1L0hQNpPOQhD+lWww428GjAna/dp+5L36SQgXxW3IB8+LKq75mV/cgrPnryyjU6pi/nSvx2z4Gyqz2SV9KTd+QXji7plE2Dvmf8XW3dBHxo4wxetS/05Dl/fafXSosbB2io++qfvifIc/1KgJcbOm4QrxmWYRq4wwFpplFxVWi8vUQFUzj4Q14ryG8tED6vGU5aDFGzfilky0EYo/7MSCT9vGYY+jxZTtfImVGDVBQVStqcCsdPRSMfuvyl5V6n4ANCXhFqm9Z1Ab518PJVehoT6eNLevjIu83NQqbyB8KIY/bZQCoNd+JaerVEil7CewVw9kID2SB5HHhdqIEQf7TQZgyhJZzfoRv4PfiaYfxqdBgJkDITnS6HyIGu5XgGl7ISGnjg/O4bcHmevEPDDKtGSqPly8/yLuE816naf97nyeuYfTk4jXD0Y4bNrKetGeJKRzzPycsvgyJp5FWZnvkdHvHOiBs22NXoWnGJntD0xhpx8rvPK/iNrvronhNfJ6merATbLPIqS/Q59dMhVXTQzpUML3jBCzq9hhfX6ILBH39hXYVN+aVT5d5KpHNB8k8YDvKa4fxGy2zxn//5n3c8xK8PYcOfjstgPvHxkNcM92Xx3DO6fcQjHtHdJw+FAfec1y3Thw60/3wp9Pnzim767ctDf8oYP64fHvzm6Cmvd1b+gf7ck0GZSPnnlzDhLzLh20SNM3CpN5w06DrngIQHZTjtUnjpI/WNf3TqN958hZ5Rgkb4yFVbkEPFkVvbkrKxFKShfWHIWqmD8ISO+Jxw4Qf/QQxKTh+q7R0sdwYI6JNN3PCHnvgmuXLY10BQmUYvegBhrdij4z60PUfXgEPbkXSFSX66xkk/OpaGcCA/+JvkMrkRCCdMXjOMtrD8o188oBVe+8gz+eZ7EhD+hr1mGA+gjdQ/ha6rsJFPurYO4QXy26oTGtERf2HkTVYe6NcEj8FZ6MXJC6t7Xukcv7VAvVLuGbfKKf3jmyz0r2xkhUi5yDaplCOQpolGb/lKm9+HCRnP9AF0Qyb5Kh00/LZK6hyONAHN1bxmOPKmXOAfD/g0OWc1JGUChA8P/boQu1I4Tp6gow3X57LJUhc8V+69HCJ+6Enb1XPx6MRz+RY7Qv5ywvptJdekFRppJ+iZH97xKrzndOO3PM/ErrBoRz+uaLjq59kwg2X2hozle5uGrqDkmntQCQ4UoZVKFPTpL4UUSBUqhXQQoc+Z+f3nf/7nrtCDSpF7lUZF1SCqVO7JlTQ4S5uMe0aSTuq6Qiemk0mDIS1pSis8ayzT+KdRCU/4f/e7390ZYmnc+qCX0AL30XNkSzqh6QqJA3nuKn7uB5HnoZNygbeE579U/EEIB/LIjD3DG63IgIZ8knfyTN7RFT+NY+R1r9OzH/6v/uqvuo4ntGE1vEDkkQ8Oxcq/pBN60uengTXDHAOGE58jjwHSi170os7oTWfeR5+/tSANeuInv1aDlcJF764cQ0gZpG/p8kt9ogOyc8kP5Ty6Uja9NtKgEA2/B9Hnxz0X2cLLMCScMNLL/SC9/tUgDB8QOVyTDjo6fjKIk7KwHMiUfHUddH1+loKyrcwbWFhBUPYgcnH0q7zRdcoj/+gaz9ou9Ud5449/YYL+fWDwTCdoJg/7LjSSr+7py6w2wy9tEl163oew/TwYlv4ghGGcaH/VYemLi37yRTp0hr/Imbj8PFPuGF7a8D7fYEUgkxJ0jW5oi2s22LkFgzmGGr/0P2hxjFqrrIPwDK8vfelLu9l7upWu9PHpXhhtiEk0Og//6Meh4fs4zidFB4H4+e3q92oRPQzSXArRjVn7xBGfX78+o+t3P5/0e7b3JHzCySN6tZJiCzZdZ0IR0AC6Uz4NTuSBuGuF/FVOGeBo4Cv5QPcGwVZQuRjZySPhxEHDqvEwQxhPdKOc4Rv96Ah9MHAhH/+1IvSkw0mD/nKQn4744zX6wbu8EM6VDICOMs+PTOqwiSODDe1KwqCjDppckW/SFAddTtk1cDC55gUU8jIQX1jpqCMmefHIhS+0rTK64iP845fODFaVCfTRDk8QOZUJfeuNaXACbYCyAmR+GhT3KdTuFbC1QoFED9DKNbRXQvhJoyFO4sf1oSLYo2mEzmD1PI0mGu4Tz28FnkObQalCqTxpUK8r6M7KE37QRzcySB8fKibnHi9pEBgcGgmrAfjzfBDxc+XQDNAZRPJQWM/7vLgO6ngQCRPe/cZzng2LsxqIR1dmfs3cME7Cf/jp34ff8EG3Purmg4LoaOgiX3gKjeUgTHSk4UbTQAXNNI7RMfp+R2d9ndjH6y0lb3/727symU4i6PPUlwXybCkkjYRLfiQfVoK4q4GyaiuB10dmm4W0yO1ZOi18xCnHoONRD81+mhFbqj5F9sifDosbxuegH5nF4wbjhCZ/+afD9NFE9zCor6SbznS1SDzpDaYPni0H7ZSwyrCy/4Y3vKHjgX6B7qI/usc/5144UN6cD8rKScrmSnjb297WzdCrb3QfGeLQoUO6ip/96g6uMzBS9qQlbB/CrhVJwxYTAwxnc/yOLK4pc67KW9LFhzbT9k4GJf6iQ+gbaradaOf79Tr8uqJJj2hKhxNfeKvrtgzLr6WAnnb7da97XUcrrp8G9NOVFiQvDU7EIVPkSJhBoIHWShCOLOiuJrz0hDVQ0B5CX/900tefe/5A/1aJTfJEd4HwKdfSCL0802Zoy9XX0D9QOI+oLVb/Iz+45wL30Ysw7sU1wWKFehjwzhmMySdxGfCuoePaL4fXBXRBj3g1oedNXFZn8ECXkUeawnIQWfWL2gw2iTIsj/p1qA91xE4J4dFLGL/Rkmbki8MD/lJ/tW3ynvyepwxYWTHAp7PQyhXCez+vwoP6p36T+8aG1fc6RzF0VCmU4D4Vd61QMMVN/BQy/grdSlBIFdp+fIVcoRd/kIYCzc9Kin3TVlM0rGlwxE/DCEbgnL3KOl37McPvwQD+8apTt/XMa/hyCA2f0sGLa18eFdjshlk4IPMwnfFPXLLJu1TqyDgIPKElLt2mcQA0wof7QQgrLtoJ6941xumBIjzY120/qrwz84W+dPuNVZxndGvLQg6Tko9OsuTejwf4HiYbiJfn8k3ZYGToCN7xjnfsrwv4ifwgDc5zqzj9LYj0pdPCVzAoSz8PloNw6ET/4NrXz4FAfOjzEF3oCMhj1tmh4IT1PHkDwjJ0nSEwu2dFQH4AHQxD5I8THh0yrkYecYRP2PAC7qMbUOd85wBfZOrntTBk4We20+/VpC9OwuHd775bCdLO1hb1R5zX1AGxum/woO2iO/xEDulFP2RSLoU3iIw8HFlWAv0p3/K3/0X5OGngSbnWbtlmakbab/UD8CJsv3wPIryvBDTw7so4dPDdQCIf8QPPped3+HRvK6FtL+RJXtAdGTh+wtKLtk9bbwuYlbX+ZJawMaoSRzvw5S9/uaNvVbE/gdKHuMInfYM/Z0ve8573dGnyEy/6kGau/AxKDE7kJR0Irx0TdxgSTzhprwS8kQsPSXs5oCkc/TM49Udk4xdZ3ePVb3Qjn98GGibnvMhEe5h00eiXCXT8Fl559i0SWyPpPXQPBOiKb8ZdG/4P//AP+/lQhvEiTPgS1tWARP9j26ytjPTPfxDigrLEaLZihOfII4505M/BAD7wSN8cPunKroEMopJ20uzzrW1WhrWBnidcPy9AHH76YtvXTDYp89JOX5bymfTIbRAov7UR8pgDz9EMXTAAUr/lt3wHZTP8uka/0pGHaD/72c/uwmeF6saEG8wZlBiwhxsqkw5T4cMDnhRIhU/B4r8WKKC2JvTlIaPCblkxlWgYpCeOQqvDwBv47d51JWh48OwVp5YO7UW1jYO/DlDDqwFCT3p0Hz5TUQ4mpEEW71S3fGlpmX7oidGkY0ojF34OJtI5aejoPx2fdMibhpiT/qAOxNeZKyN0RldpKPhf10HKIPAgvyz3ujoISDfyToMs/+gO3/SKH3FcuWH5md8HAvJZ3laOlCc8kZvxpuPDD73gSdhB/QWDPPR5WyoODOofhJcH6tha6+dKQLvPK/oMJi8tILuleFB2OSsu+FOv5Ue/PA3Te19Wz9Gnu5T7/vNhyHNx+/VlqfTiJxzn4HPKL31eeeWV3aAAH3S9XPs0DGROp502ayWelgMelDPbjWw9onNtp7LPYFbupEF2YYfRT7r2vOdFISknDr6GZ/FBW+m1rK5mWBkGDJu0SdqP1cqxUv6tFd7sp+2kCzybwDAwoYvoHY+wFh6FNTB1ZjBbN8lJv+jbMpay4Ep/4qxVPvXGthhOv6q8cegrd2hKNzKshn7KqvqvrKGR62qwWjnCk/oijrIoL9RxerLtKP1JELq5KmvOJmk/6ZnO5SGDkw7cpz1PvYHVyrIc0Agd+Rs+ctaJ/vW/Ketpu9YKMnLOyMljeiGfK3rRN9eXEeT9dQG5lC1pa9vQs6VRv2RyKXU317UCTW2I+sd+0daTTR2hN2Uk9PuIHpNm9JDf9IV3W/70bWjTjQGPPFE25EefZ/ehe2PBDWKAAjqdfmYcLmh8FRaFIw2y37lfK8gw2FiSU0FeTeHqF+TE0yCrAOlkl9MTvjXe4vbjQOgGSSt89e8PFkKPTlQ4ugW8pXL35TrY6QOa0UXk5xeekv6wPPKbf/JUWLQOFa+DkEb41iHTX9KNLAF/btD/ugC91A1XsrvypxfwG4/L1ZnwFN4PFNG7Mt437A81+vyTlex9XXie8hM3LB/4B5EFncRZCxIfUkaXg7B9npI2ZDVjrejTiF7C02B6q0HiAnnwFD/pSGMlJN3VDFBSrvM8RgEafV4iR9/vcEB6g2XMNfzm92oR/qNLzn2fZn6DtLmEd10L0KFnfAJadAzJh7XoNHpI3oHf6Ibng4lhvEmLPJGpj2Hhk0fRQ+KHX789i24PphzyLLzijc5zLx1p8tOWDuN9JfR5FT/p8ecGaQ7+vq6y0pvypP2SbmyM+EG/PK8GfR7ljfhooek3GQ3oQNhBmSB+g3ro6wfv9B5/jr/0kkdcn/dhad2QcXh67xsw+oUiSMN3IEjj04ff/FeDFMYURPH45dovrMOQAZ9wmflJBR0s3Pz6fK2Wx7VA2nHo02107Tf9B4ei8kVf0V8f+EiDsVQeRUfJU1d8coP0DgXwqGF0tQKkUevzHF7weCj0Jw3po+0++YWfpMsveboUwud1RWgk/UMNMvdlk6ZOJbqIPkB5CE9LlQ3xuMHnByJLv7zqlFdC0k3afks3MizF83JAIxC/L8eB0BOHvl3TDksjBhQ5ub7erwvoMGmmTPX1GvDvy3a4EN7Sbkan0bvfcatBaPTljrzqeejyi7zxO5B+ER3x0JCee/nHPyuia0XoHK78CP/gSk940BYvBc854fXDymt0kPY0K84c/8Q7mEjZSTru+XGRqW8krxXyMrQhNIfJEX3E4eG6IuWXDP1+CqR3IGmIF4cevaANaGflDiL3atEPr/ynPZNWZHAvzbXSviHi21vahm+BQjBYEBSQ/nUtUIAH6fk9zH+twM9KPKVyplL1C3sqM/APX0H//mBBepy0kmYawjT8K8l0XZB0B8FvNelGR65wKHntQ3rRFf0lXXmafEy+hrdDBfT7DSn0f4enw4HI28+TQ4nouF834hdduPq9nMGyFMRNnVwNhE+6/Xjq0jDgK3oKn/ntSi5OHsZ/LRAHH2uRYSWgSZdohifb7DKLyeE57chaEJn7SNkNzch0pCBGZfSCR3nJL2VhtejLhZ745HYfffodB0lDmLVCnqV8oIcWeVzJslaa4TX3hxppa/v30pd2ys1yoNPsDhEv8fkn/0Irej7YkGZ0PphmgKfVyDOItDvi6w/IJb3QGqQpXFz0el2BDpmi25SRyLpWvSYOl+2kaXPAgDMyrBVohj91w6BksO32LPl1Y8eR08oewUhBGCx0B1IAl8N1LXCD/A1D0kjDIDw/LhV5NXQOJsJD0gxvg0bI4Uafr9wPYrV+BxvS6Dv8abSShxCeB93BRHSjge43pPKQX4Cvw4FDIeNKIJuOd1gZSVleLU/R54GiHz8d5nLo62tYujFKjyTgs99B0z89D3bkq5E/+kIrhkEf/KODpNPX2ZGA/qCEDlLmIPINyrUaRMbIG0cPoZkwB4oY56Hbp32wcDD4XA7hFe/S8ds9RJa4oP87MgfyMuVs8NmhAPrKEPT135fhuoIs6SPIlvT6tA9GOoOQrvQiC0S+g4HUuwym3adtWi4Nz7lBpO565h790CFD5Oj735hxeKyGGxmuS8FYKu6RVtjCT5+vQ8XjsIp6Q8KRmndHil6vD/0crjTXouPDnR/99Fajj6XC8L8+8vC6gOxrzRsuBgesZoBzNONILBN9ng4Hf9fViF9LGb2xgc76A4cbCvAddyiwVrqHmp/rE22A0tBwiHBjbDAaGm7IUCf7AxEG0o25g29oaDiy0dqdpdEGKA0NDQ0NRw36W7lsO+k7/m3lpKGhoeH6R3vNcENDQ0PDUYEMTOzv9m2BrVu3dr/1LQYmvt2TAQzX+pyGhoaG6wdtgNLQ0NDQcFQg27qySuK+f45gNQdcGxoaGhoOPdoWr4aGhoaGowIZnGRg4j5vFuoPTtoApaGhoeH6RRugNDQ0NDQcNcjAJPcZjPRX6NtqfUNDQ8P1izZAaWhoaGg4KmDgkVWS3Adt5aShoaHhyEEboDQ0NDQ0NDQ0NDQ0HDFoA5SGhoaGhoaGhoaGhiMGbYDS0NDQ0NDQ0NDQ0HDEoA1QGhoaGhoaGhoaGhqOGLQBSkNDQ0NDQ0NDQ0PDEYM2QGloaGhoaGhoaGhoOGLQBigNDQ0NDQ0NDQ0NDUcM2gCloaGhoaGhoaGhoeGIQRugNDQ0NDQ0NDQ0NDQcMWgDlIaGhoaGhoaGhoaGIwZtgNLQ0NDQ0NDQ0NDQcMSgDVAaGhoaGhoaGhoaGo4YtAFKQ0NDQ0NDQ0NDQ8MRgzZAaWhoaGhoaGhoaGg4YtAGKA0NDQ0NDQ0NDQ0NRwzaAKWhoaGhoaGhoaGh4YhBG6A0NDQ0NDQ0NDQ0NBwxaAOUhoaGhoaGhoaGhoYjBm2A0tDQ0NDQ0NDQ0NBwxKANUBoaGhoaGhoaGhoajhi0AUpDQ0NDQ0NDQ0NDwxGDNkBpaGhoaGhoaGhoaDhi0AYoDQ0NDQ0NDQ0NDQ1HDNoApeGQYmFhoYyMjHTO/cTExP7f4+Pj+/3dj42N7Yt1dCM64ejE7+np6e730Y7JyckyPz/f6cQ9nfgN0RXn/kD0Fd2Dq3IJc3Nz3bWhoaGhoaHh0GPkjDPOOGKtHsbC1NRUd793795moN0AIc9GRxfHwQzJxz3ucZ1hKW8ZfZdeeml55zvf2YXhd7SDvjgG9oYNG8rZZ59dtm/fXs4777xmJFfQi3JER7t37+50dOKJJ5bb3OY25fTTTy83uclNujB09vnPf7685S1v2RdzdUA7ZXHjxo3lvve9b7n66qvL+eef3w0SU5YbGhoaGhoaDh3aAKXhkEIeZoabcfcP//APnV9WTL72ta+VX/3VX+3y1/OWx4tG+N3vfvdy7rnndgb4+vXrO4P7t37rt8o3v/nNfaGOTmQQq/xoG37gB36g3O9+9+v0pJzR3ezsbBdO2fqlX/qlLvxqofwZQN/lLncpP/ETP9ENUqSzc+fO8uu//utHvf4bGhoaGhoOB9p0YMNhRX8rF2OQYenKPwOZoxl0YaD2vd/7veX444/vjGPGNj09/vGP3xfq6IYBiEHEM57xjPKd3/mdZdOmTfueXLsCAilnawFdy4MnPvGJ5bjjjutoWLkySGz6b2hoaGhoODxoA5SGQwrGHqMvht8wLOV/NCK6OOGEE/bfx+i+1a1u1f0+mrFnz55OF3e84x27bV3KFb+ZmZlukOuZAYzfrrBc2RsG8U4++eT9es+AR3rDINy6deu6dDIoMoDCV8ONEylTmUAA5+uUQVsBlYmjYUumukJWeqAPMiv77cxcQ0PDdUXb4tVwWPHyl7+8M+LSqV955ZXlZ3/2Z7uOreXvIujnN3/zN8vtbne7rvP3m27e/OY3lxe/+MX7Qh2doAeG4O/93u+VW9ziFl054uhJG/GZz3ymO9dkcHDRRReVd7/73V28DDJWKmOeC/vbv/3b+/Wf1T3nWf7u7/5uX8hrwSD7nd/5nW5QmXJ92WWXlWc961ltkHIjQ8qPMmLl7tnPfnaX//Kdsf6e97ynvPKVr+zu+a1U3m7oUDeck/u+7/u+smXLlm5igHvJS15SPvjBD+6vDw0NDQ1rRVtBabjecWPvxNcKg7VXv/rV5ZprrukMY0Yuo/vf/u3f9oU4esEwpB8H4xk/7jkG4d///d+XP/uzP+sGEfT33ve+d1+s1YPBhd5rX/va7nB89H/JJZeUN7zhDftCXQvPhT/11FM7g5XbvHlzOemkkzpDreHGBeWPy0CWUW71zBZA917SEBwt7ZpzWscee2xX7uPUTwO3hoaGhgNFG6A0NBxByKyrlYCf/umf7g7G/9//+3/LL/zCL3RG8tEORqEVFEahFZMMUHbs2FHe97737V+xoEMrTzEoDSS4lZCZ709+8pPlZ37mZ7qVLHnwzGc+c+gB+aSBB/Hc91cIG25cSDmSx/JcfoN7ZUfZdD1atjipg8q6gX0G5H7Tx2rqW0NDQ8NSaAOUAWhcdT5cMGhs5JmOaCWkk0Kj78Cz/u9coZ8+eMbPVTxp6wDcD3MgfO6XQsIn7aTLLx2MZzqgpJ+wSZ9/4q0VSdsVwnMcSKfPy1rT0lkCGuEfbcZEEJmuixz9a/gFfuGbHrmlkLCgw//qV79avvKVr3T38V8ODCPpCJv8Ab8Tv39/sJF0cy99/MSvzw//fh1KPvUxyD868o1h6Jr8uvzyyztjKc/oi4sBmfirgXDi0SXdf+lLX+r4TFoBXqJjeerKJSx54r9U+nnmCugt1670w61WnrUgNNEPpMmRKS5+8RfedSUkjnyim+iFrvhfV6DV1znkvv8b8Bt/fvHP74TvI+GVj76LXtKm2Jqc7cmQ54MYTCdpQ/iLbvM7rp9HQehxCR8M5mnC0VefPvTjrQTxQLnt1xP1cbWIzK74zG98DPKWMGvhsaGh4YaHNkAZgM5GI8u4SYMewykNoueepSFeDugBGml4udDyPI1tnruXRr8B5t/vxHM4Mx2kjtGSeuhx4ROE7dML0OvLmg4mNOMvbc4zfrkHcQb5XS2kL64r59sWaAMeIJ2T50l7KXmGIToJ7wG5QQfNoYsXWAv9AH/iRH99GqHN6I2uor8+Ej56Eb7P80pQBqSVOOihFb/ocC001wLp9MuF32TAh3vXyOi3lZDk7zB9DIOw9Cu+NJRT5YZMyVN+wkXm1UI5gMTjQouLX3hwH7kgV37cSmdQpCNc0kXTPTqeSZsDv4NDtX0maUjTPYeX/I5cfXlTnl1XgnBkFJZDM/GTXnSc30kr/stBeDoPP/04oZVr6ELuXZVDYZaqn+RnfCdc/MmVeP0wnkXeYYis4gA6iQPuhxn7wi0F9NQFNN1zwue8TJC8ENY1PMBSuuaPhiv5wq97DnIfGinfy0FYtLQJENp4D28Jw4V2Q0PDjRNjxxxzzO/suz/ioNFLw9ZvOA8l0phL177iM844o9z5zncud7jDHcopp5zSNfCMoYTtN/ZLIQ15Gmy00Yh8/Ldu3dp9e+E+97lPt3/d83RQ4nDCx3kWmsKLe9e73rV7Na0G3ncbVtuIkxNNtPAjTl/fGQw5lOzg8JlnntntO2Z4chC+VoLX5+IrYcn57//+7909I0j6ZLj1rW/dvanp9re/ffeKXVt4+nzRPayUJpmETZocec8666xOX/LVfml+wqUTdC/uSvrzHM/i4V868gNdurrtbW/bnUvIQEN4Dh+RYRCeo4Ne6OMlsi8ns2fC0tnNbnazcqc73alzzkig41wFoH8oEB3jgQvv0qeTu93tbuXmN795V0aFk//9sjYIfCb/omP6fNSjHtX5RQ5ndD70oQ919/FzTR1yjw/6XA7SwFfCJ777POPwRDb01I+HP/zh+wdbwEj2UoM+hqUvHQ5tVzRdb3nLW3blRx246U1v2smNl9S3xMHLwYT0Uy6loZ573bJ6qI3RBngZgLQ58vRlWg0/wiSO9pT+yOgtafe617269kX5pa/IC6uVVT5EDrTDJ3k45Ue77q142gDyGABwntOza5/PgF/KNB4f+chH7vcX5+KLL+62GqZ95id9cg7SgqSDJoc3Hxz1HST5X/vnjo4BhPh9ntwPAr3Ul/Dp6rd4KUP0grZ2MG2VvN61a9f+coXOYBpopOxHLm21vJMGh9dPf/rT5YILLtivA07aw+iFljLu6g162k18oY1PfEk3Okj46KKhoeHGh/YWrwHo3O5xj3uUxzzmMV1HoYEFDWIafmAQvfGNbyzveMc7ut9LQfyHPvShnWGuAwCHn725Skehg2NsMWr7jTRo0D/wgQ+Ul770pfvlzwwxI/4nf/Inu0acntJwc2hs27at20f//Oc/f/9MmmfhPzjttNO6NxBFz2QUR7o6Hx/B8zE8B0CTBqTT8bait771reVNb3rTirPFMPgWL1tzyEE3D3zgA8tjH/vYrkPyXLi+/snx/ve/v3tDjPt0WMshzxkhT3rSk7oBIP0EZJBWZPv617/efdmeTGspc+j/4A/+YDeYVYbQlX8634AMOm4fq7R1qC9fQCb8+eI+XSSMsvLHf/zH5bOf/ey+kMPxsIc9rHzXd31XNyDAe/jHDzr0dtVVV3WDwre//e37y8M+CpgAAKFYSURBVNPBQtKjA2XT90QYnzHQ6MA1+esDlO9617vKf/zHf3RvdBsGtOTdd3zHd3T3dOQqf+gKLX4G5aljDJpPfOIT5f/9v/+3n6ekuxwS5glPeEL57u/+7o4+PqX1h3/4h+VTn/pUZ5hqH+SP53QoXXHlk/AGvOQRNjr+2Mc+Vp7znOd094HyIQ46Bm5PecpTOqNRfYx/+JeH+FA+HeKXj9I6mJAWngyQHv3oR3eGsnTpl4sxGXhrlbeb2QYH4XUpiItn5YFR/P3f//2dQUpO6XChL5x8/O///u+uvGrTVqL/Pd/zPV2+0Ts62lrnhwyEGdHKkYGJ9Omy3+6h/eUvf7m88IUv7NqBDDL6+JM/+ZOOX/7yVT73ecK/tNCVvjbRSxvoSbnyvA9x0VCe9BNp+/iLTy9+0wMdv+IVr+iu+E38PvwWxzeCDG7xgU/91W/8xm90+XfPe96zS68/MaOsqVPSpJePfOQjXb+jfvaR9uwFL3jB/vwSL+VCWnTrnv4Shv8v/uIvdv3FMKT9NAgWn8z4wr/4oa3+6UPSfgrX0NBw48RRv4KShl4jaEDi1aCMco23BpA/Plw1/sLr/Did94Mf/ODO8DDDPwziGfCYqUMHDQ2wTt0h6Ec84hHdW08ip+eRm7Nqw3D/3Oc+13UywHgywDGoATylIxXXb52UGXQfsmPUXnHFFd1z/PRhoMOgxRMa0pSWjtUBYUahwQn09RGnAyGbGWQdpwFHOibPB+Fjd31/6Xjbks7zAQ94QKcLOog+pBmdkMnMp3Bf+MIXOn1EnsG0/BZP5/kjP/Ij5elPf3o3M9s3hITJVfmSpnwlzznnnNPpgZHZp+2ewxc5zXiSnUHAwIzBE9qRI78ZN/LETLRyo9NN3uE3vN373vfuDKr4CXPeeeeVb3zjG13YILrx9iCHuZNfSddVeRDGPflTdu9///t39JSN1C/h1gLhOXygj1eDI/lpsJS3+YS+e2GATPLHLCm+6e6LX/xip9fwkas6yWiOLkLDc/JxaPkdOcmV1wxDaC0HYTgz+fSPbtJktNGX38qggYSw0iJ/4ktfuabnfnzGMmO7D88ZiT//8z/fDU7S7gTuw1N0LF3tDrqf//znu3B57roWoC9vyKAsKjsMSfVU+5H08Zm84/DBqVN4Ee9//ud/OhrCeyZOZOGXe6vFXhNtcsbbn9AVPvGESzr4kg8PechDuucGENIAYaP3wAqdSQJAhzN5YtBiIkR7mvxSXjIIQZtTP7W3eO8PBDzDpzKtjYLw2Uf0lLxw74UXVhOE5e/qmfjK0S/90i91bY7yEn7AlawcnvGunlhd+OhHP9oNhNCLQzO0DUCy0qVe4UvZ+6mf+qluQky7L2zSw2cG1+LrC+nBq7oNKtDJM3EM9NDFFyRPhEEHP/In+Sp9byHEMyTttJ8/93M/17Wf0R064Jp0+WvnDORMepiAMJhK2IaGhhsXvrV1PQqhoQQzN1YSGAgaXo2sRlHDrHHlNMbCexaY8dLZ6kQ1uIMQD9KBADoGGGay0qFIx33CoRXDwRYLDThDxoDGzKbOTAcLGnVxIwvoGKQtrg4whsAg+nzliu4f/MEfdJ2UOPyFC5JOZNM54Y1hw7DzHO+rAdq/+7u/2xnskQfvfXnSQXHC6Hh/5Vd+pTOg+jrHo9/hSz7+n//zf8qDHvSg/ToSRv4Jg27C07NrX2+//Mu/vH8QKG3+kcuVzPLCgDF6AtekF745afMT7773vW+nL+HQhcgbJHyQcH14ztgwIDB4C/+cezTIGTr4ll+ek82bqhg+IPxagS6a4rpaNTHIx0vykz/5hUl+JR4DAy9WIBjF6oW8EFYcSJzoMPAbHfKJE0T+AzVcpJG0ozdAkz++hZFmfvfD4VfakVs898NAToMTs91JN9fkRww+fuDegODJT35yZ7AmjQNBeMQzo09bJg+VS5CWZ31ZIfd4IyujUVx1zrO0kcIkP9BBO6sQ/NAP7ykT4Sdpe669s5KrfKg//XhLQRh8W8XjQBxpSMs9HbtKJ3lIdrP5VjE9w4+repN6zYkrjT74Cx9/94NXz4QzaPrxH//xrm3u19F+WPz3de+qrGif1dvoIfwMAl15ge8MhPgZQKOVfE4+0oOrNA0kxdE2h7foTtw+z+750RE+uPyODhMukI8GUvJGW9EPI36fpnQheWoCR1kwWEQfEr+hoeHGgWt71aMUGkHbnBgJOkENoQYvDSykgXRNA+uZxlljKR6DWYM+DMKmwwpdHXU6Fp1COuJcpSNO0mEw/+///b+7D2Ix5nQo+AFGXngUBw2/xePHmDFzloZ8EOlkwqPZMZ0Hf3HSmaErXekBWRgkePVMJ4PHnDFIp7IcDDZ0tNLCMzrSky5+3MeI5TzHi47VjCjdR7+u0a9wBnMGTHj0O/ILg7fIEb1FD37LV3r+1V/91S4tvCXddJwGcDrYGBDCoCO+7UZeC2yG29YUfujnuauzIWaGgV7Dnyt6XB/hrw90DMKUPc/JiUdx0cSHffFZJeGPX3BPN7/2a7/W5VfSXwukJ120zW6qR/TmN3qRy+/om5740SNexceL32bA5Wvyg+Nvi0vywLPQQd9veZrZWb+lR/aUB+nh9UCBRq54shoi/ciZ5+Ce8yxy4CPy92FQxmikhz6t1LOvfe1rXd6pB9F1eKCXc889tzMgk+drBRp4VA5+/dd/fX9dBPyA3/jCA7/UpfDBz9UARzsTnXNoC+u5lTWD/gxcpZ0rGpGxn0/kQiNpqjNPe9rT9pfhYRA+cG/FMghfaHnG+Y1e5AT+Jh8MHiIfhMc++ulB8lk4+SgOnQTCW3WyHc0KQvyETzkQh0OLfsT3XDi/M3hI/eGnPA5CHLLRuRXIyJ42MfKIjw5/16TjN30HCYdHskkzfKGd+CAMSI/zO+FctRcGaeJAwruq79otK2a2MgofHYZfK2VWoCJ/Q0PDjQtH/RkUDZuvATM2NYwaO07DzTiwf9irXjXG+DFzY3YtM4CcDgBv9sf+/u///j7KixDHPmudURp2caSrwWVUOe/hLIvtLcLbevNDP/RD+wdMoaNhdhVPx8DwdQ7G4WDGmM7UNhGz88KlwxIef7Y55ZB0QO4/+qM/2t/4i4M38UH6tlO97GUv667ywzPbMwwAMvuXDggdejOjH+OxD3T69D2PDoW31/w///M/uw7KM0YNA8MMbXikR8/o4//7//6/buuNtNHlJxzd/dVf/dX+zkt6rvLVHv7Xv/713fatPCePwQaDAW1+4d3ZA+d58Bk67n2fJNuwIPTtkbaFLzLiyTYmhrfBsLh49NzWwP/1v/5XFwZC/4d/+Ie7rQ9o83N1foGsffTzD10Q/sILL+zCM6STD3SsLKIrH4WXlvDOgPjQofu1AA3OgNasLmM5ZVx6yhM9/+u//mu33cozjnHiXJatZoyn6NtVWXZ2xBY4eqFTYdDDn0GtDzJCyoLtRWbm006Qr1/+xOPyeyUw/G3nIUfKnXbC1ho84YVxKD1Xe/KliX9QzxiQGVh5pq6HVvCiF72ok81zdMmjXv/FX/xFty1IXH7iMcgMRs0ap57yF852TKDbtSBlQNlk7NEPPaEjXTzZGvSa17ymyxewaqw9s+1OfcEL4MX9n//5n3fbb9CKI59yatUzBrzw0jIAe93rXtedRZJn+GGAa2czeANh8YQ3ef3xj3/82/LTKouVj6SLVnQFtruSxVkweaid0F6axc/WLTInn5TZ5z73uV0eoSMOuvSmD5BPfuMN9AHKJj98oiPfkz7+tZnKUiZXwFW60nO+SL1Fg+zaPzLhj37wICyaL37xi7u+g3/qnDT0QyaKhANhPQd0neWj82zJVads6dIG4pkTDsjxN3/zN/sP/5OHDOhJS9upXSFP6p+zMtoUYTh+XPRA3t/+7d/ev40yz+hYH+EMoN/CoenckDJqZbZfNoXXfvbTaWhouHHg26dkjwJo9DRkGjQNso6GnwYxDan9/hpQg4YYOpzBgFlARjikw/TMDBUDrd8gD8Iz8EyH/6d/+qedkWKmXToMGm//cT5F54E+hz+dfDpIH40TRkOuM8ODjv4v//Ivu0PuwpAnHa17B8SHAf1AeGmlA3BglGHB4OWPR46Br8OgB/4xAsRjhOvsVgPhpckItUXkX/7lX7oZM7/JYM+/Q+UMMPwIz989XTAsom9+AcNX5x758aijM3DSAdKVOOLi3f5oAzjpSkP45JUVJbL57Up+YAAAP5AHyozD58LGec6INEMtr4C/8PKU0ea3NPNstWBcoZ+4aDLCbFc0MIjOwv+rX/3qznjgz0948tjXHkNwLUDT4MRMqBl0aaGNH7QNMmxlcw6A/vmBQ8gGl8qW9PmHF3n21Kc+taMFdCSv5BOHDvopC9BPV3zhPPM7uknY5dAP75o0+rTi15eTX8oBPzw4YJxn+OGX8ggG32TzPOVBHAMb55/4eQbSOv/887vtkNoI/sILY7AH7tcKPDP+TIqgFx6VBe2TA+YvfelL968Cyh+DL4NZW2zUI+FjGJMnKxz0EDBilQ8QLu0Ygx4d7Rj+ObIqu8973vO68uE3oJc8VFej75WQtBxUNzAwmAX0yMWQttXRbL1w5HHlrMDG8OZPfjx6xm8QqVMp667kDT1+eDfYIFeeoevlHxzZxVNm5IG2Sfun7UBfHFd5ZBDnnozDkHCQPNKeGnBoWyOP83wGRs6xRd/i0pF4tskK6zd9uBcOjwmfOsclL92LE54hV2epAH1OOJM+JncgaeBf/2Olt/9iiJQ756CEk1ZDQ8ONB0fdAEUjqIHTUYCOWSOXDkUjZ/aPkc8vjZ4GVlzgz1AwgOAnngZS5+zAeYwOrg+0pJ1O+K//+q+7mXn00piLo+FlqOhE4h8H0mXMS7v/jMOLQ+cGVn6HB/5m2wchTOQKdAjCv/KVr+w6dUZ7OqfBNBnkOnnpmGXELxmtrgzKPwzo0UXeUBVDDg955urAqhk/QFfaeLJ9zW9OOOmDmVdh0pmhw9AysAtNiBzk5RgIaHAJY8uSe3wJk3s89mW0GmJbl+do9tMA/NJp+AXGvcGUTj/h1gKD68gQnhlcZOz7x/ltsMDI9Jt+yBE6a4WyDrasSFtZTl4w+Mx0M6iBziJ30hLGSo/weHHFl3x1LmwYluJTPPQj63UBPrg+wvsgpJWwS4UJlG/h6SITI36TSVwrNMkbcO07EwJm/4UVh5MHw+r2aqGuKi+pK9JhGDMIlWd52i/vnuPbTHpWsuKnflj9SLkAcbSLnpMf8K2NsjrpXvyUWffCqS8G9v03nyUd5cMZvuUQfvCfNxpmZdYz6ZEJtHF/+7d/u/+ZeO7JLU3hwvtyEFe8pWDFyWQA+hB5X/WqV3Uru/QeGXMVRr4brPELyEUP2jqQf/38Ce2khX+ru1mpEmbQmTjQPogTOvTkbKb2fRCRVTj3+Z3rSkidB32e9ll/LH50n7zA8z/+4z92v/EEwmgnErahoeHGg+V70xshNHQaOA2aZe0YZmmgNXw63XTKGvw0oOC3RtVsVl5hqjPWqIrb317V79CEA8809Dr3D3/4w108TuPqCugLH4M9/LkKZ3leYx7e+i6GgTDCJg5kBnM5oEkOHeLb3va2/XyjmzSEidOxW2URri+vpXhbQVYCHeswyYp20sNz8in8G6DIF+H4C8twiGHl6jf+zQ7q7MhhQOdq+0T0yUUe8eLwwg+EkTYjAE3P+ZE7PA2iz/dg+RHXdj6zgd6Ok6+Uxwj0POFyvxLChzRSlkC6eMaLMKHJT9j/+q//6rYucgYJmT1eK9BThxil0uKkTc+2xsQQortBflw5qywmBSKD+Fz/7EAf0SfkPryHJvTDrRUHogvoxxuW/nI84bufhxBdxAnzhje8oStDyo38c6/8HAik5dxPymr098///M8d/YCfvAwfqQ/Sln+e80sen3322V0ZIK+VIuUD+ElLOBM0wroXn3/kl4a4nhu0ZTsX/5SxnN8ahuhZOPGsVEtH2+uZ9MBVm8FPfXTugZ94ruIyzlNuV4OkPQy2xdEb+uk3tAFWzemGn2eATmSOrrVh+PDbc3liy2a//RgG4a2SZPtsaA46PFjF9pzM0qAffeUw+ZdL80CB5lI6tM2MHuQTvWm3yJUy1dDQcOPBUTdA0aBraDWAlq3TGWqcXS3/p8MchvhrEM3uZXsVembaQWOuo8lgYRBoaFzF0bGk45cuWumAPUujK6yGWwfCiI5BEReIIwyDP52quIk/DJ4Fwhj8WO5Pp5fnodN39GbriVdRkkPa0jVw0RmvBGl88IMf7O5DE88c2Tk86CTJqXPlJ11+DI4cNAXxhTeY8eIC2/FsIXEvbvJPXDrkki4nDSshwikbrtJCU7qhb1uM36EH+GAsCB/+IXRd6dY2Cny52nKWsxn9fATprIS8erof9kd/9Ee7PeJJEzzn+EnL2SU6sZ2IsyXMoHmtoCOrJ+GfPskewyEvWwgf4D4uOnTWS5lRfuiPv48DDkN0HplCC/Ks73cwEFp9Wfp+QXjK/SDoJ/JlAJD4rmbDbROlVzoNvT5d27+UG1sGXeUdg63Px2phm408Sr6pw9o0Z8Hijxey4kcYV/WHDNJU1+S3Ni0DXhMEMcDVCRDPb/FsaTVbjz4awpLPfT/fpOe3bZniu0eDv3NdKwFN29AAz8oXyANpeY4W51n/lboc/mzBBKucAT76fPaRfBqGfl3hrJiYtOi3tdFB6EcHrtp++gPh3JsMklfcMJBDfJMiaJCJLoZBPqiH2kDx8BR+xTvYQDv6su3NWUPgJ80g5YSelHsvL7GLQNnXfuJ5KZkaGhpumFh7j3YDhwY4Db83wmggNdrg3myghllnpEHUUHoelwabA0ZdGlKdO4PZACWGepA0XTlbDoQRN+nw1xDnHkKDH6dzZozomPp8BWnI7WPuD5ASfzkkXTTMaIPfkS80+o4MwjCaolvh0TCzvhLw7jsBaEHoopOOFT3y0kW+Q+E+YSOnsPIgRpABSQYlXDowcTOYigu9/jYG/oDuoCMvYwyPaOHJvcOiDqg6cJy8CP94EMYVDZ2t+8jLrRVml9EMXbyYsba1ylkA5xMitzDSjIzChxdX/K4VeGcohn9yAkMKzfxOOoOgG88ywIXwgm9Gi9+rRfgAvB1s4CV0D4Q+fSSeFb6UsfgxMu3DN4DNFjfy0EdkozPQ9shPLuVvrWB8S5uBh4ayYaBBTvnhWdqg0OeXfHVvsOGMhMESZ+BtG5p46DgjgG/3nHtGpfQif+qga19HiWcVFI/8/Qb1vF8+hB2E8Axz6NN1jVzuxeW0L3SNpvLHL+0L3vwWHu+h1YfnkdFz91x0p01MXU2bY4KG3tHEY/hCIw481/bjQzzh0Ap/qT+DSFgDodASNrwNOukYpCbswQRe8I9nA1l5yE9aZPHqbNt9vT7bs+gtvAmHPzC4i74OBa8NDQ3XL466AQpoEDVyMdz6jZ5Dh/YiO/9hC4IzCc4ucA4X5j7O1gX0AA33/EJvEBpn0Nn2sVQDG9rD4NmgWw7Dnifd/jOzZ+mMV2r4yakTyUezQKfBGaitBEZWdLIaxKgfRPjXqQG+MwOcTtwrVM3mMtydnbGn2zY9b2CS35x96rZ06fTEJV904J5/Oktv0JGP6WQ5YRyet2pj65vO9txzz+220eAn5UJ89/QEw/S8ku7BthSDJXohJ4dHA2wvKjBQIaMZR2+lYiDhWRhwxbd44W0tIEd0DnhG0+Hn1dAjv/jiMNgHIS8G6QzL/yMFq8mzPqxUiEMP0Z288MYuZ0CcGXBOw+vFfXk9uqKTGNCJt5SBuhzUCfGVdUDHFhq/U6c8T9mSblzSXs5Bf4AsnjSUj6S5HFI2xWGcD0L5SDpoD4KfAddq25j+GZBhddM9nvp+KyEyJ48BDc6qqy3F+hyriPob/cxSzktQ1G3y0At6rtHxIJKOtJ35WQnCyhdlCd9+L4e16AHoFq/aIOfxtP9o0A9HFoNmLy3wFka68ep6337JChb+hMVf8qihoeHGh7VbJDdwpMHWKJp908i5j9P48XN+wpYtRqXZLU4DqXHtO3FiMLlqOHX64NkwSD8DgPATtxQGny0Vtu+/HL2lQAZvSiHHaiCcToLxwHiKEQKrWUHJTF4625UQvpLGMCRPhLXVyaycN6XZh+7DaLb2MfacybG/3DdmGAryWz6Ljx9yJW+jy355sfKTA+nxC4RXvnS29sqbEceD1RXnlJQz5WepPOrTWg7051WnGXT0V5PQlyf4sFroi/oGY/gwgDKQIqcwwrtfK/BPd9GLNNEx2FhNGRInOrb9bRDyKGEG+TuQ8n04gN/VwnkSW0XlQZA6xdGnbVheM2s7CyPVt2Zsf5MORw9xa0X029etuhzaAf1z/bRW48iifLiHpJM3zK0G0kVnWPnwxkB1qc9rH+JaDYClwvQhfLBc+Y08a0H6Fi76UX+1O+otPWl/5DnHL/d9h0d6dCUTPpdaacyAVtra9ZUQmV1DbyVZV6PXAB8ZLFplc/bGhBgafd1EJi9/sBptsG7C0Mtpco7nQPKgoaHhhoOjboACGjYNosY+SGOXxjZbtzTScWm0+06DC+6F13Cm8RzWgArPX9iktZoGfpA/8YdhGC1+q02D0cDYTQe4EnSo4ph5NIsvHXHTGa8GfeNsJQyj3ZcPLzpANL3lx0Htxz72sd3gknzCJT0GgN+hRd7oIJ36IISJjOj80z/9U/e6XDoL0BCfPvppoufsio/ZWanJCxWuC6TjLWoGQM4dSRP/0o1crsp65NXx6/StIJmdNwsduQ4EaOMDpK/uQPyWQz9Nhsog8HpddXSwgZ+DxRN92UvvTJD75JXywsnHlKfkEQPNPnwD02zR4t+vE6uFeCn3oeMtYnhRxofJmbCrRdpZtBJPmsrpSiBT0rNdcxB5w95S5TfxPVtNecRrn0/Ifd9vKfTDoEOHQc4oAn655Ku6mXs0uP59HHn67VNkVlaGyQ9kEleeroTo6UDK0mqAj0BaXntu0J32k190E5nJSY/acN9N+Ymf+IlusGIbWENDw40Xh6YVOoKhAdTgZYkc0hBy/GPkmt1KZxCXxnPQeSa8WT4OrWFIOuIkjCu+uEH0n4lzqEE3OksYxs8gyGyVSechno4tHdxqDBBpCL9a0EfyIvoL8gwcHLVKgC9p4MVVnicMQzo65SfPGcnp7PmRwz3awqbj9iz+vo3jA3q2fHlbWOTOgCBxY/C5Mrx1tD/3cz+334Dg1gr5BWakzS4+61nP6va0yxeQbgzdyM3Pb3HNzts2Ql/kXyvIQt7I4Jp79CO/61LAlzDyahDkgsQXLvSWorlcWkca8CqvvD7VoMNblqxgkFFZk1fCpNzxj6FpC6UVubzC17O1gmGYdMA1q4gpQ8shbWjKIeAjdUDZcy+NfvkarFvL8R/Z8SUMh0/OxAi6S8VPeM/j+hiMQ+bBMMMQfa0G4cEAK7KknvgtTe0OnazkkifoyTuOX/Q9DH358zsIb3GDfrAafawFoecq77wW35Yu2xmd64PoCQ/Ja/f86U1bYTVc+4nOavMjcg0Lf7DlbGhouG5YbAWOUugUBhsqH4hjONoOw/mit6+6r9b5qq1tP2lg++g3jq5rQb/xXG3cxEm6K0F44WKgBGQZJg/w18mcdNJJ3VVHmbir2VIA0lxtBwODsvR51XEZMPk4YH8GmiGFVzzpEM3AOYxsNUM+/9iP/VjX4TmfYkVC3NUCfYMdr+61FcEHNA1WDFzQopMYcK54ifHubIrtV3hbiw6Wgm1n9m6TJQavQ8LRmau0+3qR3wZza5G5D1to5D16jCgGxPHHH/8t8vTzqI/ohvzyDQ1hOff5oKbfB0M/BwP44Q4m0HNA2wcQf+EXfqE7M+TbGPLTigYjlG4zIAjkmTaqPzu/Fng5Ab1G3/LBlsfl0Jc9+e6Kl9BxL1/lLyNaGnjnPB8sH0tB2LhhA9h++aCfYfB8tUhY1/CHdtC/H8Z///mwdOkXxMWvySx9jr7DVTsU1++DlnL6Ks7EyFJYi/zQl2E1WCv9PqJDbYgPUhpwaLucx/FqafpRZpK/yZf4+fiwNjTlaiWIIw+SDw0NDUcujspaqnHSyOVL7f0G2VuP0tExCtLorbYRFscM52D41cY/WFhrJ5Pwrs5lDOplKQhHNtup+o0+P/o9VMDbIH/ylP5to8prdvGh8zKA+Nd//dduQOIchg9Qmq3TMTKiGFjyTd5b+RBvNfILk07WPRoMSt+QcTid8aDD9UIFr1XFB9qJg0fGCb+DAfTIYrbWW3IcujVQ8ephA7K8klP6ZOXc2ypkoLRWiGugnwEXXdNBPp62EpJHBjXOEwwiB+cT7sYOMsoTecdgs0Ji0sOAxcSH8kNXwtGJsAZ2DtGnTK0FXgUd3cbo63/4bxCDeZA4eMpg04AXlEM85QyIsOFRWRNvJeBNHDSHlQ8DLEi4g4Gl+Or7H2hZ7Nd/V9srAe0MQj3L85WcukzP5B+WXyBc/7ocVpMnfaw1/FJI2SAHHfmavAPy2i3Oa6a1BdELPYHy5sU2/NeKg8V7Q0PDocFRN0DRuGnMNE7D9rw7F5DZPx1/Gn5+riu5vlF2MBrAw92I0g85fO14NYhR4tsNdAXi8883OpaD9A5UxqU6XAZWvyNz701Xr3/967sOnb9OncOnMHjAd//At3ArdXziKhviCItGID7DTTqMTas6VlmES7kSJl9pzta66wL00EYLb9KQPuPHG7+cl/HdE3JHRveee3HAWiHv5XPokM1s/j3ucY/uN6yUv/il92Ez5OguheWe3VAhv1I++uXJ6oq3HtkK4y1b/OWvcAaE6qv2aq0wiZD06JPLa4FXyjcQ11sLHeL/gR/4gfKUpzylPPGJT+y2DKKlfMSwTD1TJ+5973uvKv9Cw0tLhtWP8I72UlhNOn0kPLoHG5m8wjdd4JuuIgcM8pu8GObE0Xagow4PQphgrXo4HMAf3vEWmQLth7JCZ95298xnPrOb+CEzJyy92eqY1buVIDwMC3sk6qeh4WjGUTdAScPk6ou5GiwNUwwBX6/WKGo002EIkw4w9xpN10c96lFdw8n4tDXDG3Z0GIMN4FKNJ38OD0dCA4kXujArhR/yMnAjf/jkIpPBiTd2CctPWPe2F60Gobca9HWV9AeBn+RnzoFYMemfL+HSyXH4RdMbtxjK7iNzH+Hzu7/7u7tXFf/BH/xB93Yl33/I1hgGlXDZHx5e0GNk2jef9Dnho+fVIPziMx8rc9jd/SMe8YguHeknXRBHmSW/FR4f4hSOfqQvrDc6rRV4ftOb3rTfmCAPPwOUzHhn4NLXQ/QovHuGLT7Ab85HU12jq0HwP9TA93Igmzx2xSvZufDGj9zoCOd35PzJn/zJrgw5NyQPbbMTVhjyCp84HBpWI57znOd0v/t6ZcCvxOsw+O5T0hEfTQMdH8xL3sR5BskP6ZLlSU96UnnCE57QtYVxtt4oa3RhcC68sNLhZ4Utb/lL2uihLS1XZTO6s50p7WrS9f0VtECcYejnQ2ivFeL16QAehsFzbqm8sL0U1JXo8zGPeUwnKx3RWWgk3eiF4++1u/nIqy2lBoT0ER77ED7X3Cdcfl9X4BtN8qRsp+wMInx4cQkZrBByVncNdOmNi6xpKzh+VoStsATSie4851JmIHEDz4TNfUNDw5GLo26A0odZyRgTGkJXHf0znvGMrqHVsKWh5YTRCKcRtDyvc9DZmrW3zYlhlgay3zAeKA4GjbVAejpJW9189VhH6jeQi+x0Qy/0YeabYaWTEM5zzqw6Q3w1OBAZ+3Gk1weDB6/yCo/yWF6Jk040nRQIi3fnaBgLKRP8+uFAXOHluVlrW6N8qJB79KMf3cXplxHGnisnff50JQ2/0cPjYHnp3w/Cs/CWtG95y1t2rw02i82Qo4NhwJuBSuTKhyz99mytkI4zLgY9QD70+NveFiMTz8mP6BY8M2Ov7kS3yT+zpeJxMTiuD+AXhvGAT64fhv7le/gmNz/yCcdfvdJWeF2wNxO5nn322fsHieKFtnhx9MYvNAB9jt9aIY6PfaINygH6th0m7/LMPSTvpKn+Ww1JvnNovu997+toudcWZCtlaMHTn/70b2lfPBcfpBVDVPlQ31Jm1R1hlY+Eh+TBIKKXpZ4vhcgS9O8BD4PIW8Xw2uctsE0v/JNROOXAoM7v1E006Mp96ihY4fcWtzvc4Q7diqdyw0/5SnnoY5DnlbBWHeFPnQ7wj4bJmmG0hOfkp3Kv/bQl1/0jH/nILg7X10H8yMI/8Jse6RMPnvFzr0yJA/zpNjSiy2H519DQcOTgW62vowD9BlsD5eu6oNHSkLn6KJR932nU0tCBTkA8Bq+ZHx1DH4y1vK1F/IOBPs+HGnjGv47Boc3sFY/zXAfAuf+VX/mVbouSToKjP/y+853v3Efx8AKPznrgQ175rbOysmDFQb6Ed0h+2mbhOynerpVObJiRL77wDi+7jxEhDd9XYdShLz6gQZ/pNJUt4Tk8oEVvMJjPeB8G4cSxIoS2cDEM8M/YYTiiPYikff/737/jnQP8fuELX+ju1wIySecd73hHJ2PSxAujw2yvMJw0yCx9/ErbN4PMpMqHxFenbD1SN6PHw1kH1gJ8kdVqGbnwLm/cGzCmDCZ/gIwmAGx94kdu8cF++5TThPc8Tno+NkqPee56ySWXdPdrBV6zAiZN+kZPfnkN9WD7Fn6lzxi3+pM6Q1Zycupg6o803v72t3dxpZPyoC4oH9KQtvjgWcJZhTO7rl6hh4ZwBsTKB15WgjhrRcod4I0L0PN8WPvQ/1J85OlDuTZgE4ZMkccZonPOOWd/+0GfdOA5P7owUKOvyCMefy/j0BYIvxzWoofV1jdyOgeU8K7SwWtfZwG5yaf9dJ/201X7qSwln9GOLoQlq8mY1A96cU0ZiPzCi+uqb6IzK5QmkKST52g2NDQcuTgqByhc4D3sZvc0VhqtGIvese5gqhkejWAad+Ee//jHd98gMOOuMxZP48jIsFdWQyqN1XSea0Wf90MB9HV85GU42L7mYLlD5zqONOxm8RwCt51K+L6h6806zloM66CvKyK/6zBdSJ+h7Zl7Th7hXydltg7S+Xtu8GK7RIyxdHTDOrDk93//9393+iB30jFr+OxnP7tbzYjs/EGZUKa8pUYHyx8t/jnoC8NkGga8cbZB4Vd6nPJrVc/BfLQHgUfb0hjPyrW4wimrtvusFXTIULCNh5EcXcQQMLvra/a+jC6d6Ny+cca4bWn0Lmxkcm8rHLiPC9Do/w6i64OJYelIH5IePaYNET4DFHntbVX8/QZxOYfgvbAgbQRa7q3KKYsmQMTh6DJOXTQATZyE8WX2A2lv8OKDeVyfnrQYd9q5vMaYHOCZ1VWHmLO1k8wpS7bOpuyhJe7rXve6rl1AQ1hx6IpRrgxYQRNfeM+VU9u6bF1ktHqmnInHOTSNbtC/D4b5HUzgaRDkts1X/g3LD/I973nP2z9pQZfR27nnntutgBq0k9FzOrKq761eXnYhXMoZaEN8QwedQBpA/oRbiy4SZzXAp0EXXvGVNPULVqMHgV9417ve9W3tp7qi/VQHUhbAM7T1Oc7P8Y9+wGu5o6vw7oq2MmoyxuvUDQL1ASnHaDQ0NBy5GDnjjDNW3xodZmjsdEqgYVtLw7kU0Og31n7f61736g6fZvYmjaNwrjpMDvCTRlVcz13F+eQnP1n+/M//fH9Y8Tn7s7/3e793v5/G9IUvfGFnoAzC88jp6o1TWS6XJqfjlm4a6GHQ2OsIQ0t8RogZT/fxs3LAgOynGR7QTwfq6pWPmbVKIy+c38LwIzsD2P5w8T3rw7vu05GBzo3R5XfSXQ4+SJi3DAX8vGYT3fDq2x4GkOhxeZaODZ+utuIw7Pknffd9+cSLzt1HJmcIdJrSE76fH7a3ZYZcubK/mnER+RLeoJbhkU42tBkkZsqF54cnxuKHP/zh7rn4/BhCziRYMQHhOc8ZQepNXsVqUGAwIA8jB96FYeD+8R//8f58ORAwAqyGSANv4CodTjrJ56QTPeAjcbxeVD3iH3n6fDHYvCa6Dx+pZHyAsOKAdHO/GogrjsHTwx72sP1pc+qJ7VChxy/ymaU1AKVX+tWOkC30+Kvvf/M3f7O/nCgPaDJIhRNGHPRdDfgy8CGzciSc33255K9tqfTLfy1AS7pWQ5SvDIwiN/nc4zn8hQfwPPwIY+VEeSY/8E++Mlp9q0edQysIz+pM6pIr5FnKgt/KB8NTGn5HD67Ozn3P93xP9zvw2m26x/cgEjfpOFv25Cc/eT9/eHnRi17UrQgn3yC0tDOnnnpq9yz66oO/iZzUW+kJZ3Va+Uq64vEPDbJx6hIe0NFOic/xk99eRW3bGAijTIHVrxy+R9MzbVjkXQl2B6jPARrqhDQHIa/oSNnR5mRyRljpeU4Wr3D3m27R8/uBD3zg/ryObKAs5CUr2ra0n+JGZ2DlyDku27WjP3CVjwbz4iV/0FdX1K2EbWhoODJxbU0/SjDYKGnsPvKRj3RfBLdtQMOfDiENmjA6CjPfGlPP+h0KY9d+aB28e+H7HU86jaSNfr+RXQpJH8IHoMmthMSF/v1ywL+Blg/kpUMA8RlI/PAfRKZ0Sj44Z3AifJ4th4RbKmyf7+gj4blBPfAjA0Mwe9j5ybMA//JSh5pOP7q1ivClL31pyfwRVxw0Hdg0sAC/09GCTlUHb6uDmWjP+0YZvv02YDOQwQPa0a2rOHGDiNzKrMGugQ4aaLp6jh8y4gEvjNwM+D2ThvAMAYPZPv8HggsuuKAbOMRQThru8SNtuuMf/ZItssojK0Lq0TBDaBj65WEp/ofpbxDoxAWh6cq/nzeB53Ro1YCxRD5ykC/00pbQ/yAvVggMQkLf88RllMk7q7hWAKPPflmW/wY5DMDBurBaoKuuGBSSQdp4kE74Avmn/vf1nGfC+eaPCRD1L4gs4C1yz3/+87uyGt16Hv2qk9JAM3HwQL/0Sj6TLM997nP3y5pwMKhbiE6HPRuG8CteZBsGYbh//ud/3p8fw/SPxmC+i+fr6QYt4nDShdAir4EcHSVunglrIICGrZXhpU8jcsQPnWH8rYSkLe4wHaIrPQN3+aR8SFd4z9JfcKkb7pWRl770pV3bB/hEP86A2QBL+TfRhBa6yRNh0LIDQhvc5829dE8//fT9aUXHrtrCfviGhoYjE8OtsKMIGiwNnX3YZroY5mlMNWIatTTy6QjAM/cMBDN0GtsYZgmHTjqYNNggPb+HIfQh8QbTDD/LIWHBldOB9OPmeR/kZqwwnBgUIA6exQ/Q5wCPZrzo761vfWvnl/T7adBH/PoudIbB8wAfeOjH45f4MYz8NsiyTYgs4tB9Okwu8XKVdw72/u3f/m1Hm0x55rd7oAfp8EPb/ngzutkDzl+YQfrSJr9nwliNkpatDklDmikXKSP9Z339B2ief/753UobHvyOnmMscCB+nwZD0V5ws9ryT5prRWiDe+cCrGSoR+gDfuiBDAlPLv650r+y4xwQ44vfUvz0n4mPbt8o7kO6yYOVEF0JG6OGvhI/ukse5l7e2qb3/ve/v5ND2DhxPRd+mDwGh9EXiBOIB6EVGvzxx7gzU27VwnP5vVaQiZyciQXbWr3GmH/yTbpo93kLTxyenIPwRikfQu0/47QpgM4HP/jBbsbbYIau+HEgvYBfygt/ZcK3MazyKaueDUM/b4Ac+d33XwqhG97DR3gZhDynL/Lgsy83J15WeiB6xJdXftv65nfKhnthOfSSpoFb8iJl5s1vfnOni/CY9Fyl2eeXf3hYDuJKN2U9EL+fP314pq1VhsNj0kav/1tYzoSfPLXiqq1O3wnCuu+30+Ca+7SfBmiDsolPn8oLPYRvYaRpMNXXbUNDw5GJlVusGzk0Ujp8jZyGy6uCLZvrcDRuGjqNdTo+4TSSntkWYzuDTjcGUr+RTSPPkBUvnRD/pQyqwUazHw/E1Vmt1LjiUdwADb/7DXn/eeihL4wlc3vhfdGX0aGzoKd+JwHkcB7Dsjnj1G+0OIZJPw3x+PNLGOjzNIiEAfH7+YFO7gGdpCesVa3f/M3f7L6BomMSNulGDnF9sFGHz8gXLoZT6KIZHtPZeUZWs9+2m5jVZagIS1eeoxFZA/SjL4OT8JvOOL/xkHtXDv99CC8d/gwlX7Anc39GMVfAuzxRdq124JmBa5CNVj/sWhBdJv4Xv/jFbh++cwKMZwOVyBD9x5GTPgz0XvGKV3S/8SlsdD4Iz5M3yQcuBn0f4WspWkHyKHqIXl05OgsiBwjrN76tHnI5sI5W5A6/0VGAZzpyXoX8tjwmn6WBRpy4ZEefQegFFVb7hE8btlaEH2mJb7uYutAvz3Tbl78PW+usvJik0c7hIzpDM21oeEfP+Rvln7yM7YTxTJzoFjwzcaAek5mewzOd9MPypwsu/upb0l+NfsJDroMY9COzLa0mCdQjz/tO2nmTH5p9fZDFCow+xxY0v/t6gMhIJs8N4uW7+qvNUJ89Fw7cywPh0YmuxBV+JaATXtFK/D6tPpQN0OboC+UVnSRu36GNN/Txpx+TP/RnFdDZwX5eCeM3WoH2lg60L3Qm/fCceMLz1z9ri+hcGO2QM6Ku8WtoaDhycdSdQVkJaRBtN8gys1d/Ogei4WUcmLn0ti6NHP5cDxXoAPCk8dUhmSk3A7USMkAYbOT7sH1E55AOSLjzzjuvMzo04DqJ5IOlca+2RNcAhg7oQt4kPuQa9NNe6pmr9Jbi80CBL3Tx7PClvNRRk4txpwNLZ66TWy79dJ7LQToOoEvHthxbvQzwGJ4MMzPtyot0BvWVDjPpLMdL4gwLw8+2Mm9AUn5t8yKfQbezOjEEuOuK5fgA+mCg2afvrAV90D89KDv4oY/kEwzS8ntQH8LKLzIwejxneMQIQ0/4xAmfK0E45RnfocXY4R8e+zT7PAF+cm7AObDUU4aYWd/M/qPTz+8+HTryogUH0NEAeacc2QKHljIbQxQia2geLNjWqRxx+EFfWTaoV//pCv9koo9BPYev+OcaP/HUE/VFmSU73RkoKR9pX6QxSBvQCYY9R0t8kBcxqA8mwgPd2JanvuWcDYNavkk3ZXI5eLsbPbvaGibf6dtg0QAIHTSiP8g15aoP4ehAWVH+lOu1IHmEbvJ4GCJXyqT+QtmVp+o3GfDvWfgfBvG0n7Zn6XPlmTqjHBjIay+UBfwkLfIN6rbPj/xAhy6FH6xvDQ0NRybaAGUFSFNjqBGEdHDpCA4nT/20pH8w0h4coIAzOQYoEH+Nus7NVaMvbc9iOHD8QiOdBgzyOfg7cULjYCN84Qm/rvTHoHWf9AeRPF5KjqWQsgKRScfYz7N+moN+q01nKaAjLXzjJfT85jwPX9cVS9GJf9LDj3ITHjxbLQ8JG/iNXmT0m5x0DMImD5Ie9Gksh9DP/WD6wTD+pcU/PPiNVsIqf5BniR8eDYoSZhh94B94Hgfh+2AhPODLlY6TftL1u8/TICIbJFyfBvTza60IjWGQTmjSzXJhDwSD9N0r50BXKfPSJWPydjmgKRydu0cHDfdc0JdlqWeuHFrhY60Qp097OUR2/A/ygMZa8iB1hAsiZ79OLSdX9DaI0FktLw0NDYcfB7c3uxGg32C55zS2OgnXNGxwsI2BlZC0M0A41CBfOl2dRQxAg7T+jGB4SacB6aBW4jMyJd6hQPIpg0sgiwGXdMPnIK/kG5RxJdCTdMjPGVj7jQc0ImefNvT5uC5I/NDv8wLhg4ve+26tGOQ3NOLfp2smNcYWDMZdCoN8+S1uZIqsgWepr0DmftlcCcL2afo9DMP4Tzp9Y9Q1+SBO+EDf7/hxWV3jEh+txMk1SLzIeLARHvCVe7zhHV+Rdzn0+YpsQWRDj45CO5Bm9HYgQCu66dM9WBik70qO1Hl+a0mXLsgbnaQ8DNNx3y96cx3UFT7gQHWY+KtBX3b8hUfXDF6GyTIM6KjHoZN45OBPN5F5KeAjg7NhdBoaGo5cHPwe7UYEDWq/E84VdCIa0EMNjSgn3XTmGufDgX6Hx/X1kSsj3z0k3HKIHuOiz0MF/KTDjw79huRfnoWXyLEaeQaRzjm6S575DfHnJ1yw1nSWgs4Y3fAuHTzIu/gfqgFu9DeIDEqkiYeUo/ASHa0V4nPR5aBMeT7ovxxCC7/uE9d1NTwmvZSt5HtfztAfBmECeQl9Az16DPr3hwJ4jdzRCWR2fyVEH+iElmv8UzbilzRcU289C61hWI4Peg+t0DmYGEwbj/ySj35L2298rAbhU/h+mYm/30ljMP1BkF8Yel5Kf8shcSLXShCOi877aeZ3328pCEPeTCJx/NBA22/yr5ZW+qnVyNDQ0HBk4OC32Ddw9BuwfgObxjG/+x3GocRg4+x6MBtZjX0afEh6ZJNe/JJ+DIq4vk5WA2GXcwcbkQVt95HJ7/gPuuuClAlX6YHrsPvrmtYwyJ/IGF6Sb/F3xcOg3NeVn2E0pBMjKfqWfp8H5ehA0o4eXdGLzvsuGMbbMIQ/xgygwS/XlZB0o/vwEJlzH5qDDnKf8H0kjPir4edgoM9r0lSeYvQu54L+775/X1Y67+st+dlH6Ay6pYBuaC0X7rogPIRX1z5fyn/yfCUkDBqhA316uU/5SFhuEEl3qecrQZzET/rLgZ6j635erjXthA//4aFfRlbDD6ARt9o4DQ0N1z8Wa3rDUYs0/v0O3HWpDiWdTVxDw3XBgQ5OGhoaGhoaGm68aAOUoxxmpMwsBYxFvw1YBgcjbUDScLDRBicNDQ0NDQ0Ng2gDlKMc/e0HGZSY1W6DkYaGhoaGhoaGhusD7TXDRzkMRnxzwRtRrKbYV+59+d5b72BhQ0NDQ0NDQ0NDw+FEG6Ac5TBA8REr3wRxzQpKvhHS0NDQ0NDQ0NDQcDjRtngd5bCty+qJgYmtXgaCBih581JDQ0NDQ0NDQ0PD4UQboBzlsCplpcSgJAOTHJrPmZSGhoaGhoaGhoaGw4U2QDnKkZUTgxSDFWdQwH0Ozzc0NDQ0NDQ0NDQcLrQBSkNDQ0NDQ0NDQ0PDEYM2QGloaGhoaGhoaGhoOGLQBigNDQ0NDQ0NDQ0NDUcM2gCloaGhoaGhoaGhoeGIQRugNDQ0NDQ0NDQ0NDQcMWgDlIaGhoaGhoaGhoaGIwZtgNLQ0NDQ0NDQ0NDQcMSgDVAaGhoaGhoaGhoaGo4YtAFKQ0NDQ0NDQ0NDQ8MRgzZAaWhoaGhoaGhoaGg4YtAGKA0NDQ0NDQ0NDQ0NRwzaAKWhoaGhoaGhoaGh4YhBG6A0NDQ0NDQ0NDQ0NBwxaAOUhoaGhoaGhoaGhoYjBm2A0tDQ0NDQ0NDQ0NBwxKANUBoaGhoaGhoaGhoajhi0AUpDQ0NDQ0NDQ0NDwxGDNkBpaGhoaGhoaGhoaDhi0AYoDQ0NDQ0NDQ0NDQ1HDNoApaGhoaGhoaGhoaHhiEEboDQ0NDQ0NDQ0NDQ0HDFoA5SGhoaGhoaGhoaGhiMGbYDS0NDQ0NDQ0NDQ0HDEoA1QGhoaGhoaGhoaGhqOGLQBSkNDQ0NDQ0NDQ0PDEYM2QGloaGhoaGhoaGhoOGLQBigNDQ0NDQ0NDQ0NDUcM2gCloaGhoaGhoaGhoeGIQRugNDQ0NDQ0NDQ0NDQcMWgDlIaGhoaGhoaGhoaGIwZtgNLQ0NDQ0NDQ0NDQcMSgDVAa1oCFUkbml3aeNzQ0NDQ0NDQ0NFwHtAFKQ0NDQ0NDQ0NDQ8MRgzZAaWhoaGhoaGhoaGg4YtAGKA0NDQ0NDQ0NDQ0NRwyOqgHKSHUEdm3oo2mmoaGhoaGhoaHhyEBbQWloaGhoaGhoaGhoOGLQBigNhxFZqRnbd20rNg0NDQ0NDQ0NDd+KNkBpaGhoaGhoaGhoaDhiMHLGGWccsR+vGBkZKVNTU9393r17y8LCdWPVfH3nfM6j8/lWzFdPX/MIFnqBxLmWgh/fzsu3h/9WjNR/oyNjZWFuroyN1uvCYmodtX1pu/rdI7UiFjrKizyNVB0ZdY720o9cCx1Tiw86+h3D17rFf72IFQvzlV7Nhy7EyGjH83ylM1/DhZ6/HT3x+0oYAD4rkS7d8BsdBPL8QCHmYuzccTWdfQyupN/4E6tb3xG1i1e53Scr/V5fiGrDZ9D/jc1OhsWf34JFCRoaGhoaGhoajmy0FZTDDAb5aB2czM/PdQb/kY7RMduxFoHng43R0dFvcQ0NDQ0NDQ0NDUc3jsoVFDCbPld/WF3o/CvprDT4PVZ/dycl6jWrEfOVH7Ppq52L7ugu3nawtrGA6uhImTVAqQOVKlRHX7jM8Pst/aUwSDeY968KkueZTb8WfiG86K6VZ9G/S3JfkPju+7nfLXosroDEdf8k1k3xc0th8fniv8X0FuqgJLTlB9fpfp8b6VZY8JlQ3HBcu3K0mE4Xut6O1j+jC6P783e1WKRybapktHZ0rc/hQadW1+q6207/1+pxtfysLlRDQ0NDQ0NDw/WLNmV9mGHQNTe3uIpyXQdchwP4HO22dlXTfH4t5v3qMDc3163McHMD10OxYtPQ0NDQ0NDQ0HBk46haQRkti3Pic9XNji6USrHsqUbw1KYN3bz4LAO8prFubLzM7txd1tWf66txvjiTb3a/xnWzyrnozMBDR7/S2l2ve+qwcGzjhjIzN1vpLpSphSrn7EJZmJkpkyNjXXpWAsz475qbKfNTE2VhcnxR/vnFFZKkvjho8GtxNYQM43VQMW7LVA1bRwBlYh/N8epG6u+RStysvHBzs+IvQnqhG75nK9Vd1U2PjZQJPBtAzExXPiv9mdmyrhKarHyNzM6V0bHRTs6lgerIvnxYKDP1stsgZN1kGV03VfbOzpbxsYkyUenN7NhRxipv68fHq44Ww1/rhmO8hhsfHS8z9X7H9HTNvKlObzN1QEh1Nfu6wc8iDTS/Hc7bgL+TVZjxuWvP9BgwOTu0GD965w42pB737fQzqzBX83huYqyW4/myt/Im/0arvhaqHuX3uqqLkZpHysHU+ESltlDzm3YaDi36eXcoykdDQ0NDQ8ONG0f1AGW2Gngz1fB+wIMfVCaqgTxf6TNQmXJXfvOS8skPfrisq/cHc4AyXQ3cu55zdtl4wnF1lDJaxg0eqhE5e82O8sF3v7cGqkZwJZ0BynSNeeYdbldOufkZnXE8MTbWnQtZGLKaYctWZ4xXd9UVV5Srr9xWLvvmxWW26q5a5mWsGtsGQePVqLUdDI06/NoXezG9SBW+DVBmxsfKhsrvPc+5b5ldqAOgyneZninbKu1Pn/fRMm5QRHcM5mXzaFEj/QHK3qrPM251y+rOKiN1YGjkNFbpfe7jHy9XfOOb9b4OftY4QJFPeyofZ97htuWmZ53ZbSOT7uL5n0g2HAZ827dvL1dcelm5+rLLy/bLr+zyY64a/ZMTE/WaAc71P0Chv5maF3sX5sqW47eWM299q1Lrc9l67HFlXR2oTO/YVb5ywRfLh9/3/ipALfVd3hwKfhu+Ff28a/puaGhoaGhYK46yAUo17RbG6sCk0qtuz3g1WjetL8/8rV8voxvqUKSmNVeN+MlqzE9ffkX52z95TilX7SyTNVlGqhMIcyOrN0xjSIoxU3/sqAOLka1by9N/+RfKxHFbOmN+qhqSkzN1uHDV9vK8P/jjsnD1zm6lQ5zddewwu2ld+a4feGK59b3uXmYnRusgZzFl5s8wGCTQG0PbzLkZ9JF63X31NeUzH/hI+djb31Vmtu8o49Vg3TQyXsZna7h9ouQMSEwr99OV7+ma7m1q+o9+yveXGas59dl4pbmu0v7rP/rTcs3XvlE21NHN2IABjE5oLfrGZ5H2rjo4nNmwvjzgUQ8vd3/AOWVicrJMVR3NV8P6HW94Y/mfD3y4jOzc0+keQmsQ1/pXuesgLnp7yPdXvd3nnnWAVQdONa2u/Phfrxw9Bf17g9SpOlha2LWnlJr+Zz/+ifLet72j7Pz6xWWT8lEzZ3EQWf/U8qBc+Hew0K2RVR5cu7/7SBunpfQt6q/mzfrJ8rDHf0+52/3PqeWj8lxlHZmZK+tmF8qmhdHyzc9/sbzkeS8oo3umy1SlOTI/u58WhHbDdQFlcpTJDf4+UnCk8tXQ0NDQ0PCtiA19VGK+Gum7d+8umzZu6gZCVijGx8e6+5NOOqmcedZZ+0IeOObrYKePe93rXuW4OkhhEI/VtFxtjdq4cWPZs7saxAPYtWtXGa9G++TkxGLYOgAZq26pt14xvHNWRLyxOgCamJgoJ554Ynn0ox5dfu/3f7887WlPK6eddloXpo/BV/4GzsygOzE+UfmY7FYhxirtdevWlac85SmdvzeSzVZ9rhWzszOdbBvWr+/0Pl5pbdy4obufqQOgtSJnWGa77WL0NtnpzeuSMwiJHoP49yE+GTdv3lTue9/7lmf8/M+X7/7u7x4a9nCiG1jt4x0vP/3TP1XOOeecTl9WAOernAZYZHfdUAeAyqD8aWd6GhoaGhoaGm4IOMoGKAvVqrPVZdEQn66G9lwdHFw6OVa+MjFavjoxUr45tlC+UebKpdX/7O9+bNlen+2p94srF/vOI+z/5942qfi7dl/NQL7CrP1ImRmbKNsnJsv2jVPljAfft1y0fqF8Zd1CuWh8rlwyuVC21TR3jM6XPSNWaBZnyW236u4r4V3jI+WqiVKuqO7ysfmyu/7uzstUY3S8Gp7deZPqvBXMNrKdNf62Gu/SsRqnpnlRjfelyVI+v36+fGHLaNl037uV7/+NXyk3vd/Z5eoNk2VXlXHviE1f3wo8dOdEKn/bK62rqn4uqXxesm6sfH3dor6mbnNWuf8PPKlcXuPvmZooeysfZv6tAmXlI6ikOvCOfM4Bbav8fX1dqTqZL18ZnymX1zR2zM2U2YW1GdQd3erk1c4ad+fkaLlsbK5cU/ndTsf1qZUsaYNVBDx0et7nB1aNrqHvDePlqxtGytc2jpZtJ2wsZz7yweV7f+UZVWcTXR7Mj8v1mu81YXddvlthi8NNvS7sc1muSLr47KeNxn46i6WgOr9ti1uUj7521nSvnBovW+9x5zJ6mzPLxZsmy9cnR8oV6yeqLsfLVXVgsqcOfpXtXbt2d1v5DGbky0ItH/3SOmdgWZ2rZ4scjHX3i1saF3nEMyTEMNdxXuPN+9bPPnqLbji9vlsNEpa++nHzu/7v+HAd7j+cv/wWIrIMd577Vwd/+34tPpECXJvSIvJ70XmT3Hh1/kmPzhf1XitXFwZ/izzDt8a+lupSSNxB/Xy7i9z7dLD4vsLq6sOGhoaGhoYjAHqloxb975AsbvvZZxBWQ4o77dRTu5WHsWroHShCC/3Tb36LsrVbPakmSjXkraCsFuIHtkLNzM6UvdN7u7dgWeGwatJt69qXnlWW8fHxbtbcqhC/QJzxiYny/T/w/eVxj3t8mahGbfe2rrHV8xPMzs6V+93vfuVWt77Vt60WrQZ9uaxycDC3bxVoreh0K18rXSsNVsWslNG31RTp0dNIHZwmb/qgs/A0X8uDsFkZEv+ss84qT/7BH+xWvfq8Hy5YEZOn+H7EIx6xP285urOKcuGFF5b3ve995Z3veGd5//vf38nRxXXGp6GhoaGhoaHhCMdRe0jeqsjV4yNlenK0/NJf/WW5pt7vrYb6bFkok/X5pmrTHTuzUP7n7e8q//myfyxb5kaqfzV6q7Hn0Pbil8UZftwi3WoV73OLb9Tq1lPGJ8rV87NlR6X/A7/wc+Wku9y+bJuf6Wbpx6t8G2uYY/YulGN2zZY/+PlfKhun57szDqjsrOOFa8YXyqP/97nlzPvcvcxUXwf4R6/ZVd7/728qn3rvB8rCjt3d4XcDErw7a7Fu06Zy8hk3KeuOP67c7A63Kze7/W3K2OaNZffIXPdWsMlqqK4v42VqZrZM7d5bPvXf7ytvftVry8b5Grfyk5WPxdUTPJRy1tn3KI956o+UnVNjZU817q0mTdbwG2bny+aZ+TJ21fbygt//o1K2bS/rq1E/sW+g0c3m1us+kvthFn1nHRBdNTFaHviDTyx3fMgDurdSjdcBz9Yqz3//46vLJ9/x7rKh5kH4iYYHca3mR7rVgB2V3+2TI+Wx//vHy83ucZdOJ3S0bs9cefurX1c+XvU2OlMHaTW8uN3bzipmap6u27qlHHPKSeWWd71Tufnd71zGTzyue4OZlwNsrjG2ONuxZ7b864v+vnzhQ+eVjTXqeM0vdBa1Uv/5sQ/9Mx5S868rG/WBR128epMhsNLURakPrn3u7+Iq3o6F2TK9carsmRotP/P7v1PGjttSdtbB6sTYRNlYlfqGv39Fx9dkzdcNlcAk2Wq96bbh4c0ZlOrV0d1Pf/EaSLebad93v1p00i0sPZhPrehqzT76XcID6Qf8OleZuVa3S3MUfqN/96G7GG0/xer6dPI7bjgWcw8n4abz7OTZd7v/PBfQhN9divUanSr75B+Ml5W4QNgDyYel0NHYR0+auUqERIs+XaiGhoaGhobrFUtbE0cxFmfynbuYL3e/+933D5IOBNn/v/nYY7pVBm+DAqsyg7P3q4FBmtUPdAzawGoA/85V3q+++qryuU99qnz8/e8vb3jJ35f/77d+q/zjP/5jueaaa7rVEiCb1QGrMfe7//3KXe5yl85/rSAf4/e4Y48rT3rik/b5rg1ZAQiyinIwYKXDChMdeQtXn3Z/FaVbeaq/6eiiCy4ob3/ta8uL/+iPysc/9rFOr8JYuchqysMf/vCybv267v5wQlkMD7kfrwNOK0TT0zPlc+edV+ZnZrrzM2BVDO9zc7M17NrP9DQ0NDQ0NDQ0HG60AcoARsbHuzd8OZdxhRWHTVPltve9d7eSYAVjeTCyu3nTznml8Pbx0bJ93Xi53cMeXHasnyx7J+rAZHKfoVzd4Oz1cvCV+PmR+TI1NlLG906XLbPz5bjp2XLc3urq9YTpuXLS9Hy5ycxIdaPl5F3zZev2ubLpyl1l21vfXV75i79V9n72orJ5fqzsrYbtNVNj5eJ1Y+XKYzaUB/3I95eRk7d2/C1UQ70721J5G62DmMps5zffrdKMlTnTumMTZXd9tmf9VPn6wkz56nhN6x53Lqff917l8ir+9vGxMtO9NrgayNV15xr2O/rh9+2SdwMGadVBAbcWRPOLW5oWulckL772uA5AFka777VsnJ8tx9TB3dYZ+potx++ZLidUXZ6wd6acsnuu3HTXQjmlumP3jJaxbXvLB1/40rLnwq+VTaMT3YrS9tGFbnVm6pQTysKGDdXP+YXF0wiV844DaY05a1DdyMh4GatxuZGqs7kq9946YJqpOpwftWLn3FDV0cRUHQA5uzNWJmv+TM2NlXXVuY7N1kGpvKgydVv5aj4UbxmbnCo1u6t/HXzVvJ/5xmVl/XQpJ86Pl+NmR2o+j3TfqfEtlzqEqSlVne/Li+QHfuYqrbk6yJypgxnnoKzudbP8NVS3alkd+axk4WMpl9UDg0J5CNmO1m2Jq14LNQ3fbZmr5WN0alLgLtyYbXmzdbBVaUhHetCdDem+9bJQ41Q+qw5n6c3rpKujw4WqY25xZWoxnnqFjit0aderLX9WGzu5KvLyANexcWukE2V8ckN3LaOTtfx4Jffi/WjNQ1sha/Vb1EeNk3Q6nhdJ7gf9aTM4bw4cNUCuaSuT5PLNmjqS7K7dfdVJd9at+nXfuKn3iyV5dRCOnCM1fv9qtaYy3g1i8assuEY3DQ0NDQ0NRxpiBzTsw/T09H4DuTsnUt1DH/qQ7rxIZqXXgu5cS6XhTVBmsRdXOub3zexf97cqMaz2u5rOSnjFC15QPvnJT3Zv9sILgxeOOeaY8rjHPa5bmZnt3mC1PC16spID3hhlwMUQfdKTntTRAqsSq8GiTg6OtZRzREHo9gc7a0qrhv2nl9ZByp49+/PLuZsrrriy3Oa2t+l+Lwc66N4qVvPeWRiDJysfdEfPkNWspc4AOfsCi/m8T6c1rNUTb0BTTmHnjh3dihZaZMzb17rzSDX8/rgDiFz47M4i7QuHbsqHtHO/HJyJGTyL5K1vszOLH4icnqn1i06qPtxb0aMHfpGjD295S7p0SB710/2ePbs73teSn85uiSs9MnX5U9PvVphcqw6sTMonYdR56UlHmReWjiCrocthcXVrMbz4EH6dszI4Sp5J3zM88j8QeItbyhUazh05k4X/0F/8WGlDQ0NDQ8ORi7FqTP7OvvsjDgwEh5YhRtR1weIM9+Ie8tlqdOxleIyNlPs96hHdvdlNHfhCNc73zk7Xjr0aGNVvy7r15bOf+GTZeeXVZWK+GjWVyuJe+LhFuovO7KTZ4rEyUw2D2XVT5dQ736Hc6Tu/o+ysMnTnCWqUhVkfNxzpvsjefbG8/n73f72lTDlPsmi/dG+csppz63vdrRx3k1Orz+I3OJzLuOgTny7bvvL1Min8YvBFVPKLXCx+CX2qc4tfq/cGoT279pYvfe4L5Z73vEcZq7z5kv7CeNVMNcSO33JM+cA7/rvGq8ZiZxNahVjovrex5WY3Kbe++93K/NhEmZ+eLVvG15VrLruyTNXfVleYXgvVOB2pBufNbn7zcv6HPuyFaZU3Wjezvaj9wO+ZGm9P1f/N7nT7ctKZN+tme8m+vsb78if+p1z6pYu6b9DEbO3H7yP+i+mMdmdGpivPt6h623TTU7uPGcL6KtOFH/9kufyir5WJnp4R8JFL/2rudfrMqgCDb27nrnK3+9y7TG7YUOYqz5O1TG5Zt7FcUwcpX/jMZ7uZ8261pIu5b2Wi5r8VtD2V7t56na5xputgYuvNzyg3uf1tyqm3uXXZdNrJZXfldUc1hndVN1vDOh+FF85br8y+W6marrrdVdPuvh0zWevE5g3lHg+8f5mv9wamc3uny65rrikf/dAHu9l6qz3KuBVBhrxBCkMZfel4g50yv32hGvrji+V03Ylby8ln3rzc7I53LCfc4hZlbMuWsqNKtKPG2VWvM5WPsSrXIn+Lb4FadIu/d1c9Xzk3U0Y2bSw7a7naW+nOr5ssO6tseyv/OyrvezdMlWNvcUa55V3vXG5+h9uV9ccdVy6/6qrFD4zij8yVV2+Dc05sV5VlR1XrzMZ1ZeuZtyg3ucPty2l1YLjp1FPKwsaaB9XoxtueymMVsObDQnWL+eiqDZHBeJxGs7qRjRvKbjwp37W8up+uae2cHCs710+UPZXHrZXHU29/q3LTO92uTJy0tWxbmOnOby1UGXYbQNT6MlrjLg5kFssgFyjLVkCU8dkax8rUrppXO6bGqyzry9QpJ5bjq67PuOPtujIxcsyWMrd+qmyb3tvxuLfy40Oy3/J2tVwHHGmtce0iQ+V/V5efk+XY029abnK7W5czqp43nXpymZmaLDvm68Cw8uVMVbfKVcvuYsn/Vv4bGhoaGhquT7RD8r1D8jPVmGO8Xbnj6rL1uGPLZDX6jp0t5cRqaXztIx8vr37B35b1dXDAHLDVqpqv+1y690VnEMKw2F0NjKurcfJjv/nLZcttz1o0hOZmq3FTDcNdu8qWaig5TL6p0ty4e7b80TN+qWwedkj+6eeWM+99927LkkPPx+ydL29/+avLF977oTI1vfjleeE717MysuXExyV9Md+rZ68Sat1Y2XL7W5fvf/rTylw1ytZVw3BjHXRs3T1f/uWvXli+8anPdQY8WgzEyyfmy83uf+/ymB/70bLbgJHhVHXzP5/+dDcDfcc733FxMLdnphxXtXPs7EJ552teVz70lreX9d1WJwMAnFSa+zhlMO6sPHl18bWH5Osgqg7Utladv+MVry6f/m+H5KtRvE8OJPbdfgviz8xySN6h/u2TpTzs6U8tZ9RBCj8DtROqbt/50leWz7znA2VdvXdsvBaq+hdXiwYtKi622uypsjtwv3dqtDz+53+qnHDLW5TRqYmyvsp3zPRCufCD55XXveglZUPV1ZRBXUeJW5QXjfkq013udrfysEc8vGw96cQ6YKgD11oODLetotHfbNXlFZdcWj5Y5T3/fR/ovp7f3y7lldLz9frAhz+snP3QB5fZzevLldVgnq5XWw+nd+8uG+ug6NiFmo9757oBnoGrrV0fee/7ypve8IYyu4c5jq+ad/XKeOaOPfH4ytsjah7eqYxXA3q8Gt1zNQ+yumDlY25mtnz6E58o73vb28uVX/tGjb2o7Wux+NuAZ2T9uvKLv/SLtf7UkmBgNj1dzj/vvPIf//kf5XZ3uVN5yCMfXjZXY9yK1mR9jq8X/X/PK1/74oVlog5+5Ed0h7+z73+/cnYdiB13wgllrLYF9AudaS7Z2blyWdXdO9761vLpms7YzHRXXjw3hyAv1dBusFDlecBDHlIe+rCHlYlajg3adu/ZU37n//7fbjXqxDNuUh79xCeU025yk+77MXOVdreKpN3Bbw3zzQsuLK955avKJRdfXCYMUnpp4axeOkiXnm3Hm7FiU/PvpDNOL9/12MeWM+rgb6IOCJ3/sgqjXUPDYH5m957y6U9+qrzrne8s37zoq50scegP25aVdE0k3Pl+9ykPfPCDymmnmNCo/rUsCdCtBu8ra9suvbS86+1vL588/6Nlvv7uBnKdZlM/GxoaGhoarl8clSso3OKMau2w68Dk/o96RDfTaU85A/miz36uHD+1oWzqDKJFY3pzNbje/e53dweQrURMzFdroNKZqxaD5wwSM+gTY5NluppEu8fmq2FfDYSbnly+43u/u/rZ7b94HmD7FdvKzm1XlWM2b6ky1jjVgpqsRu97raDsO2+A3l7GZ3VnViP7GCsB1RrC/YZqdHzlY58sl33lKzVsNX6YQiPVqt/3vY1udWdkDuednzn98WoUT1ai3pI1UY2V7VdeXu5eDecNmzd1FtZsNZKsamzYuLmc/6E68CFPpTNb3e76/LjTTy+3vttdqr6qGT5fjeBqnF311a+X97zkZeWu97xXWb9ufR3g1YFXZ9CPl9NvfevysY99vEzv2NV9EsS+d8DbYg5U3VcvRu3N7nyHctKZN++MZ29JW1/Z//InPl0u//JF3erPYsylsZivsFAHOXN18FmN0WoQ3uoedyvHn3pqjT9W6YyVzdXqvehjnyqXXfT1ztCr5mUX15dsDEwX81B6TjMs0jWzPzMxVm5x1zuX4087tcxVfsaqutfXfL6yyv/58z9W1lX5Jmrk2Zo/e+qAd1vNi20y8YxTyg/8+jPLTR5wr7Lj5GPKNzeMlW+uHysX13KxrV4vmxwpl9T7HVvWl+mtm8tN7nrHcof7n1M++pnPlKu3b6/8VL4qGasnOyZGy20fcE457na3KpeOzper1493A1irDQxv50esxuyuA86rp8bK9upm6mBjezV43/ee95Xx7pxGDVcFu7rUwc2xG+vA8AnlO370+8vYLU8vVx4zVS5ZN1oure7yyudl6+v9VClX1vtrNk6UzWedXm5z/7PLjjpYu+CiL5fpvXu7LWmVvaooep/vDORrKp9nf8+jytWbp8oV60Y6OS+c2VHGzrxpuevjHlmuPmZ9uWadb7VYVRmt9WKhnPfRj5Wrr97eraZ5S9zOWn421sHCub/xy+WMB9ynzJy8tVxZ6VxadXrJxEK5jKsD0CurDi6plWfmhM3l5ve6c7ntve5ePnXBBeWKnTvKwth4mZ2e6cq6vN1ded1ey+fpd79zOeGOt16UcUOVdeN4eetH3ltu+6iHloed+8Nl/PRTy5VVxm9UHW3bMFEuVo9rPm2rg3o6n6zPz7rPPcueyuOXv3pRmaSDWqcWt4ItDiZHa35N1/ZqV9X/FbXwzpxwXHnk/3pqud+Tn1DmTju+bK+6vrzyf+n4fLm4uqu2TNUyUfO0lh2rN1M1jVvf995l4/HHl//5n89UXXtL23hXxjj/DOajr8srv+Wsm5bv/9VnlLMedE7ZdeIx5Ru1XF25abLSXSgXK2e1Ql9W8/Zqb4A7vpa1e96lnHXPu5ePXfCFcs3ePWVvHYT6jtLY4gmVznW1oasXlX69dlnd/W1oaGhoaDi0WMn2u/GjGpwGQpzZRmczzJyed9553QwwzMzOdsbY/e93v+63cGYkF7ePfCvsKzfzbNbV8wc/+MHdFQ1739F897ve1YVd1XcpbMWoBkJ/9ajjtfrn+xarhe1K0sTjQjVIzj///H1ProXvfKCNV/A2swAfwX7Za9iXvexl3a0zBfbSc84i/PiP//j+cN1B5GpUrYT9dCsOdMWsf94E+jTXii6Pank46aSTuvMEXd7XskCer3/96/tCfSvEudVtb1t+9ud+tpx88in7v7+S8pQzJaAcdeeeqm7dH3fcseXnarxb1QEe3Usns+zk6M5B7MsT5dTAnb/y5SwDOn3Xbe2q/Ka8ytupyanywz/8w925qA3rN1R+F98AJn/I152NsOWqpul38sHqynd913d1cdevX9/RG0T/nIq4wpx62mnl7LPvsz88Xp2doSdncdAXL8+VwZ/+6Z8umzdv7uTzDC1hrXwIR66c0/Cbk0c/8zM/08WfrWnkjXV9JCygKcwDHvmo8qAHPahbrXU+Qzrrq15MjnR80uG+OLt37y6bNm0sj3nMY8pDH/LQMlvrEf1KD6+RJasjJ1aenvnMZ5Y73vGOXX7J+/CArt+24IUn+QDrN2zo8ucZz3hGd6ZL/nGDkNZtbnPr8pM/+fRywgknVDqLbUW3OlfDO3tExtDXZshfZdk3nn626uuMM87owjU0NDQ0NBwpaAOUHmyjGJ+ZLxsWRsqn3v3eMr1zZ3e+YnuZK9unRsvdH/IdZZc93NXu2V3qtfrXoB3MyI92A4b5sruG2TVaDbup8XK3c87utqyYUN8wMl5G90yXi97/gW5rCCN+MfLiZa3oPki4BuChmpXdKs1YZfV8fFRD1EKLojBSjRZbTybXr+tmU2eqQdUHNulow8Jo2Ty9ULaypXbMlJnPfLF85p3vLVtHJ7s0nJu5st5M3PzUco/HPrxMnHDs4pYdxlu9xtWgi9h/c92QrUExkettV8A5+cPONhvcnZuovt3McJXFG7ecLXImCMS3JchKjBWRsn6qrN+yueye3tsZ8V3eVXfZxZd28Rdn6G3Jq2VlYqxbNXvMz/9U2XHy1vK10bly5cRo2VHD7K3lg/HoMPtMHWjYVoRf6eycGCmXTix0qyy7TjmuPOp//WgZPWlrmVtXBzOMzOq6eDUOPWamnoE6X/NpQzWqGdEzMzNloRq5owYc1V1z1dVlrBrZO2pZ/cbCdLl8w3j5zp95Wtl4zzuVS9aPl8tH5svOWgZ8R2Wk5ulElWd+by3b03XAU/Uzje+pybKtyvWNGvbSjRPluHvcsdzzex9drp4cKTtrXejkrvx5Y9189bPCcem6kXLx+pHyjcma56dsLbs3TNZ6Uw3zajgzzBdqmlYjq7VcZZkruyp/18zuKSM3O7U87P88tVx+wobytalKxwpDrWt7aq6QzXaz+Wr42/JpNWh63Xi5urqLq/6+WjNlxwnHlO95+k+U0ROP7bY0estad+amht1b+dxWebi85ull1V0+NVauqL9v/4D7lT213O+qaUzXPDIInKn0p/fs7V6OYEvenuquqYXoqlqnL60yXrVpstzmO84p81s2dee4xmt9UXoWqg721AHBJQuzZeexG8vjf/7/lJlTt3YrJrs3TJWrZmdq+2Bdlg5qed25p2yYHy9jexfPIO2s+r18/Wi5aHSmfGNjHcDc4czysKc+pXtz3I5a8KxmLpa1UvOklsMzb1oeUsuKFbor14125chmPisieDfg2bO7ao+uah5eXSvwVeSv4S5fX8vUCZu77yzNn3RcRzP1hztI1bKhoaGhoWHNOGoPyTuMa3uRA6z3f8wju+1enjEzLr3k4vKlaryfeNaZ5fgTT+hmWtdV433r+FT57IfPKzM7dnUfWZy3t5z128XsTPx6M1rm2L3VsLzZne5Y7nj2vat5pbNnkpTy8Y9+rHzpox8ttzvnnLJxyxZRu3Mlk3Vg9J7/evP+Q/JsZa97na5GyS3vdY9y7GmndEaGZxurKi786CfKFV/9ejWUF+kuospW+XL1FxZ/BYtbUOaroWKr1uzeXeU+j3xEGanGLevdQfqJapx+6gMfLPNVRn7OUNg6dOwZNy23udtdu4PXY5WG7WJXfOOb5TMf+3gNN18uvOAL5Zb3uGuZqgYbo3mqGmyTs/PlDqffonzyAx8qczt21/SrFqqRt8hPNaYr490WrzvZ4nWzKh/jf6E7zG6L12Vf/kp3SP5a/ocj0tKZgcXeSmeuGsK3vOfdynGnnVr9xyrPI2V91e2XP/GpculXv9Z9nLH7UGOPvi1teIRuO1TlbU+9v9fDHlJueec7lPEN67vzBOtHx8v49Fx5x7/9R5nbvrPLAzS6cw413f/9zGeUqeO2dAa0lwwsrqDMly9/+cvlVS/8m3L+619fPvKWt3TuE9/4ejn99NPL1Lp13YrCbDWON1b6x05MlZuffFr5xEfO6+rBnpnp8tkvf6m8+51vLx9+y3+Vj374Q7UM3bf7srzBi21Gl9b8ePnv/m55/5vfXN79pjeXt9Xy9PlPf6YWoplu+2KpA5Wb3/H25Tse8V11IDFW9lRj2ez/VOVv985d5UMf/GD5l+c/v3zkTW8q573treXD73hH2V2fHX/CCftm40c7vW2seXvzk04pn/v4J8ue7Y7QGxwubpmsCZV7f9dDaxkb78prN5Cqz7oBYo27a8fO8oX/+Wz5zze+sbz7be8o3/zKReVzn/x0V3fm60DwaT/302Wi6rmY9a+8MZRHqn4v+tKXystf/orywde9rnz43/+tfOSd7ywfufDCcpMzzuhWC6x+OM+1oepuQ+XvNqffrHzm/I+WkZm5jg956eUJp9/+tuWmtzyzK8do25plsOg8jPL+pUrzNa9+dXn/q/+pfPi//quc96EPlQsvvbScedZZ3cqK1Sarj3X03uWRraBf6nQ83a3uyG+DHPI//AmPL2fe4Xad0V9HZWVPHeDSNz1YRX39X7+wfLjm1Qf+/d/LB9/33nJVbeNOO/2m3QpH93a2Wn9Mapx+/Inl4i9+uVx96eX72wZlTfvwv57xM2XjiVu7AVxVdJWl5mnVNzle9cpXlg//87+U8970XzWdN5WPfP7z5dSb3aysW7++a+dqrS/jlZctk+vKGSedXC6odc4HTKuE++vE4s23ticNDQ0NDQ2HGtfatg1d58v4Xre3jgB2zZSP/Ndby0Q1RL2d6qram18yNl8e9OQnliutnlRjxyCnG5awGCoYDbvLXNlWbZ2ra5izH//YbsaSMeTsyZZq13zw9f/Jau0OQjOQxHFdEhkBDSBbNlaDRZO7pllvHFqfqoMhckl4zzXbO7kZcc4DGLwcd/LJ3fmQUgcx1TLtVmocsLWaZHWE4Q0Onm+wa33PXBnbPVv+8bnPL5N7qnDV0DPL6wzOxZvGyhN+8We62d1d43VAuE9eLnwhZ1ViH9kDxiAd9JOOLMK3GehrrIhVZWyr7kpnGcYXytXVbat5ekXN629Wa/rrNa+dOzj1nHuWe37Po8pV9ZmVBrv0R+sgbttXvlZ2XnxZNSBHy+R4NfBrudkxOV7u+F0PKiOnnlDLyFzZWwczBpNbd86Ube85v7zpD59byme/Vsa31UHO9jpe2F6N2Xd/rPzLs/6szF349W7lrkyNl8sXpstVGybKKXe+bTmxDgyVnRPqaO6E7TNl046q311Vql2z5eSxqbK50t9UvbYujJVNV9dB4M6atzvmyzE7F7qXHqzbubd7U5wVgN2To+W7fvTJZeemqW62fKoa3Mrkxsu3l9f9wV+Uj//9P5X1l2wvU9uqIV1duWx7+fTLXlve9/JXly17nb1a6PL/6qqf6U0byvc99anV4J7ojj9tqMO9jSM1w61EVR1ZfVE3NoxNVv5Gy9Y60tvziS+WV//GH5UPPO+lZc97PlHGPvO18pV3f6SWR/VgtNzrId9ZRk84vlvN8Aa80b3z5aSa4FXv/0R5yx8/v2z42JfKpkuny6bt42XdFXNl5MOfK2/4nT8pG7+5rRxTy586ccXoXLl6/UQ59tZnlZPOOrPM1BLgEPiUnKtlf6TmkzLofJe6N1UHNMdVvrdWfV76nvPKO577ojLykc+Vycv3lqmaP2Nfv7pse+v7y0t/4/fKzosurgVp8U1gu6cmyvaJ0XLm3e9c9lQ64+NTZa4a990KWU3zmFvfvNz+oQ+o5WmhK2vOpGxdGC+bL766vOLXf698/KWvLZNX7ClTV9WysLPWyUt2ls+95t/LP/zOH3cvzFjnhQF1wHbpyEy5csN4ue/3fU93rmh3LWPX1Hp4VR1g3uXRdaB52kndORdvi9swN1ZuNj1e9n7wf8q7/uSFZeq8L5Z1l9XB11U1J7bVWnD+F8q//+6flnXfvLJsmamDkFqMrDLtqPXy1Nvdqpx2m1uW3Quz3cF+9V69aWhoaGhouD7AimjoYXHvfrU4Ki674IJy1bbau1dYFTB7ervb3a5s3Xpct90kZwr64GfGfMtpp5Vjjzt2n2/p9oFfeumlZcfllyPWzUj79sJqgB+Gz6HA9u3VUt4Hs/zSyndMVjsIInN3HuKaa8rrX/+v3RfbfSsk++2dJXBuIWcGrk/gp/sOyb6zDNDN8O9z4KzFaTX/nvRDP1R+8Mk/2Pnbsw/yYXZ2trz61a/u4vnWiDMV3TmFajieffbZi9vAallRZuBzn/t8ec3LXlb9F6ubsyWdvqqrkaq1vLe8+K/+qlxRywZdjo9P7H9r3QMe+MCONkhvNeUAv8KZqXfvPInthGfd5jbd2QZv5gpvzlC8+MUvLpd+4+tdWOWyqwPSNMioZeKC888vb3zjv3XhySYcd/zxW7s85tDD8+KZrkV+oeOjussuu6z8w9/9XfcqZGWDnB1vNZ5yB/e5z326lYOcVaLPz33+8+VVL395F27/uZjqOl6rjunub/7yL7vv0siH5OvkxORiXlRehPcNmsBvkA666vIXal1/7WtfW3bt3NHFn6h5kDMlHSrfr3jFK7q8t2oVbNy4sQsPvpVELnX9nHPO2e9Pp3REP3/2Z39aSV3T+Q/D3LZt5fnPf36XDr46v3p/wvHHd+d+QPmsxMvZ9zm7ow1de1LDffrTny7/8JJ/6PhWXvgrP913jYTdvbu88E//rFx55bbFPN4H+rrXPe/ZyZ38SD40NDQ0NDQcblzbQx3FiMlHGb6cvsnspU90V3f+u97TbRMBX7/2pfX7PPg7uu1JVh0g3bg95Luq274wU8559MPK3Lpq5NRO3jDGasO7/uNN3bdBylxNsRppvrEC4i+5grDPyDlU2DszvTijXFmZrUaM726s37yxsliNwX1hgvDJ32S/3wu795ZNVRHHL4yV9bvny1fe/K5y6ac/X7ZMTJVds9PdCpI3Ld30fvcsZ9ztTt2stbh0N0j/QBE6VohsCZvoEZZOtzpU3VWTI+Wu3/fY8sTf/qXypN/9lfL4Z/1Kedwf/Fp53B/9enn8H/56d33yc55VfvJvnlt+5E+eVW7yneeUq47z1qmxsnNhtozWPNu0d75sv+CrZceXvlE2VsVNMJxrHu+q5aIct6VsuukpZW7K5plSNi+MlmO27y1vet7flRN2zpfTt8+VW+wq5Ra7q9szUs6sSr95dcfUZ+XKHeV1L3xxmdo7W41m3xAZ6b7/cVbVmdWPhWosj9dyuLmOaceMa6tQVlbkR7Culi08bd27UI6tbuPsQpmqBrpv/WwfmS/3/M4Hldk6OPMtm8mRibJxZqR87D/eXq78xBfKCTMT5eTp0XJSVdQpNe5N9pRyeuXz1JnxsrGOOz739neXbd5+Vgcgyoq3tU1vnCp3vf99F7c0VTdVjVuQv9jCm9cdW6X5xH+8tWy+Zm85dU46pRxf+dxiRaPqdHeVd+KUE8qGm57afZPFGZuJmUrv6t3lDc/963LyrspPdSftnisn7pkvp9TKd0rl86Tqt8WBsCt3l39/ySvLlrGpblCxc36m1GFQudld7lh21jLtC/T9QRPgjb7W754pJ1R53/TXLylbK390cMqu+XLyNdPl1B1z5fSa1tZdc2WdJcUvf73MXHZl952g7uyRgfnkVDnu1FO69qA751Kvu6sMt7jrncruEW/Bqzqo7cn66bly/n+8pWy6bEc5pdI9jX73jnR6PrXq9+TqTqz363bOloXPX1Qu/einywk1stdZy8dNNc/udMc7dd9i2VHzcvyEY7vvszjrptzT8YZd0+Vfahk6budMObmmcZPdC+W0WrbiTq1lb/N0zaNtO8vr/uHl3UDZiqKVoO2TY+W02966LEyOL74GuzqDLZCXhizyFfZdGhoaGhoaDhm+tddu2A8HkEs1bD76vvd1h029AWvxrUrz+2Zmh3fT3ezrunXlTne607UztdXPYdVPfvSjHY0jCXiLLGZbyWdmf6waJ5m5Xw5mk/fPeJulrXjNi1/cve0I6IAzu3vuj/1Y53d9Yl3NG28v8sanm9zktHLaaaeWU085pZxSjUxXq0dmu81gL+b7Yn7RkfMKZr//9gUv6A5S51lWhu5xz3t04RjJZqKtunzjG9/oDsPz93axxbcr7TP86m80urdN1fJ1zYUXlp07d3bPhLcaYLXn5FNO3r8y0Mfgb+ho7tO5GfROhpq+vL3ZzW7WhcEvP0b7e9/73o5Xca6Nt7iKGPrdl8dnZ8pnP/e57nkfd77LXfbdCXetroLuQHyN84lPfLL73dHfV67oxVvzJquM97nPvbsVxdQPerHqYrUlcczy91cvpCOv4JIvXViuvvqqLo/I45mVqGP3vQHL19lhkH/hduzYWXlZXM3M6oE4Xb5U7Jen8iT/lWVAy5vrlKWs0Ih/1llnlk37Vla6L9RX53sr76m6tpK1KM/iCtIguoFULSP/9sY3li9/6cvla1/7Wrnoq1/trlddtW2/bOfc737dm7esktGJOnvxNy8uMzP73vhW6+SgrNClWculZ+qoMgLoWA3aEL6rrFnBaWhoaGhoONw4KgcoumQzqDEPuhl91/pvbGShTFRjY33t6M2W24d/2WcuLOvmR7t93tsmx8re47aUW9ztrt0bgkYWzBpP1vupsmNssmyrhs3tHvAdZXr9puJr4s5oTF2zq1z43x8om3bPlS37lhA64783q+sOT9219xu6r2Pv49DfzuF5pA6Yun+L/t9ujgxivhrI9W+VzxfBy+hE2bxxSzVE0KjyVWNrdHykXHH1FWXOcV+b1OvdoqshqvFVTaEaUkrVwK1hxhemy/rqNs1Nly1769WHOy6/urz+BX/XzepWc6rsrDQv3TheLtk8VR7/cz9TtlUja48v0FcHyYeVUE2uTg/f7vBECz091D90yNiaqXnquzQ7x33Ne7TsXFcHGt5g5Xsa1e/iyeq8ecrkcn1+SbVLr/BF8ck6KKiG37HTC+W03Qtlx4c+Wf7lWc8up+2dK6fUhDZVjkZGxstslWdvNWZvcZc7dTPaZqC9acrM9ic+9vHui+O7Kg+Xj86Ur49Nl69PzJRvcuMz5dLqti3spahqOI6UXXt27zcs9y7MlD3jc2XjyceUmQmvh635UwcLY/NVsQve5rV4nqJ7uUANb+XISp1vx4x7RVTVxtjUeI1bA22aKvNVpr30VQ1a39XYUwdDu3bs6PLZ27euGq1GbtXHJePz5cp6f9Vo1Rkqo1Uho5Pl4x/+aHeOQy44IzJd3cbjtpbpqgdlffHrMdeWQ78cqh/ZtbeM7thdNszOl3VVn+NVNyOVPy8lmKl5Nz0yV0669Vll77qJMj2Ofh1c1HrzqY9+AoWu3vngqTduXT4x2r2Fq3szWjXkd9d6OlnzQD3cceU1Ze/MXJmpaXZnYOrg57Rb3KLsscVtcl13zsVHO5UYdGlttMrz1a9cVObRqfVynVWdykH3maOalyOV13X1dkOt/yrdRV/4Ys0mJa4OOKtelLyJjRu61UcvZ9hb69QxNz2jXFP5rTnZ6fnYKs3Vn/liWX/1rrJ+70zNnxq7uulZX0xSbqtOal5umlsoJ06XcvLO+TL1hW+U1z/rz8u/Vvcvv/fn5RXP+tNy8Sc+UyYqPwtVd7e41Zm19tWyUHXiXE3VQPnkx2tZqwOguYmxsqfqx8qf79hcsX60bPMNlJrHu5WFqvdtX/lyudx20wpNkjfJecvZcaee3H0Qc7K2ZRNVnrHKF2mVpdW0MA0NDQ0NDQcDR+WX5BlAjCtfMddh/9Jf/7+yvXbOXjO7ufbDX/vQx8prX/A3tbOfKDurXTJ5s9PKj/3yM8rEusnO+DtupvLzlW+W5//uH5RN1XBB1faO7nWr1Xj6uT9+Vlk44Ziya262bKgGyuY6MHnur/52md+2vZpd1XCYLOXJv/lL5dhbnNEZB5vrAOG4nb4k/4tl0/Rc9yV5A5Dt1WgQ9rH/58fL6Xe/Y/fWnmo7ViNmobz9Ja8on33v+zuDjyG8iCpb1Rn5/PV/UeJF501WExOT5eo6EPHhP7w+rfI6euLxHe111Ug7qYZ5xZ8+p1z1+QurwbZQpqvxc1UNe4v7nV0e89Qf7V4r60OFx1T31Q98pPz7C19cNle9VVu2e4sTHVzDCKq8P+BHnlLu+R3377Z6+Ur4sdPzZfOOmfKmV/9zOa/yXqpxtX1htnzHDz6p3OEhD+y+dj9WDbetMwvlnS9/dfn0O97VGW0GakRclGy/sN8GTxjsjFkH1h/pS/L3vns1GsfKbM03B/0Zgt3Ar8rWfZzSTHP9aSbZv/ma3kgdUPC3DW+q5tc3v/il8u5//6+y7ZOfKVN1cLKJfzW2JwxOarhrqqzbqwH4o7/2zLLlzJuWPZXueJV3S2Vm467pMrlzbzluYl2Zma4DEXlY08GDPPZiAtuDbA3aVvW2Z/P6bsuUt0ptqHQ2VoP2Lf/wyvLZ93yw+5inDxBeXjNg+sQt5ZnP/sOyi85qWd5Y+b76U18or/7zvyqbankar4NQbzJjqPrq/JYzTy/n/tovd3oht7ddbamybNyxt9tCtL7KbwVFeWTwdsMEI/c6kN5b6XjpwxV1kDdT+VuoBrCBx9Yq33gdjD77V3+rjFWd2J41PVXL///7s7KrDgBr7G7734Ztu8qfP/NXuzKzruqtjoEWZa/OgPHKSvfJv/aLZeutz+y20tlCdezCeFlfecOjL+PX8dn+iYTA74WxsTqQm6sDxLGybUPlc8rbqUZquSldPf3Pl72qfOw97+/aDlv87vO9jyn3eMRDui10BnPH19BvfcU/lU++9Z3dywZsSRurYRdLhQHv4tvmdlc9XFnj37PGv88jv6sOSit/VZZj9syWt7/ileUz73pfx9Puqqt7Pv5R5R6Pe2TZYfhRdbl1brSc98Y3lQ+87o3l2Kpg9BfraDcG6tJarLEGeosvouC6uYwaxsBTvQdvHfTCjqf++i+WzTe/afcKdAf9N9bA63fOlM3ytMpONnE7Gvv0pm6QZWdtMHZVWaY3rys762AFHz42urW2U+94+T+VT7/nA92LNMbrs4WaH2iIL9wiv4u0GxoaGhoaDhVqd9WQ3pbRpDPWATvLsKF29MdUS3v6K18ru67YVmaqsbGjGui+1D1505O7ffO+ns3Q0vkz3o+59S3K2Elby3Q1VGyb8F2Viz/zhbJw2bZuz/uBAUeyyvXAwVDZWwcAXoG6pxofpRqvXp1rO8jI3HyZqkY1w/Pqy6/srr5VAf7SjfjDsGjiVJ3VOBtn6gBjbzUyd8+Wd7/0lWX2kivKVJXbbP8V1djZtnminPN931Pmj99SrqmGpYnpzgBCv6Ny8OHcRPJz5pIry84Lv1r2XPi1MvOlr5e99Tp9wVfL7gsuKldc6Mvg44uHi6uhOt7N+M+Xb3z8f8pV1fjfsGe+WxXaUocYVsZG6iDAViD8dwOPTZvL3pGJalyOV0N1og44xstlmzeUS04+rnz+2KnypZOPKRectKV89pQt5ZOnbC6fPnlz+fxJm8qXTthUvrF1U9l+zJayq8bdOzZZ82es7KwDtdnRibLhhJOqgVz9DbRqWl16+64cv7jB33vmqpVe+Tj2xBO6N7TJd+dRtlWL95INY+Wbx28oXztpY+VhfbnwlI3lCydvKJ89bUP59Knry/9U9+kTJsvnjq3h6vOddVDEOFYHvKWNEb0wOdGls2BF0KBukbX96E8q5F5ei8NYZnDT3cQxdDffvS53j5WSkdly2ZaJ8uXj15XPnrSufOKUdVVn68qnetfPVP/PHDdWLtg6Wb554obu2yveToY3Zyvwt/G4Y7tBoPTCX7Y1gdc677pme2WmZmwtJyuhL48JlG574z4vb4nzdffNJ5/YDew9N1haLy8vvbxMdIOfOnbf53CxXxfVyTsDAIMLZ42OrVnnW0Ou3tbWDToMbupAsGzeuPhdlFqHr675celkKRcfN1W+fNL68rlT1pdP1rz7+Gnry8eq+8SpG8pnqt8FJ68rXzp+olxWdXr1lqlyTY1PRyYnct18wtZulc39Qm3D1H084dcV9l0aGhoaGhoOGWo31DAMOVTrLUdlfKy87W1v72ZDodsrXw2Fhzz0od3vPh7+8Id35xPAHnbh3vqWt5T169Z1+8879Iycww1vcGJU+dL11jPOqDxOdEY2Y8qVjFar7LPntxZ8W/hqwL/4xX9f06v0GbC8Kn2rYk996lPrAO6AR2yrRt8Yhbe8+c3lH5///PKy5zynvLy6V3J/+RflVfX6+uq81czA0lkRe/vl33c++MH1vg7eql9fxv5ZEsiZhT5mbcmp9PqHtB0oz5W/8z7dmYSaL76TIY2cCXFv1WvxLMdivLWgo1X17E1q+e2NTtLFGzgjIW1b/6TRvS2r8kyu7jxSDQ8p130oMyBeXzd9RD/DnnfP9pUJPDlnAotnLa7V2VKQPt0oV+IMQvmWhjDhtY9F/S6e61gN0OK6QWwvTvLUeZ2NGzZ293TqLW/0vHPHzv3l5bqg47Omr6yFd2ee0O7K2j7+1OO4xXMwc104enCuR76mPesjH3/tzilVOg0NDQ0NDdcHVrYAjiLortNl24big4HHzI2U9bvmyjc/cH7ZsHuuTMxPlPmRybJrZKzc8b6+QL2+XFk78qsYScduLqfc/taLW5Vq/C0LY2V82/Zy+ecvLGN7ZroPrx0cMIwYO5wsXN64ylMztGVqsuypUXaNzJd7PPiBZXpyrOyc3Tegmlsoey69oozu3F0mKq/eACXKctQZpvuNtmrUTC3YAjVfts7Ml83T82Xn/3yunP8fby5TVX7bpq6pNvxl1QbdfeKWcvYTv7uUydFui053VqEaUNcF+Oxrg3nFyPJRzXUL3og0V07dO1827Jgu63fMlk07qzG5vV6vmSkbd9S0d86Xd774FeVY22TmR7o3Z9HZyLrJ8sQf+P7uK+4d3X2GWwYM3XWfQT+IRWNx8VC6QZ+vp89Oz3TGvtfius7tnS4je6bL1K7psmHndPdNj2P3zJfjauITO/eW+au3d1uPrHJ1NJfLkH3IgNDHHzmHtLsVvWrQOjzuALSD9wajBq27d+0q0+73znQHyn23gyFrW1wVvPswpdWj4/culGN2zJRjds6WDbuqLFdeXdbVcuJL6vv10v1dRN/wH6afbpBUB2V4gAx0DJp2VZ4Y1XGdYR2je59z72C9r+avq/o7oert2FpPN9Y8tB1vuupOOd67e89iWd7HT7fdr5aWbqWwxlXfD6QxHCYf3k0AdPquA9vFAWEtT/vKy3KQLwYRBsSQQSMY8HRpVEcXILwXPwjTvbihlhGDoq7cVdfXebcCMj1b1s1a6VwoW2pdOGbXbJeXm2q5W7+35sXuvWXDpMHi4iA5ZW3lVqahoaGhoeHgoZ1BcQblBf+vbB9ffGYv/+Uf/kT5j+e/qKyrRqrDtleOzJXd60bLfX/wSeVuD3pAGathdPBeAfpvL/vH8rEPfaR7Pe/dHv2Qcs4TH1tmHPStvG6ohsB/v/b15Wsf+GhZuHRbR3/xjMZCefJv/fIazqD8RDn97ncqvirvy88O0r79Ja/cdwbFYWx64apsDKF69dd/UsXw4r+3ht1TDe7tGybLT//h75aZrVvKzmpQTY1OlOMqHx//9zeVD77uDWV9NVQmqpHko3NXTU2UM+57r/I9Tzu37Kw89M+g/Ntfv6hsqgMxH550oNaX4qu5WAx5dk6MdR+XK3UQ9IO/9stlyyknVctwtNuq4lxBzdTyty98YbndPe9e7vbA+5c5W1cqLwd6BgXo00cVt0+Ol0c4g3Kvu9WB0XgdfNUBY9Xtm1/+yvLpD364+9hi9/HJqg9fKqc3r6Qt6ybKE3/xGeXkM29eZurAYrKmeOz8WHce4rm/9TtloRrkGysL49UI7OSsPF8xOt+Vjx/+v79e1p9+WrdNabSmKR//5pm/WMqevTXCRLVcqxEeS4/r8s01bt+DWua6Z9Xwdg5mXY3m5QNjDM8q2//f3pnA2V1Vef68rV7VqzVVSQg7isQGEWiQEad1EBSF0LGlVcg0oyiyKi3dyAifVtseR9oZPy3o2B9aEe1msRnx83G6GyTs+6LYILIEEgYIhOxLLant7fP7nv+7lZdHFXsgQ+4vn5v/dpdzz7331Tn33HPvhqwUntk9dnbDB4VZ7+CD8vO/+4F1K25O6Vk6NIGfj5TCefu/0z519hdtSPQW1UbM/q96arnd+ncXJWUFWpy+BkHQ06oNKZ2DKFRHQm5OSk1nvt1GalJY2rMv8EHp2DRmF537V963C6oSRUAby4qGrGLFrryd8LXzrHvPXXxpZBVlQ8r3T/7qaxoAW87pmUKgFTTdimHJN97pVllbezWdjCf1zVH1RZTi9xz9IbWblFZ1FnxcFv/kcnvmvn+3DtU16cehnyV9udkH5eCPL7DDFnzU6lJACuJ5j/rRrVdcZY/cfqfqhAKesiNOPN72P0rKv+pIfr1SmO67+l/s0Vvu9I0Cgg+Ks9dL4X/GrJSmVMYV4ZraAMsamy3kUP54p3E4ktJ4bE/ZiV8/zzr32sX9XNwKpzpe/tWvm0kh8+wADUAIz61849sUVEmNkYKU45yUmIzobFdfYesDxl/IpimHiIiIiIiIbQZkhYgG+CMcGIKCAOrlsnVL2MxIaP7tTbf5+QwIaaV81neDOuxjC2yskLFSR9oO+NDhvvadGV2c5zvHK7bktnussn7QOpSzz2BuEwTKKVwKQb1xDVaWxjNK2ZiUjhEJHh9YeKy1z5plOIV31LJSuBRzvGS/vuNO4ywYzmiZnJhU+oQXkvNc5nspUEcEsJwEwoKEqsLohLVNlO1XF//YOrEU1KtWFe9GJK9P9BYkzH3KxqUsYdVhzfu2ADThZO0CpQSvWRJKZ5dqUvQUJGBzHVCYLYWzbaJmN13xc8uXq77bFev8N6YkRHe328KTPy0hVzwUS0tSDFCGQBvWCgmiYxs3WL7OLk0VKWBlKXxStnr7LSMBtWPTuHUPl6xnKAldgyXrHJJgP6wwVNS1aJlRqXVqAxsX38eLlhL/2xV6yoorZalL/GGmH+sckmLwZeBda8D3gav7yag9N6xZ6+emdKg/4EODcr13ukPKkwT1sZT1jqZslkLPsBRmhc6hmnUr9A7X9ax0I1KOR5XheBLSCoXJuvWLCQOZvFvcnK6XAdrDaVSbYH3BQlPdPOZWoqx41g2Napf+Qr/lxtPWM5q2gZG0zRlW0LVPoUvvPIxpnCl0KF6GrahKCmUpzArd1Yw7vndL6G9jDGCNUPmBTB81enAe6glfpVeDkApn9k6VM7J2vTuuY91BEaOv7PWufV0pos+EQLopXihAB+cS1TQ+8PMZoa91522QHeik5E80LCnOr8ER61Cf5awdToWfIx24O9tj6VFdR8xmD5kNDJr1KfTovktt2qP3vdJfuhSnbVz5sBO40nkYU7+VEs6kSl8ub70KTIa4rhoREREREfEGY9tIhG8h+CymBA1m2ivr1tqzzz3na9mx7jBz2T/Qb31zd7Kd58+3rq4u9yEAlUrFli59ws+hSJZ3bL3c4s0CNO+00072gfd/wJeHUDeWk3AdHRu1oaEhp5fnQuPk6tcClhRxhszw+vV27bW/SviocgMvZs+ebQcddODUcp1tgen4znIZ6tkKaBtetdqWLXtS8mzih0Ng+czee+9te+6xh/LbQidLakI+4eyXZhx00EHOA/eBmEYBI21y5gwnyKvvEFB4FBe/As75gDdYPMKynpeL4BcBJjcnlghOZweUO2tWPzeed+BHck6LFKFM1peAca4I/SNZqoSvjGgjPnEbebEkjOVrxH+lcD8T5cX5IuRJANT7kEMO8ftmBBqDT4kvh2rcO20KLG9jWRXPYelToBU09wfuyZPry1mC9VKARxs3bkyWWzXKoS677rrrVN1eDMTFWtzXN8uOPuZo+9jHPmYnLFpkxx33cZs/f5+pPMbGk/Ny+J1hKRnp3ve+903xYavQxK+ZkFZ7J+fh1Gx8fML7HEsDIyIiIiIi3gzM/BfrLQzEBqwCvnpFgXuCz6ZKRuF1EFWY1WTNNtuDpqsZ+93im30JhMQCG82lbFM+5ctG3nvcsTapDHISagv63l+t2z3/eo11S6jMI2B6jhLCUxSQXGsplnIwq5s8VxXKChW+EV9XSR+ioeYnlrMbVht0WMbYbjY50wGFCIpZ0cK5EpQlmhF4JSxNKo+RtpTvcLS6O2eT++5pR51zpq3tztrmbN0496VTwtSAaH7g2uutp0x9kxl4SWwuELkAJyFIahpUTfGPWWBmiMNscHiGr/CSZUYd1ar1iQcspVl6w222eekzvpsWeW5WvUYlWJUKnX7eBrukwW/Skgf5hfICeJ4pMNtLegKJuDI7zSPLdMjP66JyqU9F5fGOANpqVetWyIgfN/zsKmufKFlWzxW181C72SaFj560yMbEz4m04rWpJepJ/HYVcvf1N/mSJ3wbEHgR9g499FDLqy2wMODPNEcMYrZ7bslsQLzuLolHqiwWq6J49R+OONw+edrn7cQ//4Kd/Bdn2fEnfVqMzBi9hO192YWrgqCJYK/86QGpxjkV9KVKSn1Tgf4kNVP1V0CxUfmrlz9rNc7ewIoFk/Np+8P3vgdqvY8X8DMpVmz2RNXmTtR829n2yaL6HL4y45btztuiM06248882U48+wz7L1881fY95EDLdrRZKpu2qvKlz9ZFB1fK5+ychDZ6T0In3+nfVfq+6EB3+M2tt1pagjEqMXUq1cv2buWdblNfF83pErP7nORfcQtYv0IfyyFFH/En6xU76IN/ZIv+4gz7sy+dbp8563Q78dTPWV3pa7m0lb0z0AFEj8qEVsr2wDsFH001KaWiMxmbCU+d7pQaizZQx0fx4JygsgJjlv7FeSoUUStO2vLHH5e2WvRd8VQ7m8xlrTSrx/Y67FAbFj1FjV1Gcbt6Soale6msn3Y/oW/r0hXb0Ju3/Y4/1vY47iM299jDbc8FH7S9j/iPNnu/+TaBAqsx/8Bdv1Z/TfvSzODYfsiBB1qH7jOTJfGl7H5Mu5ZSttN4zQZoT/qbxna2rDqpDu//6Ift+D8/0xaddaad9IUzbNHnP+fLyOhn1Inxn+ScjC9/FxERERER8QYg/P2JeJl49rHHfLaX2X5mnvlDv8/8fWz33Xf374kTctZWrFhhq1ev8XevN5g1nW42NMyugrKE5rC7Dzv2sOvPPvvua6effrr1Dww0YqkDKB92q1q+/Bm7//7f+LvmmffXGz+7/PIpSwPWB8AMPI6+vmPaG4CgPEyHsCtSef16e/DBB12RYWemwFtmwrH45MQzLFBYzJg1R2jdvGaNO5sHwFdOMj/l1FPUL5L4YKvdn5S3W7KUvqen245dsMDefcABNv+d823+/Pm23377uR8WcZiVf6XAQuF9Rekf+v1DPiuOggbN1OmTn/yUveMd73CeTGfhAfCqo9BhC4491t71rnd5eKdo22ef+fa2vfZyZ38sFq/FAjG8apVbDhIrTUJbT0+PnXrKKe5wnlgyUXC2ILH+JbP8AwP9om+B7as+/va99xZt+/h9aDfaMaB5nADqDtya8xqBJQo/qmXLliWWLyYJJie9XgsXLpzyqQPQH54Z04k1Lu3WkAMPOsj7CQ7v9I2ClHhO42espMTrVc89Z+Nj41N1wdrHKfCnn3a6dXQUnIe0CekBdQzO8/Tx/v5ZvuMgfWy+eMXp9/vtt6/3laDw0O8jIiIiIiLeDLz2v8j/HyOILG5N0dVn08WRYBXgTzsTzczC49jNenYr1mzJ/Q+44+rmWtkdpN2Hglla5YIDPY7AD9xyh3WW8MNI0pJPsDoYoQm8o0wag53DODSt+XA2QFqnU0LHhAQHTiyfyGf8dGgO+BvCIV1C8Gg+5w7w69sztr4jaxu7222vI99vn/rKX7qzfX3uLBuqFF0YavOdtuqW3TBiv/rJFVaYrHr5OBU7vSrX+aDg0LvpwOcQguWD+gB4x/koWFK6K8px9Ua77vJ/Tg7fUwoXsBQmSkVL5zmRP7F2kD7U+eWCsqHZydR9oCOEkBcXeE0duRcVfs8hnNA4u4JFweyeq35hbaOTli5KOahXbHOmZuvTFfvgok/YoNodB3mESHYI45wKE/+efOD31qbcazjqK9ON+ZR1/sHb7fBPH2/DvR22VvIoYYPes5vZho6MbVIo7tRnx/3lF2xTb97WZqu+McNovWrPrVtjvXNmi5GN5Vaik76BtahRHa8v9fa6N+rJPWAjABz9sQw+evevbXLDkPqu+kmlZMPKbLSvw446/bNWeds8W5lT/aBJYWPObJ3oXN+ZtQ2dGZt3xGE29/BD7flCSjSn1deSAwV/9/DDEv4lRIt3zfRM8V1xoCnwGvAd0AZ5fcyKv1aq2v996BFLSUnFvjJcq9iw+u+sg/7AjjjpP9tG0bFefFoj3qwXAzY679K2pj1lIwNdtvBLp9tIw1+jXMhbTWHF+jXeBziDx6GC4R/lwiP/Rkg+zYhANzfej7Y8OkJafGq6cMov1+3fb73DcqpTGgUBC0p7zop9nfbZb5xvw/0FW1OQktGZthUabGtUn035tK3Tu9HZnbboq1+28YFu26C6jEv/mlA/2DgybOtWPG/96Tb1NZU8Om6P/+4h39mtzrjX789IIWud++1t/+mkE2xtV8aeFa/If3VbXb8HKVvdbrZSZa6fXbCF//Us29CVs40aoJOiLdPdaatWr/b8nEcNxSfUFZ6F+kZERERERGxr8HcnogkIWsxYEsLMaivuvvW2ZHtWCd3MdrKUqi2f133OxifG/SyNhyW4IVC+3kjKzNn+++9vRx75IZ8FPfroo+2YY47x+wULFtgJJyyyL37xLPvKeefZBRd8y076zEm2xx57uDJQqWw534QZXKwFV199tW0aZJexF6KZBz47/BqRkqD97MOP2EMP/d4tTW6JYrY3zVkWb9yMLTPV09WHGWp47JictHvuudt9c4JPA/2Ccy4+8pGPSMlLLCvwKPD0tmuvsdHRUZ+xd98MxeH7YYcdZqeeeqrttttuHg+Qpi2XsyM//CE798vnTn3D/wMLDRaNO+64w4aHh/19KOOVAN8QyofHNjFpd955l1tiknNGkvywVJxzzjl2lOrUijlz5thnTzvNjvvTP3UrF7SF7X4n1NdXrHjOrQTM4PPtlaLZCnLrv/1bwxcl8fFy2sXHgw8+2E4VDXvsvrvP/sNXwPg68sgjnPa5c+d6PWk7LC3U8eabb9mq/06HV8PTF0OwIm14+ml7ctkyrx91gA58eWb19dk3vvGNRv9JzkiBBixs9JHzv/515zlbFbs1A+uXcOONN/p1ysqo9oRfY+pr8CkJUoiU1wEHHGBnnnmm7fW2vcSvhLfBB4W+dt7553sZ0ES7AX7Pbrv9dqfp9fDFiYiIiIiIeC3YobYZZqaceV5CSX+s2RJ0oi1t5//993z9N0vR28tVW/ngI/bLf7jEeqsZ34oUMKuPj8l4tu4nxn/iS2fYHoccaJtqJeN8DywFXeW6n/r82F332eIrf+5bEWORYEaSbCYVj+2MJ9pS9mfnnWOz997TLQYFfewcL9l3zj7XeotN2wyrnJFszf74zFNs90MOsBIWBtHCbkdsK4tvCrtiTc2mS7Dz+jX45LO9ElDG66yXr7svBOvPmbXGSmPDY/bLn15mqx9/0tpLNcsrLedC4LdQJ0027btYDUm2ffv73mufOOVk94HIlPDVSNmKB35n/3LJT30nobQEJ7YYZrMkSkcoc8dr3UMfqKo9i+L7pnrZarO67My//qrld55ro7Wy+5/gh1EQbT2TVbv9ql/Yw41thrEkeT7KmX+t4Ju/1Q38HM6kbDyfs2NO+5y9/dCDVfe06pyxgWLZbr3sZ7bknvssL7mMWf1m4DNBTqy8L4lXQ+J/sc3szO98y9KzeqwsvrSJvl59zw2N2iX/7X9Yff2w+5CQ1bBVbLg9Y7sctL99/NTPWaq3y8arqpsUg1mFLjFAwrOEa85CqUmYpM75roKVJCSyjIkd1dqzbb41LX5Ozz/0iF132RWWVlmcXC8J08ZUEnRVB3rsy9/+pp+ajlCKRWrTkmV21YU/sE4sQKIxpTLoCzUJxpON/l5qz9pJ551rs962u+8uVVbZ8I9dp7IIy2pH6KM+KSkAqTb8I9RuNQnMUkCyoqNNfGwfLdoV3/2+jS5f5fVHccMna3M+ZWd/73/aeEfOcuqP0NI2OGbf+8rXrKC+1yaaUNtT4i/lVpWuLEWM7aw3ayzuesB+9onPf9bq4ktRigZCtVuNFBtLTR0BuqH0YTlIaUwUxVMmCerFkvikvq1ynnvkcfvXn15u7ZOqk/jJyeicgv+BT/6JvWfBh21Ug51txHs1Rn916WX29L33a0yZ73JW15him19XklQO42hCnWVQytHBf7LQ/uiYozQI2RmsrjGf7Pr2+G13+y5xjMAJjZuRXMZKqs8X/vvfWHv/LP1+qB34DSkXrdDe4X2hMllUaSnLiE/Qz5hPteVsTH2G3xQsnD36bdi8/Hn7x+9cZFl22VILcJL8uPLarN+Rnd+9r338859xixG0FqREsk2zPnsfo4+X9dupBrJ8R97HZ038ril/4nXn8tYtHix/4Pf2fy79R8tNSHnVMCA9vjii2tuJQJ8gREREREREbGvwd2jHRkMIYkY4IMwgTjeT6H4ESnP99ddP+VI0p2UG95abb5ma5Z0WEnyYWQVBmWCGM7zbCj7Tn8wo+4F/Ci50Elrih7yAx9F34idpk7jcs1PVk8uetIsuusiWLV3myh/vw/fmQLqUBFPnkQRY33GK2X09v1ogjCP8XnnllT4DDCiLGWCuzfV4pXCaJcTOhFc8O6z41y++PqGroXRhFeksFOyPFy7caremJE7NVjz2mF1zzbXeP7BcYGWjTvAMCwBKd0dHh/t1kIZ3XBM/jrq3x7333mtX/PjHU/wB3uaiBxqoR1iG81LAIjHlcyMeX/ajH9q6dWt99jw5uT5ZqkbfJW8sJQXRxqw+9LgPUzbnFgtow8px8cUX26pVq6e1er2S9qM8+qhbUcS7lU88YdctXuzlJDvAJf4y8BweQRP8TKw5iV8KY4cxAl8rGne/+c393rcq6q/T0eL1baQhT0JixUN1mh7E0X+eX2J9U1upPxDgHe+ay4IueH3ppZfa8PCQ8xBgZaJuAHqpS7ByAH5fkjLEF10HBwftB9//vvezDvU52jH4khBWPvqoXXvNNW7Vgk/BT4nfJPLGakNf6+yU6ub1TOocyoCWu+++2664/AqlfZHfrIiIiIiIiDcQO5SCgvhQb8h0wa8km8r6LGuv/jZzqBz+BBxSlmMuVMIHs5pYP7gyk9uTzlmXvo498bTZinW2azVrO5fTNq+SsbmVtA0+/pRV122yvlTOz3hgBpMiuQY/lg4FLC0EzqPo0zPWFk68RoykLEB5Wb3DYtFez7hfBD4tzJY3+4n4bCiCngKHC3LQGwIIvgeca9BdrNm8WtZmDU/Y5gcftRt/cIkt/t7FVli53naarNouorWHGVblB6ivW1+oswTHjISdfLlmfZb1naj6amnnFWfCwEdAXOhh9jW84wJ95AffqU9XKuP17RmZtM0PPW7Lb7/PdpKeN6eUtv5axgriAztK0Q7sgkSeMJD0jWxfgPCeuJz1Qdo2ERROy+ZgS0KH6AUIZvhmKMvkuREA5YiT1lYvW5cEeGaxn7nzXsusXGtzVf8C9VYMBMA/PORg23m3Xa3SENK7xZd5KqenmLLlN99l1/79pZZdN+i8Ko6Pu58NFpXxVN0msxIS2bpXdLA7Wwe7Uk3WrHtwzG659Eq788pfWE855TzpqafdapaREApvsSjhh0J/oj9wwnuvglveRIf3V6eowRMFLGY96mvdk2rnDaP2z3/9bRt8cIl1j5fFFwn/CL1SkDiPBt+UwVTNxpULvCpoLHROlK1vpGiVx5+xq772t1Z77GnVNeUz/DksB+IHfEmrHHaKYscodinrhx+6YkkMPlUixwFt1KmgMdhWqtiA6to5UbOnb7zTrrv4J5bFOqW+4Ec+ilcT4hsWPQ5cJHAeDf2e8mfTd4bG7OZ/usru+vkvrXO06P2UscKPHEU7L8qVLfSJNsYf1kPokPTv4yYgKAHeJzQOO9SOsxt9iauPWyWjHWiP0Cb0O/LvVHtWl62wf/qbb1vp2VVerrcj/Uf5jqvf0BewhuDPQ/mcbTJXdZkjPow+vNT+999eaANjVZtbVf3GSj4GsV7i88TvR0595Nkb7rDrNKbbNo36OHUrqBShsXLJLVPwiUDb+lhs8KBntGQ3XXKZ3XnF1dY+OOr50lcgBV7BCeoOeG7cRkREREREbHPwt2iHBjOx7LIDmIkFzFzOZCFgxthnKdMZu/+397u/AbO7zESym9Fv9Y5ZXwQbLBWtCEIP8JlYBGUF0rfl2vx9M5i5Jv+ww0+ITwg0TglSCrxjRpeZWM4zWLNmrT391FO2ePFi+84FF9gVP/yRLVu61OuQpNkyG0uercDPApAvdQ9xqWOy+1RD6hSmS98K0nnZEqJEqPsJrF6T7HbGDDaz+NBEXqE9XgmSGXd2Jktm3aEVwJMw8xz4+HKsKcysE5czXPALKLMESmUQwBFHHOEz/SChO+0z96qkrV76hF0snt9www02NjbuNAUeBT4Gqwzt/+zyZ92qteSRRzxOmO0GoZ1eD/hsfqlsV//oR24JeezRx5I+LeD3EmiDXsA9Z3tcd9119lPFZ7zgP8T7cO4PoB7N4Hvzu+n47fzCkiM+e58QWGL2/JNP2v/65jftphtvtHXr1k3xmzyx5Hnf0zvqwrtHxLMLL7zQljz4gJXEa++v1LMF1BPLEWXRn5O2TK4Jj7fQGOgJaK3fdCAN9AAsGuRd1Ti8VO2KNYXd/ZxvTX2bsun38AE89dTT3i6X/8MPbWhwUHVNxurU7xP1bvRtrEgizFY+sdS+f8G3bPH119vGDRs8XqCDa7Aqejni3ZIlS+y73/2u+PXg1G9BKD8iIiIiIuLNxg7lgyJxz9J1Cff6o15RXpO1io2UJq1v3lwbHN3s5bFunlPfU5MlX5efQuhUsWEmsa7v1YwESqv7bLjvPNWYE+YMgtR40TokbIVZTIQgkhLDg4SMsVrZUu15KzUEIs7NKChueWTMuiTsMlsJVLKNS5DMdBesojInxINmgTAg5N0KyiWQH6JNVoINZ5P40iB4KRrdkiC6EV/8LBbRy5p4ifh6I4FGX5hJxx/FpEBVYYSEnA7Vw30WRF8bQrziSuT3fzMB/nss5U++RTGWHcmqyru9q8smJsTVat16pTTioF6dGLdOloPNkCW5eT24Vz2yLuRK2BOpm1li15H3mWksHNS/KysFcGzS0pWatYmPCHykVit4Ho6GUEp+dQXaoKx4k7RVLuv9hnJ9Nl4BK1mqWE6sPcYyJHwWkjQs5Cn5czJzXejutnm77WoDu8yzrr4+F7I3rl1nw+vW28bnV1m+wjk6ahPRgN8EbeP0ULbyIg/yCrucseFAWF5Gf2tT3fPQl7xK+KP3KB0IqGwfq6et8pnEh6m9zYoqY6dddrZddt/NZvUPuPP+6PCIbRJtK5cvt+LmMW/vvGgK/QmLGPc15UWeqAP46VTFJ3w+8KOgrxTULpkiZ8qojZwG8VVEQqZiOL3kx5Oo9HTkx7gq6U1NbdXR3Wn9c+fYrnvuaZ3dXVYSLaNDw7b2+ZW2fvVqq5cqTh/n0SSnjCgD8YPu6mNWV84Ewt8FeuknjPWs+JLXi5xPAECzE+K/Nc5b6qsArSzonORZ/CrptwNfGPfdwSdHAyjrCkzSP4iPzxV9oapyuJb0oSh+t4v+uTvP8+2+5+kKBjdushEpI889vTzxUVJ9oKlD/QrLE6MRXjtduvc6NF29fqK9xG6CaoPe3l7rnz1gu+++h/X09VpJvx2jg+LXSvFr1Sqr6RmLj1s7VY+c+EKfg/aZQFRCRERERETEtsYOp6BIVHLBAwEZod8Fz7acCw4eR3+kfZlGSmKO/nAjryBABQUF4QDBLmyHW9KfbJZWAYRLnJlxGEdwQbBkdpOv/sddNwjLlWwmEZyVG8oBy2Pykow4UM8d1RvVdOFYV4+PQKdypuOB553cbgXKJQSBcjoFxYUeHkkgfmARgeJmBQVnapSUKnWSsOkCjeJ1KB5CFHkkZb0yBcX5p1dB4EYM48A78ubQRGjNKgSBuxVJblswJcBJ4ZlQHkWcwpU3bYZzdUHl+mGXpIJu8YGsqT99gnLcn0HveEZBqUtApI9wkJ73ERREfaMshDvyot1Z2paRAIyDtbeZBL6KeFVUZhI3XYCsKW9owVlaBek/gTKVnqU/9DsCgr8L//oMTdCji+fRrKDwzHu+E386BYUAsFBgUUipPs35wB+WSdGPaRMUaPwrnDeKn9U1Tb9Uupy3e1J3aJtOQaGO5DnhDtaKo/RsM92uwPbLYpHez6ygiA0NHsG/RKCHVsYY74LyQlpXRFAsRB9KMgeisgEE44n8nA9KwzbDpCmJ515fStA3FEHaz3nvA1x9JzBP4I6QfIFXyWYDFXWBCpsGqG70ARRLNgpIqVx1san40yko8JyldHCHeobx3MpTrvQFlu1RRugPwPmjvPTqBQrKaL2iyGo/+ik8ox8Tj7aD/7qyZBObH0vyqD/TC/RMxogrxTOAfAgRERERERHbGjuUgpKIDiE08kKA0WNFQow/KiAMMB9OrK2WMDUCKUPAF4GD0xz6A59Tfi5sSJipSLjaknrr9AgWU99ULxcSkG5UHjLSVDmNeA35aSoPQis8fnK7FSQ66V+iPFAf+OoWgil+Jjm6KOMCmr6rQCwpxEOpgkeqqBeQJp3qFgT8JL3ETs8zsRg100ecJNcQE77qfwlQpPGdkiQ4teEozXu9w48GXtIWreBV8+vm8qhTyBMLQxErl/IJFgmEsJyEN+K15gN4T73IT0kkcCYOzFi6ENzhH2ncGkHb6x4lk+/kz8np1M1j8X6KukZJysP7GnmpjvQcLD+0f118BtBOgI5cJik/LK8D3reIK/4ByqAlUOYyCvQVcvI+498b/NGL8C+pfSOO6KRenKyPtYW6BaUBKwE0+DIo6G7k2QwUOT5gnYTmknguZji9pCWPlO5pF4/fCAFJapWnl8Tzb4rrwjdXvfF+qHxYQpVmqRx9h/iK6nzhPXRP5UaaZFyGZVutz2EJV5IuUU6S1k1AXRS58cQ41HOD97QxSxJpYcZDoym83bYgocX54vlLQeG7IvvvhvL3MkCjf74cJLm+EJRM3yhrDHJPIB78oY8xBrAq0bDhd4Bv4co4cV5GRERERES8yUj+Yu9gmBIKhCCsAFcQGkAga/4W4AISAk0jbvjjHv7Ah/ekD/etQLhp/cbzdOW90aA+AdQpqYfEPqcvEV5cOGzE492W+5emvzl/EPJkJyOENhfuFV6N/wlIaJXg58KWBO6WfMJzKx0B4X2SB4qMRNYGjaz9D2iua/ge4sKf0BfCN0C9AP4bzSBd6BNJkHIoRYErigkB8ExI6jU9/TMhSbeFlgB2fwKhXK6uhCmEnbOoN7x4OSBdaLskbZL/ywVpEt5tqR/3zldds8EvRuMQnvGe8Zz4kCT1I17C+6Qega+tz96PG3z07w2FJWA6fgVs8QdJ6PD7F4kfQLtRVjP4PcFf5fUAfiStu5GF5+Bjkvx+JXVPeJWE5v4dERERERHxZmIHs6AkQCRpFu/ItTlnvvk73fAnm/uQxmd5w3PjPsQN8GdC4x33If7WokmCmeKHKyDtjFAkPgfxojkd5U2lbcRr/v6i+XosCS/+74URQ14SHV3Yqbn1JIk3E2+ay+M1wiVWDb+X0EcbB+sS7whJGS8fIV0rQj6t372NGy8S+kKMJEVr/FaEfF+sniG3RBFJBELqSnAe8F2RoIXlOcG60szHmdBabigvINSPPEJe4TvxQ598IR+2RvjWnB6E55AXz83J/Vty65jp+0zvQ50CpurSeP9S/SW8D2j9PhNmSkcd+R0I8PeKGL6/UoRyQn1mym86/remAeF7a7xWzJRfRERERETEm40gm0REvCYwM/1qgIDeLLC/1UE9QahrsBZMBSl6WC4CwnuwI/AnIiIiIiIiIiJaUJrQOoMc7sGLzSy+VLzmPKebYd5WoNgm0macIQ/xWP3vp8E3pSTelu9JCDPI/qwP4T3t9WJt1JoPIH5wTMeS0rz8bis/HSGkD2jOB7S2Q2v8APxpAi9Cm4T40+UX4vCt+XsA0ULa6b5PB+odFI9mTMfDEC8swZkuHQh0zISXoi/Ulzjchito5mczr5rbfya0tksrQl7uc+JvEn6D5nL51py89X14DmkC/LtehHgzIaQPmCn+lnhJDP+fF/6f2q+RCe8bt1vVIyBJ/eoxXTkvhhAPWgJ/wWulIyIiIiIi4vVG89+piIjXhFejQAaBfCaB/a2G5rqG0IrgjxB4E9DqmxERERERERER8VbEDmlBiYiIiIiIiIiIiIjYPhEtKBERERERERERERER2w2ighIRERERERERERERsd0gKigREREREREREREREdsNooISEREREREREREREbHdICooERERERERERERERHbDaKCEhERERERERERERGx3SAqKBERERERERERERER2w2ighIRERERERERERERsd0gKigREREREREREREREdsJzP4fzmyC4FpGQQ0AAAAASUVORK5CYII=;" vertex="1" parent="1">
                    <mxGeometry width="808" height="341" as="geometry"/>
                </mxCell>
                <mxCell id="3" value="" style="shape=image;verticalLabelPosition=bottom;labelBackgroundColor=default;verticalAlign=top;aspect=fixed;imageAspect=0;image=data:image/png,iVBORw0KGgoAAAANSUhEUgAAAeAAAABWCAYAAAAXMEVJAAAAAXNSR0IArs4c6QAAAARnQU1BAACxjwv8YQUAAAAJcEhZcwAADsMAAA7DAcdvqGQAAC3ESURBVHhe7d0JmGxHVQfwBtFEQHAhBBUUIltkESQKBLIgskkAERFliyxBQFTcWEQlRGQRMRgQwRAMAUQSlQQwQFgNS2QVBUVEUCRIjAiKyObS3l9l/p2a+7pnuufNezNJzv/7quv2vVWnTp2qOqeqblXdy00HTAqFQqFQKOxXXH7NLxQKhUKhsB9RBrhQKBQKhR1AGeBCoVAoFHYAZYALhUKhUNgBlAEuFAqFQmEHUAa4UCgUCoUdQBngQqFQKBR2AGWAC4VCoVDYAZQBLhQKhUJhB1AGuFAoFAqFHUAZ4EKhUCgUdgBlgAuFQqFQ2AGUAS4UCoVCYQdQBrhQKBQKhR1AGeBCoVAoFHYAZYALhUKhUNgBlAEuFAqFQmEHUAa4UCgUCoUdQBngQqFQKBR2AGWAC4VCoVDYAZQBLhQKhUJhB1AGuFAoFAqFHUAZ4EKhUCgUdgBlgAuFQqFQ2AGUAS4UCoVCYQdQBrhQKBQKhR1AGeBCoVAoFHYAZYALhUKhUNgBlAEuFAqFQmEHUAa4UCgUCoUdQBngQqFQKBR2AJdoAzydTteu1l8XCpcE/M///E+rt//3f/+3dueie2PkedXxQuHShcsNjfoS26qxfrnLXW6P60LhkgwG9/KXv/ysTvNznf9V1wuFSz4u0QYYwn4ppMJlATG+ZYQLhY2Rjuz4ejeh3gEXCjuEeVPL4/7wl7/85bWrixCjW8a3UNgYDK42tluNL+wVV2Nl8ZWvfGXt6uJnvT9P4cD4/zwI0yujf/7nf54873nPm9ztbnebHHvssXsoqkJhtyNKoTem6rn3wBdeeOHktNNOmzziEY+Y/P3f//0ebSf/C/sXva5y3bte/+X9/iJs9Az656778h7H9Z9bpAPzPNdBfx991/F7zLu3GeS/52dRfLQX0Xc/GIeZt1YCEof/F3/xF5Pf+Z3fmbzoRS+aXHDBBe0+oLNqfvYV9noK+r//+78nX/3VXz350pe+NHnKU54yOfnkk9s9AorQKBpKJkIT/gpXuMLknve85+Skk06aHHjgge3+PKARRfXWt7518vrXv35y9tlnT/7yL/9y8r//+7+Tb/zGb5zc9KY3nbzhDW/Ytb2cQmEetI3e+KrT6vGrX/3qydve9rZ2T1t55zvfObnhDW/YroO+XRT2D/7u7/5ucsopp0z+67/+q5XFWHUqD7pPmX7t137t5IQTTpgccMAB7Zmwp5566uRv/uZv1hmmvgzpM+V6m9vcpunGJz3pSc2ooxddCq6BDkULjdQjNELTvVyL49mhhx46eeQjH9nuvfCFL5x88IMfbNfhPfqa/8xnPrPls6+jG0EcaXzhC1+YPO1pT5t88YtfbPfFp/s9Iw+dyu/4ju9ozwyiPvKRj8zy1iP59OyrvuqrJt/3fd/XZPNN3/RN7f5GYHC/93u/d3L++ec3+/KDP/iDk5e+9KVL52W/YcjctmHocUyHHsf0QQ960PQa17gGiU6HAmx+3FAA0wc+8IHTE088cXruuee2eEPBNH+M/v7b3/726dd8zddMh8rRaKA1CLP5Rx111EIahcJuxaBgmq/ufvrTn55e+cpXbu1FHU97cf3+97+/hYPU88Qt7D/Qb8cee+z0yCOPXFdGvaOjbnazm00f/OAHT4dByVrMi8rr2c9+9nQwIgvj0meHHXbY9DnPec506HRNBwM7e5Y4wkTvxfX/1R//he/jJ9wxxxyzxtF0OhjJ6a1udavp1a52tRa+p83/+Mc/vhZysY7uIY/C/fzP//yMDhcbQDZ3v/vdp+973/taOOGf8YxnTO9xj3tMv+3bvm0WfuwGg9v4Pv3006dDh2MttY3xile8Yl3+XQ8djPZMurul/eyVAd4oE+9+97ubwGU+hUEIhJjC5C9TsMHQs2pCfOpTn7pOuEcfffSuEeglDbtJbpe1Mhzn91Of+tT0vPPOa8qoV2Af+MAH1kJcjKrvOwNyZwQe9rCHNaPVOzrpRS960axsFpXRe97znukwKmvh+/h/9Ed/1J4z3IxjdBz/W7/1W6f3ve99p09+8pOnz3/+86cveMELpje5yU1aPRE3hncY5U3PPPPM6Ytf/OLpr/zKr0wPP/zwRiO6+OlPf3rjK47+/eQnPzn9lm/5lkYn9PjqYrCsnn7Tm97U0kGDHzeMeKcXXnhh099c0g8+9rGPtTi9E++Od7xjaxcxnkEfdx7YCPEjF9f/+q//uvZ097SfbR0Bj3H9619/VgBxveCXEcI4jIqgZ5YKxZUBXh162HrksNtkp4y/8pWvTN/2trc1Hl1fFhAl9yM/8iMzpcGVAd49iNwNJPoy4o4//viZcZmH1GPl3Bso10bGKX/x73SnO7Vn9BxjPK8NGC2LGz5ucYtbNBrih5bOwgMe8ID2XLjMpvQ8fu5zn1s3oIl7yUte0p4LOzaAYwjz2c9+dnrd6153Dzqcjslm7fjQQw9dx4eRL6MNPb+L0IcxCu/TJ6dPfOITa0+Xo7c/sK0vkQZ6zQ2Za/7Vrna1dn8o+OZ/53d+Z/PzP/5GGIcZBDm56lWvOns/ANIqLI+hJzgZGuXkjW98Y/u/2+SnjD//+c9PjjvuuMmrXvWque/bLo2Qb/kcRjvr8juvnSzTdgrbD3JXNt7l9mXkne9P/MRPtPeyi8pGPYYPf/jDTX8Jx7m+973v3cofBoM4ed3rXjcZjO/kt3/7tyeDMZnFjd4bjF17fxs64h511FGzOhRaaPziL/5iCzOMctt6Geh5HEat6/Rp8OlPf7r5gzGf0ZsH6aH36Ec/ui0YhJ4+Hu5xj3s02YyRdL0j9i64j3f/+99/ctBBB7Xr/v5GSJlc/epXbz6+E/dKV7pS82FZevsa22qAZYpLYX3d133duoy6b3XnVkG4CkxhZUFXYTWQ20Me8pC2oGTo1a5rrLsFFvQ97GEPW7f6d7c0mH0Nyq7P62Ul35cEROcok7e85S3NT/nc/OY3n1zjGteYGYCN0Hd8OTTufve7t3tg0R3c+c53nvz4j/94M1zD6HGdkbQYVV0JPLvrXe/a/HF7vt71rtfSQS/8Jm147WtfO7vu8dGPfrT50p+nI0Lj3/7t3yavec1r2mpjHQVp9PSOPvroyVWucpW1fxeDPEP3Xe96V/tPJwXyE5nH3wzJ37Wuda3mk4cFXHz2CObldaewzzQvQfSFoRAJ4Ru+4RuavxWgo8B2kwAvafjN3/zN1rtWLv1qzN0CZfusZz1rcuaZZ7ZGp/FkNeVlAVF2USRB1fmdR0ZwVkG/+93vbtfKxSrb293udrMV0IuQMjz33HObD2je4AY3aCM2z9V1z7/+67++baFBG12jyBgr/2OApUef8g8//PB1+jFGSzh0jjzyyJmBC5/CGgEnTo/PfOYzc+8HoS/MT//0T7e8ZJYzvPLveMc7zpWL8KEvPz2Ev+UtbzkLE9lvBHGSP6P9AJ/Xuc51ZjTm8bJT2GcGOIix5UeQKZxVEcEtUxjz0Fcm18t0BBJHWAXpv94opAJuhD7/QWQRP2kAmu5z0hk/h8RbFgn73Oc+d/LEJz5xRjeNuwfaQZ/GonBjGSzLl/jjuO495znPaTz2zxaVd9Li5zp8ip98jtHfm/cckj56vUw2QmiNZThOY1Ga8yAshZ+67z+eks+k1dNchV9uXA5Bf39M0/9l0+kx5rtHnwdI+gmb54vKJLRBXGHGNPcGSZPBUiY6h6Ajy8jk/0bAV4yNMmUc73KXu7Q67r+p7Mc97nFtS1qmUfv6jwf/jTj7/B1zzDHNSPufuhJ+DIRs97nTne40m8pOPKPcf/qnf2pxsj0pMFWecPPkGJ5NPX/sYx9rI8wf+qEfavcjK778QfgKyCL3vGqC/L/DHe4wufKVr9yux/EWAY/SRjdT7UG2Pe027NOjKB2SYU8jEKK9jH/1V3/VhCTZZQUbJI53JN4DB959vPnNb96DnsKPsRfXO433ve99kz//8z9v73D+5V/+ZXLta1+79dq+67u+a3LrW9+6FTo6XNLj/8zP/MzkP/7jP1oF5jQ6+eCr+Cqvaag+Le9e0giE1dhucpObTH7qp35qXSdEhfEcT3h7+9vf3vavmbZRkex/u9nNbrbuHcYqIIdnPOMZk1/6pV9q19LiH3LIIe09CzDGZGCaKvnuYTr4ve99b5seM30tL8rz+te//uR7vud7Gn/ororknW8f+a//+q83wxm5m0r6yZ/8ySZHad74xjduU1M9QsM7MfLDI6VCISgTU2CL5NfnlQI38j7jjDOaYqJUyIlcvvu7v3ty+9vfvqW9bAfyvPPOa7yYXvN+y/7I6173uq0OGDFYI9HTCi/qjT2Y/oM2I9///u//PvmDP/iDNkJCz37II444opWZPY9bgTyffvrpbbQzzpe8k/u3f/u37yFzfFhLwGCkvIza7ne/+62FuAgpG68VyOI973lPa4P/+I//OHsnyWl7MTh9mZje/K3f+q2WBlr4wZcwv/zLvzzbE/qf//mfbd+sMOLabyqM/Bn52Qe6t0AbzZ/92Z9to9PArB75bQZx/+zP/qy1Z9ep9wzy93//96+Fujj/8XvIu7Zo1AzKjDOzpU714fv44qV83Q/Ill4g+9/4jd9o+iBhrUXQjvzHJz3Xw/0//uM/ntz3vvdt1y94wQtax8A9/+Ga17zm5OMf//gedStQPup1yh6ExYt336ugz69r7V9HCb0f+7Efm7zkJS9pz3YVBkb3GezdkgQ3CKatchsE3p4NBdT8VZA4Q4HN6HL2AS+iNyjtthJwUBjTQUHM4gyVad2Ku6GQpte73vWmQwOZu+T9EY94xHRoaLPwiYvOQx/60Omg/NdCXxTe6j17AT1HW9jBcE9/9Vd/dS3UxbAKcVBcbX8zOfV8iTNUpOlQgWar+ORpWciLFYj4QA/9+NLhPPPf/mxbIMSRB+7zn//89PGPf/we8XONZ/mzanNQqmupLg9pKJ/TTjtt3f7uPh0yiEys6ByXz9AxmslaGPwkvriD4W3yu+CCC1p48kOjl6PVofZEJn72cqrD/nPo2+eO541g28R97nOfRotT72zDwFNo4cuWkvAQecMv/MIvzPiX78FwTc8666y2VSQ0OTTQGozgdFB6Le6q+OIXv9j2YZJRTzv0h85pK3/1oM+3bTgHHXTQLBx+b3nLW7Yw8pT8cPbwD52YFlZ++rJN/Tv44IOnv/u7v9vqQp+OlbVD57et8E2cyHHomMzC2kft/IGspBUGX67t3R3Xma0CnZRl+BlGfet43ghkmXicshs6D2tP98SYrv+D0Wxxex6GzvtaiPno6bjO/8Hwt/jquu1RkZt7Q6d8tpd5zAfQR6kDQwenhbFyOTxxdMpGshfHlqk+jjKbt/J/GYRP/o1udKNGT12xJWs34lJvgO0dVrli3IaRwvQd73hHWxI/jHLapneHhqQyUwYaPIUDvZK2gVyFixIVfugx7qE0ApV3GO22isxRpGMMo8nGk+e2bdly8OpXv3p6yimnTIdR1yyPGoXnw6h9LebyUJnlcxhJzvKJ3jA6nJ500klN8dnuo/MR4wRDT7vJVhyOgrNfTxiN9XGPe1xrLOiRByXK2K8KcmIA8TCMLmZ55ux1dJ/he+5zn9t4BPLGJx7JiQFRv4aR4/SVr3xl2yfZK235tUWi3wsIaDCYDE3CSiuKB84555yZUtIZIq++XvQYRuCtnMiFPPCifghv+5z9nJGZujaM+NdiXly/Y4BTx8iZog5/6OZZ6qJ6+aEPfajFXxbaAJDBMHJpfPVOu2GgF+VVfXZ4iLDHHXfcjF58+RlGZq3tCTOMpNvWFgZHOZx66qnrOj38YaTd9qUGaHAMsQMj+k7WRz7ykZnMQD50xtQh5ZW6fq973WvTLTDLAH3tFU350Walob4o482AV21dfE7cO9/5zrNnQa75/f3kQZzkjX/IIYe0+4uA7x6hq+MfXugbgwb5QjP1qi+LMRyqIayByTBSbh2t8MQXn3FdJPvwQYeGD44+3htEZne7291mNLXZ3YhLlQHmemWhUTAa0uaMICjbcdpO5KLAU3EoDIpjHo/u92nf8IY3bPfnKSn3jBSEU1nDY6Bi3vjGN26V3ohLA8AzGfEpKg02yp8zktuqMmHkQoejmBaVBwOUHiR3hzvcYaZkElb+GEfP5YGv0cVIrgr5GvP4wz/8w2tPL0bSFz4jK3XrM5/5TLsnT3xK+9a3vvVMfsrXHtvkOWX2mMc8pvEtDxT8+eef3+5HzsJlpMApq3kQ76pXvWqjw9jrHPT1At/PetazGh+Rl+uMgJKvfgTMx9vVr371NvJJHilGnZPwxD384Q9v8ZcxBkH4k3bqapxDHPKsl0Vg1C0fOiXa1Rgnn3zyjH/hXv/618/yiA5nFGXmSRhp8u9yl7vsUddAfQ1v2qhZp/55IJ3eAN/73vdex/feQEcWzZSfdM4444zGC6ezu8i98Y1vnMVTz+SVPlkEeesdKIfIKvlTbimfVXD22Wc3GniKoQ1/cfPaMl6UrbCc2UV40pOeNCtvcclm3OGdB53H5IUzat6O8nr0ox/d6KH95je/ee3u7sKlzgD3dAk9FYqvNzZON3GM3MInX8++H1EknLSvcpWrzNLmGPAxXTD6NloRxigqYeI7hs0zvBk5jUFWGm1fqfElva1gbNwYIzyOgb80JuEoi0WjKzw+5CEPaeHkQxyGm5xWBSWyjAEOyC+y0fvuIQ94o4yFST0gPwd8JIyGnkMPOLQoS0hdBa8gPKdU0OrllvLse/JGerkPUZAMTjoE0iJbI2N8JHxvgDkj6g9/+MPr2g6nPvfh0hmEZRRYwoSuMs4Ik8Ofuua5sL1hl76pXXnpO3IJQ/Ea7aODR3Wkl2dvMP76r/969nqHbI32KXjo8+E1TZ9f5dTLGITHs3AJq56Pw20FaOtIpy6lTeb/Zi7l3ufBNPqykP7rXve6dfSknRO0VoUZMTTSoSSja17zmo22vOFzTBsPZsGUlzDapzJ3/4gjjpjxxfdKoi/zMaT33ve+d508XOvQbAfMhqGHT7MluxGX2iloDTyjI87xfioJjCuFuFw/4uPGo9bEpyD7cI6ImzfqePnLX96ey7e4Sdd1ptRUDlNIpvpgnI+cUpNKSkEyPONwy2Bs3PqRQU+Psu/fCZpF2KiHrffcNyLuKU95ytrT5bGKAfbOj/yEuc51rtPk15dV4FWCMFGS5JdRR8rEqTkxPMojI+AefZmjRQn1MFLIcwYz/MCYJ6840KCobne7263dvTjc2AD3Cqmvu95p41cY4ZWZPI3TWwXqRGhy82YMwEg8HVHT12MYjScP8mo2IOjpBI985CObPBKHITCdHMgTAxy+uEUjYFPjnofWdhlgs0LyTD69jKSTe64XOWH7eGbkVsXP/dzPzWiFHh0xT6ZjjMN4JSD+Yx/72LU7F70TTlvhzLqM4eRB8UwVaytkaxYHX33+rHfZTO6OjOzjaIf0+3aUl/OgQzf6dbdhueWclzAMhTf527/928nQs27/hwrVVusOBa3DMVuZDINyaf5QedrpUIE4r3zlK9vKVc8G4zBbyedrHuA+vOxlL2srs8f4/d///bZi+sEPfnCLi2YwVI7Zysl/+Id/mPzAD/xAW3pvNaRVrVZK8gfl0dIZKuaMj/EpPFsFfpKnwGpH+R46FGt3LtrIT2ZkRbZjWM2K/wDNbCtYBfInbuS6CHggv6GhtrDkZ5WubRa2g5AbWeJpMOAzepGf7RXyKS35GhRFW31tC4XDBMYnUYkzKN92jQZndWWAllXLyghNq/8POOCAdelCaA4dgMk555zTDkA466yz2r155Sme+mNlPtkLo8zwwx188MHta2DueYanQdHM0lsV5PqEJzxhHS9/8id/0laxSi91BS94d1qZFdJZ1QtokIeV5ICXQfFPhg5we8aFTiD8Ax/4wBY2dOwCsN0HPO952gx9+w5Wib8I73jHO9pqa5AP5a38tBV55JLHeS4ykE9OW8dX3GZQBg4ASVjp+zqQ1b5jmc5DH8bnXD/xiU80ftAITYeJBMJb6R4I++xnP7ut5FYvndKlrYCzBdAQBsS97W1vu2FdVI9yCpfw6vEtbnGLdTtc9gbf/M3f3Hzt5MADF39xbyexealdAqHQbXXQcIFv+weMK0RvFG2hUBE4cfiW/IPKrqKoZDZ1O1otlVaD9+1WcE9cRoGSdW1pf3hJBbXVKBWWr3Gfe+65bTuVbQl8lZqiU1E18qRna0borQL5Sf7nNQz0ycN3NENfQ6M4co3GPNiKEMiTzk+MBsRfBXgMn+LH4cFBCJEdkJ9P+TlliNw1bLJz3dMAp7G5Ft8zCmwYdU7+8A//cLYty31lePzxx7fOm/3JPXr548cWGwoSzSilMcIHGTu4geGSNuTZGNLxTB3j41s5qI+gbCj+4IpXvGLzk9dVgHdbro455piWJ849B6MkPcC/zqVn97nPfdqz8M9nsD/72c82nvFhywyeF+URPYcu2BYnjP/SthVMGv6vgl4ee4PUEVAO2VLZy1YZylvgWRyI7/pDH/pQ29ITuKeDKL9xm8G2yfe///2zsOqbziZaq+gD4W09wxvDZJteaCqD0FJ+tuIlLzr+tgb5r444PhPIW8cgUHbq4eGHH752Z73MAjqNrgO8SFcHGlbJzyLIC+RUrN2IS6UBpviNgHsYKWwGPSWjuUClySgaVKzg4Q9/+ExRqCwUkvAqo/tGUp7Zf5YzscE9jpJKpaT8jaCNXtKbTsM1AudTaKGv190rxO1CGiHeAnk76KCDZopoHoy87JPtge/+2NFlFMxm6GnYR4onsqQUyI9Cwi9HjkatcXiMTI2e05noOwlRpDpHDIvN+0996lPbXlOdrh6JA9I2Ggc07Wncjvz22G5684B3sJ+ULMiL0zFJWfrv2ihIPU+HJcCnPcpoCQvaXhTqRvm40Y1u1OQqrLgf+MAH1oXP9UY0+nLpsVGcjZB8yKt93ehz6DEwZid6uB+X/9rsn/7pn7b/PezhBvldxHcPHUwIbTCK9n/eqH8RhM/swq1udau2lzvIqDHQCQU80nl8etI+6PBBPvLX/zf63awzaJABqXdgrz30nZqtwjkKeMoAYjdivxvgZSra3kJj+eQnPzmrEBBlAP39HimshFWpUwHDtzCcnhqlLKz/H/zgB9tH1KUtLIOssjrT2D0u8JySCvSOGVQVMQ0pPGbqxCEH4H6fl+0G3kz/JZ/+M1J9IxnjSle60qy3mXyKi06wDM/SSLowvo6Pp8xMoKuz5b600eBck6mGzGWUJm58LoaG8Xb6kJ495WGEQBkY9Rjd/uiP/mhLT5weSZ+MwHOdpe1A8gzjdPcFkp58OywEyMehMieffPKsDE0vk5fRX8L1ML0pbMLH7/MzD+NODjp9mY2xSCapR8Fm6S4C+hx6Zp3MuqRucf35zYsgbW367LPPXrtzEQ477LBm7MgGrWV4NFrs5Wq62AEzi+QzD8Lq6JtdA3pM+kE/Ba1OG3WDjqiOqbBmgxjhwMienpRPfHBkE/nl3hjj1y86+tredkHd1RmuEXAHQtlXYPBAYadSaTDwqU99qvkbQUUwWsUjGuLqRYFebA/PvAsWLhWIkgLTnozPoYceOpuGyUiLzxmhhTdTbf5D7oWmdHMN0ksD3FfAgzSTrkYYvhaBgTMaCG/4Tg8UNos/D32+e6DNAATkl3e0PebJKeUVvkBdoQyM4tOTP+GEE5qSMlUs/KJ6K1+UcyCsDlXq4t4g+cdPz+9G6OOsCnHIDA3HC4aGPDrGNNcvfvGLm8zMEsyTsRFVf1/bW6b8nZrUv6vzLjD5WQXzeNoK8ByZvPWtb21lih++Nmzqlt9jzK+4TtDTOe/hdC60pSHOMvnMqDWw5kG7W0VG0sRLZHTUUUc1H9DpR8DCMq46oL/2a7/W/luT4vVbII42Ix+RD6cTJzy3CAw6CK99mREQfjvLzyllOS1tN2J1rbgCCDZwrdFm8cpGBbNVoJ809cz9T2F6lwE9T9DzoRJQACpSKoLjFv1HawyLtkJPYZuqu+CCC9q5q+JafBXFHaPO12hMb4Y3o7n0NHNP2Mis5zH3thPJL9pcDlQPGLhFCL9gyqnnb297nmj1eQ/ImrJOOhZVzVsEJ9wY+GXA+WjLu9kKU6nuoelIPYuRxPdfmfUGv4c4yhKvwqNpqhDdMYSJvPI8//meAz/XY6A/TybbBXngrIfQgWRg8Gba2VF+OhfWVwBF3MtYnvBt0R6ET4t9jLpgI961i17O3r2n4yte0pJGfx2/l1n/v7+/FUjLYjQ8qA/+e1Vlylzd6OmP8yeskXPyEdzrXvdau7oIG8kFvPvNa4DkPWcs5/8ywKvRuLIyOnSMbOCeMo+sI0PHeKoHwlsP0OeZH4Oe9mg2TNnNy1M6LPSxdpsw5JMZhaS9CH3bMgh66EMfuvZvPfBEfzvqNO1st2H5ktsCkukI2RSF6cpegKsgdDYqHM8UJsErbJWC04OlpOdVityLokHDNafwUrHGMFo+9thjW3xh5csKV6uI3cvCpMgBcp1V2eDeiSee2K43a0zy4L2NdzDbheQPz5xGaBVvkHc1ixB5WTGZsrE6VlkHG5XZRtDYxyAjRi/lhvbTnva0dg0bpRX5ZURndGIVdPLubHDGOOUQhdHLA31OnoXL9Lv/aOhQOSs593p/XL7qi/N4Nyv3VbFVeffwzi8yVrfxeeqpp7b2ZQGO0UUP9Uh4bc91XqfIuwWGwSLedF4jJ3Qs3lrU9sbyFD7OPX6AxtgALoPwKS2zWv5Hp2T0CX1aY4jjfHE0Es6IbLxmYjNklXGPTNcukuc8CJv30d4f9/LV1nSitdvQxHMGB6aeMyuhPnDkYQEWmUfGWUg1hvBpz1m0lXT4/fTzRjINzzq6p5xyyozGGHjyuqQfse82bG+rH4Fg+saggCzjVxkXCW1vIT0FpGfnOhVFwRuhJt004MB9lal/b2nltF4fjMMHemBRNGgwpMJ6Z5gFXcm/+3gCvedeQZ100kntPcpmcvGlFD1q8fcWWeAFeCAn/33AoFdYPnDQL0brIW+mfy2KEpec0ckUG2yWp42AxzHw6t1XjCPokOS9sHTnpWlx2eMf//i2yjsfztAxs17AKwBxvNdMA09+QJ4C6XuWsqSIdVrAM+7JT35yq+sJg6fIA6RBETL+wu8Nxnmdl/et4EEPetCs/oOPQjgkn0yOO+64WX7G/HsVoYPZy+z3fu/3Zv97OfTwzhfIjEx1lNBOePE9S5l4Nz1O23+drLQtUJdTDqsg6fqAhM5lz4cp1mXlzHjiOeFNXfeGb5E8ejA28sDJo/pvulgbEH9ZXixss/5EnIygoZej2SX0lEHo+oa4kXDat/hkbGGacgBh5Wv84Y7AM+kIZxTOT7mYNUlHdhmYKfHREmWb1djzkDSXkfFOYPVauQIi4AhZZbHtQiHuK4Gkwlh5SYEE0n75y18+UwLhKcCP6bWsAPb8MY95zIzPcfjA9glfcsnzpN9Pi/Q0kr49p8KqIGmMjDYjjNe+QQSMh+lRRkIj3ltYLNTzFj7sYzWKCdw38pkH8Y0O834K78o32xUij60AbaMiCB1ywavV5X2ZuO+VQF419B2IwKsBhoDytPcRrwkP0iOT0I1spB2llf/hJ/4973nP5ieMDokRRkYPCReYVTDNS9llX/lug9GQL1EBmciD/FH8eV8XRLEmn76wAzGWtoSZhibzPlyPLAxCS1uglPsythDRfzSkbeFj/zywXQYNYTjpzgu3GdDgvKvkp32Ad6d9/uflB3QKvcIJz2hYV9DzsyguiKdDYcQYfiDvbmPYe142QmbnuL4M+/aSTldeB1iYqkOJZ2lJk/EVNx0DfPnvflZ3z4Ow6PbvfyH5Sf42gviPfexjW4eQPVmkC+lagwc6dZ4+2BUYBLDXGIS2x8klw6ioHfYviThfhVkVg+D2oD8YydnpKXznJXs+FMy6014G5ddOaxFuqBzNvfCFL5x7Kor4j3rUo2anwBx22GHrPsgwzl8Ph8r3/DgHOBjzDrnXn66EN3Ed8ea8WXkMhso6Oy7R6U/DCHjtyWpwYlV45Du3eDA4a0+n7cDyc9aOzBwMxOxIOQ5fw8hxLeT6owSF7w+Zl6/kMW4ZkLPTnUJH+nh0D9QpB98PirrRHH+4gRPe+dSJA46edIC9577W4vi74MQTT5zJg3PtAwqBE358tagPo6wcXg8XXnhh42UYQbczjT0TRj1y7ZSu448/vn0AxNeiHI3p6zlJ61WvelWjEzkNCredPNan5VjLRRhGmrM0OXUe+nawN3DiGPp9/p/4xCeuK9N5bRTU2fAmvi9ZzYN4jjxMOvTE0DHag974HO2hk9g+AhB84QtfaLwdeOCB7XnSFs4zsp3H5xi97MTxUY/Q4itnQGcjOasTPqQhXu/64yd7XqTV+3nmwyLJc5xTnoKE3wz4oZvk4VrXutbs9D55SBnyfYSjTysnnfV5FZYeRS/hlB1Zhe8+bz3OOuusdUeeuh46xgvD99CufWQh5TGuU6FBr/lIC7mpDz4W4tkyaexP7JUBTmbmVQDnu1KGKRi+A9SjPGEzYcyr3O6deeaZ6xQCI9sbkh6Og5SuAuNcU4I9z/hgeEJPofXnLc/jA8K/xn3w2pnPnKMiGQsQpnc9GMSht9nihD/X8sYxtrkOXyrvIn42A6PpLGS0YlwpSZXfcX3uOT81cGSiMHGHHHJI6xik4QKajpOLgqCclMWiPG8E+SI3Chit0DzyyCMbj/e///3bPV+MAvJLHSO7hI+8HPLuXmQ49Jab4urlp5wTL05YH3EYRrDtGm3pkE/C+k8RoKmug3rVK5aEFQ+dnhf3dVQCPJGV/Evb89QHH4voOzwBZRRawrr2Ja2t1o9FGEbos3zJQ985hPA+LmtfDlKHxQuPJ5xwwrr6Azom+RoVZekLXePONNqOmOzlix4D4ChY5xrHGDC4ZBH5cTrUjnHUVtGaJ88xhHvTm960R/1whCM6QeiFZnxHuib/ocGXX3mL3DaCj1zkiNzQUJ+cEU+HRUYb5Sfp6LxGLgwwA+p+79B8whOeMEvLGd59OYRv8HUyvKTuCe9Tjf0AB01IHM982EXYOPF1SiMX4IvryFP1iN3wkYb+c4fSPP3001v4IOk9//nPn/HE0fsf/ehHZ893C7bFAMd34LXeurNFDz300FnmFWYag/NPKXYHyTvLdTP0AiNAIw+GAK0IGG0HwxsZGrFAChKMMqQbfpznSqkZWeLBiClKnwEZfxhhs0JTcfR08UFBZFQE/LHrYVQpTRUk/PUOTc4I1Eh7GcWxEXqjGvnF19h6xQJPf/rTZ2XHKVf3nNlsVOeLI3lulMkoaMSU7DivmyHh8xWTuMgVn3q8mZkQnvEb98LHcfnkp+7grS8HBs/3cMXjonhyTcHoYDA67vvf03beuDqHHtpGcj5CED6EQafnyzUjMzZEPi6QvPfhKR2zE0aFIB0zFJRW6CefvpD02te+do9y3CrkS7uL4cvZ1b0ce9fDf+2rH0FyRvg6QtqNL+lkFC8NeiF0+jace2apetny/U+5HX744e3caYa8lyFDSEf0bXMekia+zZYxVKHRO8bc+d/p+PfGl17RSTT7gcc4/HDqm1mWfEyi58e1+o2GMteZSJp9fpx/72tUPgtqlmIj0It0cuph+GHQDGZ0ZCG8GHFLg17KR1XCow6BTp6zu/tPZIY3ekwZqZ+hC/LEiOospQ3hIfGVff4705w+jsz6cFzKWlqf+9zn1lK4COEzX2mLQ0OHKEi4nca2TEEDZcKoMW7pFfXC6isPR3gKI8p0ESIoSkCBj+nEpbB8GJpygN5YqQw+c9YXaGhFgfmqi8osvvxojGmQ8woszz2jHDV6o7SxYvV8owL3hRzGSyWMoQlfrn0jNZUHnTH9VeCA+6OPPnomN/RVdh+s7kftkSHfFG564X25pmw5vea97RwElBpFj7c01vCYvKdcgFLIaDX8uA5/ZNs3PkgZg04DZZR6y1cODNx55503k4sOSjpKjKLPwJEnefX8qGtGx8L2POHnNre5Teu4BImn86r+9HWzlzWefKBAe6Fc8BfZCNfH40zXbgdSd/GGPqPU3x+7eaAkGSzxexe+Oa8w+lccyqeXaejrWOjsyj8aZEA+ZiRMPzMY4pGBGRBTj4zBvNdOYyQ9HaojjjhiVtbooxd5c+ThvxF9Ojt41vlhQFL3OPnDb39PXOHSqQrk8YwzzmgzK316KV8uZcy5T+f0suqhTfrmctIOHb578kFv4z3lZ8DiGUMLaKS9mJ5OXH7oRVacZ3int6ITdEzZhjwnj8QNLfnx33XynnvzrunrXueEf/75558/m11Ei+7XjhOGvBbJbH/icn4GJrcFQ+aaPwin+cGiJNwXVrxB6O1e/H0FRwZaRez0IpvMbQlwWIYtDw6OGApr3WKLVWBhzTAaa/tf5W3VvAxKoi0scCLTUDnaFih7cm33IKOxXLeKodK2xWb2FtouZEV1v2VoESxmwJ94+LEVCI+cBQ9Do1oLuTX0MkPPAikLbawmt2rZAo8s/piHQUm08FY5D8qirRTF4zD6WUp2tiRZ7Y0+uTtQQl3wX3m4tqfV6mbljGbPz5h/z8lLPcND5IxO6nzCbwfG7Ww7aMuHem1rydAJavXGwhe0V00v9ZtTl8jXdhwLGQcDOmt382gHSWPopLV2YgWus7ft+7doLOX8rne9q5XhYGDa/43qTeHSiZxepl74yMMyOm5/Y1sNcDCP5G6o/PgKH/31dmI76O4r3hioGJTditSdrZRT4vLTYRGXW4ZOwvC5sdHuO0GewzyafVoM2L4yuPsaya8V3o7kdKyqgxhShyIDWDVf4qZTM4ZnvQwD/yNPWDb9ebQKlw3s9rLfZwY4Gd+Nme8VaRQj7DSvvXIJIsf4e4M+31tF+NgOWhthb/IrbpT7KnQSlt9jXvxV8h+6qWvz6I3TXAbz6Gwn8GsbTQ7EMPNhFL+MfDZC5AHSgMhlIzmsmo4Op5Hvvqynhd2Lvo32dW43YZ/UTBmV8WUyvBXFs7dIoaSA8LkdhcOABlvJF2UxRvjaDv76yhiQwbK89pV4O/iZB2kkHVPlqyL56WUZJb8ZxnnjL8pnZLkRItfQmCf/IGmt4vYHHvWoRzXfyU85ojTlA6vykbKIDMiE83+zcsrzvp31UF/yDD2dhsh8UZzCpRd93dxf7WVV7JMRcKFQ2P3Q9Ckm/ste9rJ2fOYBBxzQDpbxbta0s5PdrIvwJZ4clpB4hUJh71AGuFC4jMOiNQsRv7T2RamMSjmjSl/AOe2005pxLuNbKGwfNp9HKxQKl2o4ZjNTtDGu/jO+Vm8/85nPXPcxikKhsD0oA1woXEaRyS9Tyz6wzvjGAPOdAewM53xUpEa/hcL2oqagC4VC29/7ile8YvbheB+r8PUbe9prD22hsG9QBrhQKDRYZZxRcI12C4V9j5qCLhQuo2Bk43rjG6Rvvtn2oEKhsDXUCLhQuAyDcc1e2TFinGOUa0RcKGwvygAXCoVCobADqCnoQqFQKBR2AGWAC4VCoVDYAZQBLhQKhUJhB1AGuFAoFAqFHUAZ4EKhUCgUdgBlgAuFQqFQ2AGUAS4UCoVCYQdQBrhQKBQKhR1AGeBCoVAoFPY7JpP/ByTgeYWlKpg/AAAAAElFTkSuQmCC;" vertex="1" parent="1">
                    <mxGeometry y="370" width="480" height="86" as="geometry"/>
                </mxCell>
                <mxCell id="4" value="Text" style="text;html=1;align=center;verticalAlign=middle;resizable=0;points=[];autosize=1;strokeColor=none;fillColor=none;" vertex="1" parent="1">
                    <mxGeometry x="5" y="495" width="50" height="30" as="geometry"/>
                </mxCell>
            </root>
        </mxGraphModel>
    </diagram>
</mxfile>